<?xml version="1.0" standalone="no"?>
<!DOCTYPE svg PUBLIC "-//W3C//DTD SVG 1.1//EN" "http://www.w3.org/Graphics/SVG/1.1/DTD/svg11.dtd" >
<svg xmlns="http://www.w3.org/2000/svg" xmlns:xlink="http://www.w3.org/1999/xlink" version="1.1">
<metadata></metadata>
<defs>
<font id="freightdispprfreightdispproLt" horiz-adv-x="1447" >
<font-face units-per-em="2048" ascent="1638" descent="-410" />
<missing-glyph horiz-adv-x="368" />
<glyph unicode="&#xfb01;" horiz-adv-x="985" d="M29 809l16 65h131l4 52q17 216 130 334q114 118 280 118q84 0 129 -32q47 -33 47 -89q0 -27 -21 -48t-51 -21q-44 0 -74 38t-26 97l-82 20q-223 -45 -223 -393v-76h391l133 27v-848q0 -10 13 -13q9 -2 65 -7l65 -4l5 -29h-394l6 29l72 4q62 2 62 24v750h-418v-754 q0 -7 2 -11q2 -3 16 -6q15 -3 47 -3l105 -4l6 -29h-424l6 29l72 4q61 1 61 24v748z" />
<glyph unicode="&#xfb02;" horiz-adv-x="987" d="M29 809l16 65h131l4 52q17 216 130 334q114 118 278 118q92 0 139 -35l86 50v-1340q0 -19 78 -20l65 -4l5 -29h-394l6 29l70 4q25 1 38 3q10 1 18 6t8 15v750h-418v-754q0 -7 2 -11q2 -3 16 -6q15 -3 47 -3l105 -4l6 -29h-424l6 29l72 4q61 1 61 24v748zM289 874h418v318 h-5q-46 0 -76 35t-30 92l-84 24q-223 -45 -223 -393v-76z" />
<glyph unicode="&#xfb03;" horiz-adv-x="1505" d="M29 809l16 65h131l4 37q18 213 126 330t267 117q152 0 152 -101q0 -28 -19 -48q-20 -21 -51 -21q-39 0 -67 37t-27 82l-55 16q-217 -40 -217 -391v-58h413l3 52q18 212 132 332t279 120q84 0 129 -32q47 -33 47 -89q0 -27 -21 -48t-50 -21q-47 0 -76 38q-28 37 -27 97 l-78 20q-227 -45 -227 -393v-76h391l135 27v-848q0 -10 14 -13q10 -2 62 -7l66 -4l6 -29h-393l6 27l71 4q15 1 37 4q8 1 18 7q7 4 7 15v750h-420v-754q0 -7 2 -11q2 -3 16 -6q15 -3 48 -3l104 -4l6 -29h-422l6 29l72 4q62 2 62 24v750h-418v-754q0 -7 2 -11q2 -3 16 -6 q15 -3 47 -3l105 -4l6 -29h-424l6 29l72 4q61 1 61 24v748z" />
<glyph unicode="&#xfb04;" horiz-adv-x="1513" d="M29 809l16 65h131l4 37q18 213 126 330t267 117q152 0 152 -101q0 -28 -19 -48q-20 -21 -51 -21q-39 0 -67 36q-29 36 -27 83l-55 16q-217 -40 -217 -391v-58h413l3 52q18 212 132 332t277 120q92 0 139 -35l86 50v-1340q0 -19 76 -20l66 -4l6 -29h-393l6 29l69 4 q25 1 38 3q11 1 19 6q7 4 7 15v750h-420v-754q0 -7 2 -11q2 -3 16 -6q15 -3 48 -3l104 -4l6 -29h-422l6 29l72 4q62 2 62 24v750h-418v-754q0 -7 2 -11q2 -3 16 -6q15 -3 47 -3l105 -4l6 -29h-424l6 29l72 4q61 1 61 24v748zM813 874h420v318h-6q-45 0 -75 36t-30 91l-86 24 q-223 -45 -223 -393v-76z" />
<glyph horiz-adv-x="0" />
<glyph unicode="&#xd;" horiz-adv-x="681" />
<glyph unicode=" "  horiz-adv-x="368" />
<glyph unicode="&#x09;" horiz-adv-x="368" />
<glyph unicode="&#xa0;" horiz-adv-x="368" />
<glyph unicode="!" horiz-adv-x="483" d="M145 63q0 37 29 64q28 27 72 27q38 0 65 -27t27 -64t-27 -65q-27 -29 -65 -29q-40 0 -71 29q-30 28 -30 65zM172 1206q-15 105 59 105h29q30 0 45 -18q15 -17 13 -40q-1 -15 -1 -47l-59 -827q-1 -10 -12 -10q-12 0 -13 10z" />
<glyph unicode="&#x22;" horiz-adv-x="595" d="M12 825l244 500h4l78 -35l-309 -465h-17zM276 825l244 500h2l80 -35l-311 -465h-15z" />
<glyph unicode="#" horiz-adv-x="1046" d="M-25 389v29h287l117 438h-281v31h289l109 407h32l-108 -407h348l106 407h35l-108 -407h280v-31h-288l-115 -438h278v-29h-286l-107 -399h-33l107 399h-348l-105 -399h-34l106 399h-281zM297 418h346l117 438h-346z" />
<glyph unicode="$" horiz-adv-x="911" d="M43 334h31l45 -146q60 -109 162 -155l157 594q-2 2 -4 2q-156 51 -244 127t-88 209q0 148 106 245t275 97q69 0 131 -13l60 222h33l-62 -230q46 -12 62 -20l94 26l24 -319h-32l-109 241q-29 19 -51 29l-133 -502h4l4 -2q176 -62 269 -145q95 -84 95 -240 q0 -164 -124 -273q-125 -110 -312 -110q-27 0 -135 9l-84 -316h-33l84 320q-99 15 -192 49zM193 1026q0 -102 67 -162q67 -59 211 -112l133 503q-62 21 -129 21q-129 0 -206 -72q-76 -72 -76 -178zM311 23q60 -19 131 -19q152 0 243 81t91 212q0 117 -74 189 q-75 74 -235 130l-39 -149l-78 -295z" />
<glyph unicode="%" horiz-adv-x="1216" d="M23 1030q0 120 76 203q77 84 202 84q127 0 205 -84t78 -203q0 -118 -78 -201q-77 -81 -205 -81q-127 0 -202 81q-76 82 -76 201zM63 1030q0 -104 66 -175t172 -71q108 0 174 71t66 175q0 105 -66 177q-67 73 -174 73q-105 0 -172 -73q-66 -72 -66 -177zM119 -29l930 1340 h45l-930 -1340h-45zM635 248q0 122 76 204q77 83 202 83q127 0 204 -84q77 -85 77 -203t-77 -201q-76 -82 -204 -82q-126 0 -202 82t-76 201zM676 250q0 -108 64 -176q65 -70 173 -70t174 71q66 70 66 175q0 102 -67 175t-173 73t-172 -72q-65 -71 -65 -176z" />
<glyph unicode="&#x26;" horiz-adv-x="1390" d="M29 317q0 140 100 261q99 119 270 180q-196 111 -196 260q0 104 90 199q90 94 221 94q136 0 216 -74q79 -73 79 -168q0 -79 -67 -155q-65 -74 -195 -119q100 -50 202 -156q100 -103 164 -211q94 115 153 204q67 100 67 118q2 19 -29 32t-96 21l-58 6l-6 29h440l-6 -29 l-53 -6q-16 0 -31 -3q-5 -1 -23 -4q-10 -2 -20 -9q-9 -7 -16 -10q-5 -3 -16 -15q-14 -16 -16 -18q-1 -1 -3.5 -4t-7 -8.5t-8.5 -10.5q-6 -7 -14 -17l-7 -10l-231 -291q115 -218 169 -292q50 -68 120 -68q82 0 170 104l20 -20q-133 -156 -248 -156q-79 0 -147 68 q-67 67 -162 266q-72 -89 -111 -132t-102 -99q-62 -54 -128 -79q-65 -24 -140 -24q-147 0 -246 102q-98 101 -98 244zM147 379q0 -139 83 -228q84 -90 219 -90q105 0 187 64t200 207q-173 311 -406 411q-137 -56 -209 -155q-74 -101 -74 -209zM307 1067q0 -92 49 -151 q50 -60 160 -111q106 50 147 110q42 61 42 148q0 85 -59 150t-142 65t-140 -61t-57 -150z" />
<glyph unicode="'" horiz-adv-x="305" d="M12 825l244 500h4l78 -35l-309 -465h-17z" />
<glyph unicode="(" horiz-adv-x="696" d="M133 393q0 178 52 338q52 159 136 279q79 113 171 198q90 84 176 129q18 -29 18 -32q-87 -46 -171 -127q-85 -82 -163 -196q-77 -113 -127 -268q-49 -153 -49 -321q0 -169 49 -323q50 -157 127 -270t163 -194q85 -81 171 -126l-18 -33q-89 50 -176 131q-90 83 -171 199 q-85 120 -136 278q-52 160 -52 338z" />
<glyph unicode=")" horiz-adv-x="696" d="M10 -520q86 45 171 126q86 81 163 194t127 270q49 154 49 323q0 168 -49 321q-50 155 -127 268q-78 114 -163 196q-84 81 -171 127l21 32q87 -46 175 -129q92 -87 170 -198q82 -117 135 -279q52 -160 52 -338t-52 -338t-135 -278q-80 -114 -170 -199q-85 -81 -175 -131 q-21 29 -21 33z" />
<glyph unicode="*" horiz-adv-x="645" d="M53 1176q-2 2 2 9t8 7l119 -25l117 -151q2 -6 14 0l4 6l19 195l74 86l16 -5l16 -116l-112 -166q0 -7 10 -17l190 50l107 -50l2 -10q0 -4 -2 -6l-107 -45l-190 49q-2 0 -4 -2q-2 -3 -4 -7q-2 -6 -2 -7l104 -164l-8 -115h-2q-1 -1 -3.5 -1.5t-4.5 -0.5t-5 -1q-2 -1 -3 -1 h-2l-78 92l-13 189q-5 6 -14 6l-119 -144l-114 -28q-4 0 -8 6q-5 7 -5 8l64 103l172 67q2 6 2 10q0 7 -2 9l-172 71z" />
<glyph unicode="+" horiz-adv-x="917" d="M31 461l6 45h399v405h45v-405h400l6 -45h-406v-406h-45v406h-405z" />
<glyph unicode="," horiz-adv-x="342" d="M49 -227q152 96 152 225q0 61 -47 91t-86 9q-16 40 8 77q24 36 78 36q59 0 99 -43t40 -113q0 -87 -67 -171q-66 -83 -163 -128z" />
<glyph unicode="-" horiz-adv-x="602" d="M49 465l6 57h498l-2 -57h-502z" />
<glyph unicode="." horiz-adv-x="374" d="M90 68q0 37 29 64q30 28 69 28q40 0 68 -28q27 -27 27 -64q0 -40 -27 -67q-28 -28 -68 -28q-42 0 -70 28t-28 67z" />
<glyph unicode="/" horiz-adv-x="528" d="M31 -483l432 1792h39l-432 -1792h-39z" />
<glyph unicode="0" horiz-adv-x="1083" d="M72 481q0 218 136 364t337 146q200 0 333 -145q134 -146 134 -361q0 -223 -133 -366q-133 -144 -338 -144q-203 0 -336 144q-133 143 -133 362zM193 504q0 -230 94 -363t260 -133q149 0 247 132q97 131 97 331q0 214 -97 347q-98 134 -255 134q-148 0 -247 -130t-99 -318 z" />
<glyph unicode="1" horiz-adv-x="647" d="M68 911l6 23l319 49v-922q0 -19 80 -24l94 -6l6 -31h-456l6 31l102 6q66 1 66 29v829z" />
<glyph unicode="2" horiz-adv-x="866" d="M45 35q202 167 263 222q96 86 161 158q71 78 95 136q24 57 24 125q0 96 -57 159q-56 62 -154 62q-176 0 -283 -182l-20 12q63 121 156 192q92 70 202 70q113 0 192 -70q78 -69 78 -178q0 -74 -29 -138q-30 -66 -108 -150q-84 -91 -156 -153q-81 -70 -233 -194v-4 q105 0 200.5 -0.5t141 -1t53.5 -0.5q100 0 143 42q43 41 81 151l16 51l27 -2l-64 -342h-723z" />
<glyph unicode="3" horiz-adv-x="804" d="M14 -276q0 36 25 61t61 25q53 0 82 -49t19 -115l30 -6q36 -9 50 -9q140 0 250 96q108 95 108 265q0 128 -76 207q-77 80 -219 80q-76 0 -180 -46l-12 21q238 158 297 217q98 94 98 207q0 97 -63 160t-162 63q-169 0 -269 -182l-20 16q123 254 358 254q113 0 190 -74 q76 -73 76 -182q0 -107 -73 -190q-72 -82 -209 -172v-2q177 2 275 -88q100 -91 100 -242q0 -177 -154 -314t-373 -137q-107 0 -157 40q-52 41 -52 96z" />
<glyph unicode="4" horiz-adv-x="909" d="M20 59l617 914h27v-846l237 -4l-31 -88h-206v-412h-103v412h-538zM104 127h457v672h-2z" />
<glyph unicode="5" horiz-adv-x="774" d="M-29 -291q0 32 25 55t61 23q47 0 74 -40t31 -99q46 -15 86 -15q131 0 239 113q109 114 109 258q0 161 -132 272t-364 156l138 531h485l-21 -113h-458l-84 -322q251 -49 392 -172q140 -122 140 -295q0 -182 -154 -327q-155 -146 -368 -146q-199 0 -199 121z" />
<glyph unicode="6" horiz-adv-x="956" d="M61 481q0 202 110 390t304 315t428 151l10 -20q-293 -50 -482 -255q-190 -206 -236 -468l4 -4q69 86 162 138q92 52 190 52q160 0 257 -109t97 -270q0 -184 -124 -305t-289 -121q-193 0 -312 141q-119 142 -119 365zM186 463q0 -195 89 -326t225 -131q129 0 207 95 q77 93 77 255q0 151 -83 251t-205 100q-176 0 -301 -150q-9 -54 -9 -94z" />
<glyph unicode="7" horiz-adv-x="845" d="M51 670l35 293h733l4 -27l-549 -1315h-100l586 1227v10h-522q-67 0 -94 -30q-28 -31 -50 -111q-13 -36 -16 -49z" />
<glyph unicode="8" horiz-adv-x="919" d="M66 305q0 109 86 201t223 139v2q-134 71 -201 141q-70 73 -70 179q0 134 108 239t257 105q145 0 248 -92q102 -91 102 -226q0 -89 -71 -172t-187 -135v-2q140 -72 218 -154q75 -80 75 -200q0 -151 -115 -254t-286 -103q-164 0 -276 97q-111 96 -111 235zM172 315 q0 -139 84 -225t227 -86q125 0 204 75t79 191q0 64 -28 120q-27 53 -86 99q-58 45 -111 75q-46 26 -138 69q-99 -43 -165 -128t-66 -190zM197 1032q0 -116 85 -188q84 -71 255 -148q178 105 178 285q0 126 -77 212q-76 85 -194 85q-103 0 -176 -73q-71 -71 -71 -173z" />
<glyph unicode="9" horiz-adv-x="956" d="M41 -344q294 49 483 253q188 203 238 466h-6q-67 -84 -160 -137q-94 -54 -188 -54q-159 0 -257 113t-98 274q0 185 124 305q123 119 290 119q189 0 307 -143q119 -145 119 -369q0 -308 -243 -559q-242 -250 -597 -289zM170 621q0 -156 83 -259q83 -102 206 -102 q177 0 301 148q12 79 12 98q0 191 -91 324q-93 135 -226 135q-125 0 -206 -96q-79 -94 -79 -248z" />
<glyph unicode=":" horiz-adv-x="370" d="M90 68q0 34 29 61t69 27q41 0 68 -27t27 -61q0 -40 -27 -67q-28 -28 -68 -28q-42 0 -70 28t-28 67zM90 702q0 36 28 64q27 27 70 27q41 0 68 -27t27 -64q0 -38 -27 -67t-68 -29q-40 0 -69 29t-29 67z" />
<glyph unicode=";" horiz-adv-x="342" d="M49 -227q152 101 152 225q0 61 -47 91t-86 9q-17 41 7 75t79 34q61 0 100 -43q39 -44 39 -111q0 -87 -67 -169q-65 -80 -163 -126zM80 700q0 37 28 65t70 28q39 0 67 -28q27 -27 27 -65q0 -36 -27 -65t-67 -29t-69 29t-29 65z" />
<glyph unicode="&#x3c;" horiz-adv-x="897" d="M27 467v29l813 395l16 -41l-754 -363v-8l754 -366l-16 -41z" />
<glyph unicode="=" horiz-adv-x="917" d="M53 283l6 45h799l6 -45h-811zM53 682h811l-6 -45h-799z" />
<glyph unicode="&#x3e;" horiz-adv-x="897" d="M41 113l754 366v8l-754 363l16 41l813 -395v-29l-813 -395z" />
<glyph unicode="?" horiz-adv-x="638" d="M72 1239q0 72 133 72q152 0 261 -107q107 -106 107 -248q0 -73 -26 -115q-28 -45 -61 -65q-32 -20 -117 -59q-119 -52 -142 -78q-30 -30 -30 -76q0 -88 122 -198h-26q-164 134 -164 241q0 78 48 124q47 46 165 97q114 50 155 81q42 31 42 77q0 77 -81 143t-237 66 q-66 0 -135 -18q-14 20 -14 63zM201 68q0 33 27 60q28 28 69 28t68 -27q26 -26 26 -61q0 -41 -26 -67q-28 -28 -68 -28q-41 0 -69 28q-27 27 -27 67z" />
<glyph unicode="@" horiz-adv-x="1609" d="M61 492q0 336 235 579q234 242 564 242q294 0 493 -181t199 -462q0 -219 -139 -388t-323 -169q-90 0 -146 42q-55 42 -55 107q0 31 27 145q26 109 49 152h-9q-130 -208 -221 -314t-166 -106q-69 0 -119 55q-51 56 -51 130q0 130 93 284q92 152 210 264q82 78 170 78 q64 0 104 -46t48 -132h8l72 213l94 -6l-143 -389l-47 -205q-37 -86 -29 -137q8 -50 41 -68t96 -18q156 0 280 151t124 355q0 268 -191 441t-473 173q-313 0 -538 -232q-224 -231 -224 -554q0 -301 200 -496t511 -195q169 0 315 80q144 79 223 205l17 -22q-79 -127 -232 -210 q-152 -83 -327 -83q-326 0 -533 201t-207 516zM502 360q0 -64 34 -104q35 -41 76 -41q125 0 344 408q37 68 37 106q-8 53 -61 111q-53 57 -103 57q-55 0 -114 -55q-82 -76 -147 -220q-66 -147 -66 -262z" />
<glyph unicode="A" horiz-adv-x="1259" d="M-14 0l6 29l63 6q67 7 95 46q25 35 94 212l319 887l-14 51q22 7 50 29q29 23 38 38h18l410 -1159q24 -62 43 -83q18 -19 68 -21l84 -6l6 -29h-482l7 29l92 4q37 1 61 14q22 12 12 39l-153 446h-434l-123 -342q-29 -73 -29 -105q0 -10 3 -16q12 -26 104 -34l75 -6l7 -29 h-420zM381 569h407l-49 144q-43 124 -100 286l-49 146h-4z" />
<glyph unicode="B" horiz-adv-x="1126" d="M61 0l7 29l98 10q72 6 72 24v1156q0 18 -86 24l-82 8l-7 29h482q210 0 323 -74t113 -200q0 -116 -83 -199q-82 -82 -263 -109v-6q200 -15 303 -105q104 -91 104 -231q0 -167 -131 -262q-130 -94 -364 -94h-486zM365 61l176 -30h5q6 0 11 1l16 2q3 0 8 1t8 1q5 1 11 1h4 q155 12 232 96q75 82 75 213q0 146 -110 237t-287 91q-109 0 -149 -4v-609zM365 705l141 2q163 2 252 79q90 78 90 193q0 264 -340 264h-143v-538z" />
<glyph unicode="C" horiz-adv-x="1327" d="M66 625q0 299 194 492q196 194 500 194q177 0 330 -74l110 43l21 -367h-29l-119 283q-118 82 -317 82q-251 0 -402 -178t-151 -457q0 -286 149 -462q150 -177 402 -177q150 0 242 55t169 168l60 142h30l-69 -318l-70 -2q-172 -78 -364 -78q-301 0 -494 182 q-192 181 -192 472z" />
<glyph unicode="D" horiz-adv-x="1316" d="M61 0l7 29l98 10q72 6 72 24v1158q0 16 -86 22l-82 8l-7 29l467 6q340 0 532 -168q191 -167 191 -454q0 -293 -205 -479q-204 -185 -554 -185h-433zM365 59l180 -24q272 7 423 175q150 166 150 411q0 283 -159 456q-159 172 -455 172h-139v-1190z" />
<glyph unicode="E" horiz-adv-x="1148" d="M55 0l6 29l107 10q70 6 70 24v1158q0 16 -84 22l-91 8l-6 29h918l33 -334h-25l-22 88q-45 125 -113 170t-232 45h-251v-559h204q122 1 156 23q32 20 53 94l21 59l22 -2l-39 -391l-22 2l-4 55q-6 82 -35 102t-162 21l-194 2v-616l253 -6q198 1 278 56q78 53 128 179l25 86 l30 -2l-78 -352h-946z" />
<glyph unicode="F" horiz-adv-x="1083" d="M55 0l6 29l105 10q72 6 72 24v1158q0 16 -84 22l-91 8l-6 29h922l33 -346l-29 -2l-18 84q-21 62 -42 102q-18 34 -61 71q-39 33 -107 47q-64 13 -169 13h-221v-571h176q123 1 155 22q33 21 54 97l20 55h23l-39 -391l-23 2l-4 55q-6 82 -34 102q-27 19 -163 21l-165 2 v-577q0 -21 86 -27l129 -8l6 -31h-531z" />
<glyph unicode="G" horiz-adv-x="1386" d="M66 614q0 303 194 500q196 199 502 199q170 0 325 -76l113 43l4 -360h-28l-105 276q-118 82 -319 82q-245 0 -397 -182t-152 -461q0 -282 155 -455q156 -174 410 -174q183 0 291 64v428q0 18 -90 22l-113 8l-6 29h504l-6 -29l-97 -10q-71 -6 -71 -24v-396l127 13l2 -23 q-310 -119 -553 -119q-300 0 -496 179q-194 178 -194 466z" />
<glyph unicode="H" horiz-adv-x="1454" d="M61 0l7 29l98 10q72 6 72 24v1158q0 16 -86 22l-82 8l-7 29h484l-6 -29l-105 -10q-71 -6 -71 -24v-545h725v549q0 16 -86 22l-91 8l-6 29h486l-7 -29l-100 -10q-72 -6 -72 -24v-1158q0 -16 86 -22l84 -8l7 -29h-484l6 29l105 10q72 6 72 24v572h-725v-576q0 -16 86 -22 l88 -8l6 -29h-484z" />
<glyph unicode="I" horiz-adv-x="643" d="M70 0l6 29l110 10q72 6 72 24v1158q0 16 -86 22l-94 8l-6 29h501l-6 -29l-110 -10q-72 -6 -72 -24v-1158q0 -16 86 -22l94 -8l6 -29h-501z" />
<glyph unicode="J" horiz-adv-x="626" d="M-98 -143q0 38 23 61q25 25 63 25q58 0 83 -54q10 -22 10 -42q0 -28 -18 -54h4q101 0 153 91q52 93 52 280v1057q0 17 -86 22l-94 8l-6 29h496l-7 -29l-104 -10q-72 -6 -72 -24v-1074q0 -109 -105 -249t-241 -140q-68 0 -110 28q-41 27 -41 75z" />
<glyph unicode="K" horiz-adv-x="1302" d="M61 0l7 29l98 10q72 6 72 24v1158q0 16 -86 22l-82 8l-7 29h484l-6 -29l-105 -10q-71 -6 -71 -24v-668l426 440q177 177 184 215q5 23 -31 31q-10 3 -57 8l-99 8l-6 29h465l-6 -29l-53 -4q-79 -6 -113 -32q-35 -27 -244 -242l-169 -174l432 -660q43 -71 61 -86 q16 -13 70 -18l65 -6l6 -29h-456l8 29l72 6q46 1 57 30q10 27 -8 50l-387 604l-217 -219v-441q0 -16 86 -22l88 -8l6 -29h-484z" />
<glyph unicode="L" horiz-adv-x="1091" d="M61 0l7 29l100 10q70 6 70 24v1158q0 16 -84 22l-84 8l-7 29h519l-7 -29l-139 -10q-71 -6 -71 -27v-1175l204 -4q135 0 219 32q82 31 116 74q35 44 69 127l26 103h31l-80 -371h-889z" />
<glyph unicode="M" horiz-adv-x="1667" d="M33 0l6 29l96 6q105 6 105 45l36 1132q-28 22 -102 29l-100 10l-6 29h350l426 -1085h4l434 1085h332l-4 -29l-125 -6q-58 -5 -62 -28l25 -1158q0 -20 84 -26l90 -4l6 -29h-493l6 29l121 6q61 1 61 28l-27 1131h-6l-479 -1182h-25l-444 1137q-7 16 -15 26q-12 15 -14 17 l-30 -1114q0 -39 139 -43l78 -6l6 -29h-473z" />
<glyph unicode="N" horiz-adv-x="1423" d="M55 1280h320l803 -1077h2l-2 1001q0 26 -121 41l-82 6l-6 29h444l-6 -29l-84 -6q-106 -10 -106 -45v-1208h-35l-875 1175h-4l2 -1089q0 -36 121 -43l82 -6l6 -29h-444l6 29l84 6q106 10 106 47v1102q-30 40 -137 57l-68 10z" />
<glyph unicode="O" d="M66 637q0 272 195 473t460 201q283 0 473 -188q188 -187 188 -484q0 -270 -195 -468t-462 -198q-285 0 -472 186t-187 478zM205 643q0 -287 148 -462t376 -175q232 0 374 169t142 456q0 289 -150 468t-374 179q-229 0 -373 -172q-143 -171 -143 -463z" />
<glyph unicode="P" horiz-adv-x="1077" d="M41 0l6 29l119 10q72 6 72 24v1158q0 16 -84 22l-105 8l-6 29h516q230 0 349 -85q120 -85 120 -237q0 -164 -132 -264q-131 -100 -339 -100q-88 0 -192 14v-549q0 -17 86 -22l129 -8l6 -29h-545zM365 647q94 -24 192 -24q168 0 252 80q86 81 86 235q0 309 -363 309h-16 l-151 -2v-598z" />
<glyph unicode="Q" d="M66 637q0 272 195 473t460 201q284 0 473 -189q188 -188 188 -483q0 -229 -144 -411q-143 -180 -361 -236q95 -211 229 -270q90 -40 227 -40q67 0 144 9l4 -27q-112 -31 -230 -31q-385 0 -526 340q-285 0 -472 186t-187 478zM205 643q0 -287 148 -462t376 -175 q232 0 374 169t142 456t-150 467t-374 180q-229 0 -373 -173q-143 -171 -143 -462z" />
<glyph unicode="R" horiz-adv-x="1208" d="M41 0l6 29l119 10q72 5 72 24v1158q0 16 -86 22l-103 8l-6 29h504q221 0 340 -84t119 -229q0 -126 -91 -219t-235 -130l313 -481q45 -65 70 -82q28 -19 76 -20l57 -6l8 -29h-270l-35 61l-342 547q-120 0 -192 25v-574q0 -11 86 -22l102 -8l6 -29h-518zM365 672 q91 -31 213 -31q132 7 214 91q80 81 80 220q0 144 -99 223q-90 72 -259 72h-27l-122 -4v-571z" />
<glyph unicode="S" horiz-adv-x="970" d="M76 334h30l46 -144q99 -186 325 -186q150 0 241 82t91 211q0 123 -81 198q-79 73 -261 134q-155 52 -244 129q-88 76 -88 207q0 150 107 248t274 98q130 0 223 -43l97 24l22 -319h-31l-110 246q-89 59 -209 59q-130 0 -206 -72q-77 -72 -77 -178q0 -110 76 -170 q74 -58 240 -119q81 -27 140 -57q54 -27 113 -72q57 -44 85 -105q28 -62 28 -145q0 -166 -126 -277q-127 -112 -312 -112q-198 0 -358 62z" />
<glyph unicode="T" horiz-adv-x="1236" d="M61 952l76 328h983l47 -330h-28l-19 94q-50 122 -107 160q-59 39 -204 45h-127v-1190q0 -16 86 -22l109 -8l6 -29h-531l6 29l125 10q72 6 72 24v1186h-133q-92 -5 -151 -34q-62 -31 -90 -66q-27 -34 -62 -105l-27 -92h-31z" />
<glyph unicode="U" horiz-adv-x="1359" d="M27 1280h518l-6 -29l-119 -10q-72 -6 -72 -27v-780q0 -209 101 -301t303 -92q372 0 372 432v731q0 31 -139 41l-82 6l-6 29h459l-6 -29l-84 -6q-103 -11 -103 -45v-727q0 -246 -119 -374t-337 -128q-245 0 -366 110q-120 109 -120 359v779q0 18 -86 24l-102 8z" />
<glyph unicode="V" horiz-adv-x="1267" d="M-16 1280h477l-6 -29l-93 -4q-19 -1 -40 -7q-15 -4 -28 -17q-12 -11 -5 -31l395 -1053h4l336 948q29 74 29 106q0 10 -3 16q-12 26 -104 34l-74 8l-6 29h420l-6 -29l-66 -6q-68 -7 -96 -46q-27 -37 -90 -212l-360 -1007h-41l-443 1161q-23 60 -43 81q-17 18 -67 23l-84 6 z" />
<glyph unicode="W" horiz-adv-x="1972" d="M-10 1280h477l-6 -29l-92 -4q-39 -2 -61 -14t-11 -41l369 -1055h4l307 826l-64 178q-23 62 -43 81q-20 18 -71 23l-82 6l-6 29h477l-6 -29l-92 -4q-38 -2 -59 -15q-20 -13 -13 -40l377 -1053h2l311 942q24 61 24 96q0 15 -5 25q-15 34 -105 41l-78 8l-6 29h422l-6 -29 l-64 -6q-67 -7 -88 -42q-22 -36 -84 -216l-338 -1007h-43l-340 931h-2l-350 -931h-47l-412 1161q-25 65 -42 82q-18 18 -68 22l-82 6z" />
<glyph unicode="X" horiz-adv-x="1253" d="M-14 0l6 29l65 4q72 5 109 34q39 31 117 146l286 424l-338 500q-42 65 -63 85q-23 22 -66 23l-77 6l-7 29h490l-6 -25l-101 -6q-52 0 -59 -22q-2 -5 -2 -12q0 -23 22 -62l281 -424h2l238 358q26 43 49 89q15 30 1 45q-12 14 -30 17q-12 2 -65 7l-86 6l-9 29h467l-4 -29 l-67 -4q-74 -5 -105 -27q-29 -21 -108 -139l-258 -381l94 -139l188 -278l94 -142q2 -4 9 -13.5t11 -16.5q4 -6 7.5 -12t6 -9.5t3.5 -5.5q6 -8 16 -18q14 -14 20 -17q4 -2 24 -8q15 -5 33 -6l77 -6l4 -29h-487l6 29l96 4q52 2 62 22q2 5 2 11q0 20 -23 59l-317 481h-2 l-68 -98l-131 -201l-67 -98q-50 -82 -56 -111q-7 -34 12 -46q17 -10 78 -15l84 -8l9 -29h-467z" />
<glyph unicode="Y" horiz-adv-x="1220" d="M-8 1280h485l-6 -29l-96 -4q-52 -2 -59 -19q-1 -3 -1 -8q0 -19 25 -63l309 -536h6l252 450q47 89 47 125q0 6 -1 10q-9 31 -99 41l-84 4l-6 29h448l-6 -29l-65 -4q-73 -5 -101 -28q-29 -24 -92 -146l-276 -487v-527q0 -16 88 -22l108 -8l6 -29h-530l6 29l125 10 q72 6 72 24v504l-336 568q-33 59 -59 85q-23 23 -76 25l-78 6z" />
<glyph unicode="Z" horiz-adv-x="1118" d="M63 0v23l824 1220v6h-387q-160 0 -229 -54q-67 -52 -117 -189l-21 -86h-29l35 360h897v-23l-819 -1218v-4l395 -4q198 0 274 63t120 213l26 96h33l-59 -403h-943z" />
<glyph unicode="[" horiz-adv-x="665" d="M137 -485v1781h500v-36h-459v-1711h459v-34h-500z" />
<glyph unicode="\" horiz-adv-x="503" d="M0 1309h39l432 -1792h-39z" />
<glyph unicode="]" horiz-adv-x="665" d="M29 -451h456v1711h-456v36h499v-1781h-499v34z" />
<glyph unicode="^" horiz-adv-x="776" d="M127 999l252 381h18l252 -381h-20l-238 258h-4l-240 -258h-20z" />
<glyph unicode="_" horiz-adv-x="927" d="M25 -70l6 70h866l6 -70h-878z" />
<glyph unicode="`" horiz-adv-x="776" d="M100 1393h140l241 -377h-16z" />
<glyph unicode="a" horiz-adv-x="817" d="M59 690q0 71 124 143q125 72 241 72q129 0 192 -64q57 -58 57 -194q0 -17 -1 -35l-21 -493q-2 -41 13 -56q14 -14 45 -14q41 0 102 66l16 -19q-1 -5 -16 -19q-6 -6 -12 -13t-7 -8l-4 -4l-7 -7l-8 -8q-16 -17 -20 -20q-9 -5 -20 -15q-10 -9 -22 -14q-8 -3 -24 -7 q-18 -4 -25 -4q-47 0 -82 38q-33 36 -33 95v7l-2 4q-151 -141 -262 -141q-98 0 -157 56q-60 57 -60 142q0 113 109 189q108 75 388 149l2 90q1 13 1 26q0 226 -206 226q-64 0 -126 -31q-60 -30 -60 -55q0 -1 22 -29q21 -27 21 -55q0 -31 -22 -52q-24 -22 -58 -22 q-78 0 -78 76zM178 203q0 -71 41 -112q40 -40 113 -40q93 0 219 109l10 323q-217 -57 -301 -122q-82 -64 -82 -158z" />
<glyph unicode="b" horiz-adv-x="966" d="M-37 1319l4 24l256 54v-660l4 -4q150 166 318 166q158 0 264 -121t106 -313q0 -208 -131 -350t-305 -142q-156 0 -268 76h-6l-74 -88h-16v1247q0 59 -12 80q-12 22 -50 23zM223 150q103 -142 262 -142q140 0 224 116t84 302q0 173 -85 286t-223 113q-129 0 -262 -133 v-542z" />
<glyph unicode="c" horiz-adv-x="845" d="M51 420q0 207 130 346t323 139q122 0 205 -53q82 -52 82 -131q0 -36 -25 -64q-23 -26 -55 -26q-41 0 -64 27q-16 18 -16 44q0 12 4 27q0 28 14 46q15 19 15 22q-7 22 -58 50q-50 27 -108 27q-134 0 -231 -116t-97 -287q0 -178 94 -296t236 -118q178 0 286 168l25 -14 q-131 -236 -354 -236q-168 0 -287 128t-119 317z" />
<glyph unicode="d" horiz-adv-x="997" d="M51 416q0 209 134 346t319 137q122 0 235 -63q4 -1 4 0v374q0 61 -11 80q-12 22 -50 23l-104 10l4 23l270 51v-1297q0 -29 10 -43t41 -16l94 -6l-2 -23l-250 -43l-2 164l-4 2q-153 -162 -317 -162q-155 0 -263 124q-108 125 -108 319zM176 455q0 -175 85 -291 q85 -117 220 -117q133 0 262 133v541q-43 63 -112 103q-68 40 -148 40q-139 0 -223 -112t-84 -297z" />
<glyph unicode="e" horiz-adv-x="854" d="M51 420q0 202 122 344q121 141 308 141q144 0 228 -81t84 -193q0 -11 -5 -53l-608 4q-10 -74 -10 -113q0 -179 94 -295q94 -117 236 -117q95 0 162 40q66 40 126 128l23 -14q-131 -236 -354 -236q-168 0 -287 128t-119 317zM186 610l482 4v8q0 108 -52 178 q-52 72 -151 72q-87 0 -166 -73q-80 -74 -113 -189z" />
<glyph unicode="f" horiz-adv-x="552" d="M29 809l16 65h131l4 54q15 208 121 329t244 121q56 0 90 -25q35 -26 35 -67q0 -27 -21 -48t-51 -21q-40 0 -68 27t-36 71l-5 14l-28 4q-172 -43 -172 -385v-74h229l-18 -69h-211v-752q0 -12 9 -15q11 -4 56 -5l105 -4l6 -29h-422l6 29l70 4q57 10 61 22v750z" />
<glyph unicode="g" horiz-adv-x="890" d="M18 -274q0 81 69 150q68 68 155 106v2q-191 21 -191 133q0 67 68 126q67 58 149 76v3q-81 27 -137 99q-55 71 -55 167q0 135 98 226t240 91q116 0 204 -61l246 28l-8 -81l-194 18l-3 -6q89 -84 89 -201q0 -129 -101 -218t-244 -89q-47 0 -102 12q-55 -12 -97 -48t-42 -79 q0 -92 160 -92q5 0 18.5 0.5t40 1t52.5 0.5q24 0 52.5 0.5t44 1t23.5 0.5q143 0 222 -60t79 -161q0 -163 -140 -270q-142 -109 -352 -109q-153 0 -249 64q-95 63 -95 170zM107 -250q0 -96 90 -156q89 -59 229 -59q137 0 244 77q106 76 106 185q0 182 -250 189q-3 0 -243 -11 q-62 -24 -119 -87t-57 -138zM195 606q0 -127 60 -205q59 -77 155 -77t158 75q63 77 63 193q0 132 -59 209q-58 76 -160 76q-94 0 -156 -78q-61 -77 -61 -193z" />
<glyph unicode="h" horiz-adv-x="991" d="M6 1319l2 20l252 54v-666l2 -2q2 1 31 25q24 20 34 28q1 1 6 5t11.5 9.5t14.5 11.5q21 16 39 26q2 1 37 23q28 18 41 23q21 9 41 15q27 8 45 11q21 3 44 3q99 0 158 -59q67 -67 67 -199v-592q0 -7 4 -11q3 -2 19 -7q15 -4 51 -4l64 -4l6 -29h-391l6 29l72 4q61 1 61 24 v551q0 211 -186 211q-141 0 -277 -133v-633q0 -10 12 -13q9 -2 62 -7l65 -4l7 -29h-390l7 29l65 4q62 2 62 24v1143q0 65 -12 86t-52 27z" />
<glyph unicode="i" horiz-adv-x="448" d="M27 825l4 21l252 57v-850q0 -10 12 -13q9 -2 61 -7l66 -4l6 -29h-395l6 29l72 4q61 1 61 24v639q0 70 -12 92t-54 27zM119 1192q0 34 24 64t66 30q41 0 62 -29q22 -30 22 -63q0 -32 -24 -61t-62 -29q-40 0 -65 28q-23 26 -23 60z" />
<glyph unicode="j" horiz-adv-x="415" d="M-152 -418q0 29 22 51q21 21 54 21q85 0 101 -127q133 22 133 295v874q0 68 -13 92q-12 22 -53 27l-80 10l4 21l252 57v-977q-1 -178 -82 -312q-79 -132 -202 -132q-63 0 -100 28q-36 27 -36 72zM104 1192q0 34 24 64t65 30q40 0 63 -29t23 -63q0 -32 -24 -61t-65 -29 q-40 0 -63 28t-23 60z" />
<glyph unicode="k" horiz-adv-x="919" d="M6 1319l2 20l252 54v-981l264 254q99 102 99 137t-74 41l-66 6l-4 27h385l-6 -29l-63 -6q-15 -1 -33 -8q-7 -3 -28 -13q-10 -5 -32 -24l-31 -31q-2 -2 -16.5 -17t-26.5 -27q-38 -38 -50 -52q-4 -4 -22 -20q-31 -28 -41 -37q-27 -26 -44 -44l-18 -16l286 -434 q30 -51 51 -67q19 -14 66 -19l47 -4l6 -29h-233l-37 61l-266 418l-113 -108v-318q0 -10 12 -13q8 -2 60 -7l65 -4l6 -29h-387l7 29l65 4q62 2 62 24v1143q0 66 -12 87q-12 22 -52 26z" />
<glyph unicode="l" horiz-adv-x="442" d="M12 1319l4 20l256 54v-1340q0 -12 13 -15q14 -4 61 -5l66 -4l6 -29h-391l6 29l67 4q25 1 38 3q11 1 19 6q7 4 7 15v1133q0 72 -12 94q-12 23 -54 29z" />
<glyph unicode="m" horiz-adv-x="1525" d="M27 825l2 21l254 57l-9 -172h7q181 176 315 176q99 0 160 -61q45 -49 57 -119h2q180 180 322 180q100 0 163 -67q66 -66 66 -191v-594q0 -9 3 -10q1 -1 19 -6q15 -5 52 -6l61 -4l6 -29h-387l6 29l68 4q61 1 61 24v557q0 205 -182 205q-71 0 -142 -36t-108 -85v-643 q0 -9 3 -10q2 -1 19 -6q15 -5 52 -6l68 -4l6 -29h-391l6 29l67 4q60 1 60 24v557q0 205 -181 205q-132 0 -251 -119v-647q0 -10 13 -13q10 -2 62 -7l68 -4l6 -29h-395l6 29l68 4q23 1 37 3q11 1 19 6q7 4 7 15v637q0 72 -12 94t-54 27z" />
<glyph unicode="n" horiz-adv-x="1011" d="M27 825l2 21l254 57l-4 -176l6 -4q62 54 100 85q33 26 108 63q69 34 134 34q100 0 159 -59q68 -73 68 -201v-590q0 -5 3 -10q3 -4 20 -7q20 -4 51 -5l65 -4l6 -29h-391l6 29l70 4q64 2 64 24v551q0 211 -191 211q-136 0 -276 -133v-633q0 -10 13 -13q10 -2 62 -7l64 -4 l8 -29h-393l6 29l68 4q23 1 37 3q11 1 19 6q7 4 7 15v641q0 68 -12 90q-12 23 -49 27z" />
<glyph unicode="o" horiz-adv-x="995" d="M53 434q0 199 130 335t319 136q186 0 314 -131t128 -328q0 -202 -129 -337q-130 -136 -315 -136q-189 0 -318 131q-129 130 -129 330zM176 457q0 -252 125 -377q78 -78 201 -78q133 0 224 124t91 302q0 246 -112 358q-84 88 -207 88q-140 0 -230 -120q-92 -122 -92 -297z " />
<glyph unicode="p" horiz-adv-x="995" d="M-2 825l2 21l254 57l-2 -166l6 -4q145 166 315 166q159 0 265 -121t106 -313q0 -208 -131 -350t-307 -142q-126 0 -250 62h-4v-496q0 -10 13 -14t61 -6l100 -4l6 -29h-428l6 29l70 4q59 12 63 22v1159q0 70 -11 91q-12 23 -50 24zM252 139q105 -131 262 -131 q139 0 222 116t83 302q0 174 -84 287q-84 112 -221 112q-133 0 -262 -133v-553z" />
<glyph unicode="q" horiz-adv-x="980" d="M51 416q0 209 134 346t319 137q135 0 254 -80h6l74 96h14v-1374q0 -15 41 -20q2 0 12 -2h10l70 -4l6 -29h-426l6 29l99 4q46 1 60 6q13 4 13 14v594l-4 2q-153 -162 -317 -162q-155 0 -263 124q-108 125 -108 319zM176 457q0 -177 85 -293q85 -117 220 -117 q133 0 262 133v539q-44 64 -112 104q-70 41 -148 41q-139 0 -223 -112t-84 -295z" />
<glyph unicode="r" horiz-adv-x="677" d="M29 825l4 21l250 57l-7 -334h3q123 340 278 340q50 0 77 -27q28 -28 28 -65q0 -34 -23 -60t-57 -26q-36 0 -60 27q-23 26 -28 73q-131 -41 -213 -319v-459q0 -12 9 -15q11 -4 54 -5l98 -4l7 -29h-414l6 29l68 4q23 1 37 3q11 1 19 6q7 4 7 15v641q0 68 -12 90 q-12 23 -49 27z" />
<glyph unicode="s" horiz-adv-x="724" d="M61 252h29l41 -121q79 -129 215 -129q98 0 160 53q61 52 61 138q0 87 -59 134q-60 48 -180 85q-242 74 -242 245q0 106 82 178t201 72q89 0 176 -37l65 19l15 -230h-31l-78 168q-74 50 -154 50q-85 0 -136 -46q-50 -45 -50 -118q0 -78 52 -118q51 -40 165 -79 q58 -20 100 -38q27 -12 80 -46q47 -30 68 -77t21 -109q0 -114 -92 -194q-91 -79 -236 -79q-142 0 -250 45z" />
<glyph unicode="t" horiz-adv-x="612" d="M23 811l16 59l141 7l8 176l103 -2l-2 -177h291l-19 -67h-272q-2 -84 -3.5 -164t-2.5 -140.5t-2.5 -114t-2 -90t-1 -63t-1.5 -39.5v-12v-12q0 -129 125 -129q25 0 41 4q24 6 40 15q23 13 32 17t36 23q24 17 30 23l14 -19q-19 -17 -46.5 -41t-28.5 -25q-25 -23 -75 -45 q-49 -22 -92 -22q-186 0 -184 191l10 643z" />
<glyph unicode="u" horiz-adv-x="968" d="M2 877h254v-607q0 -213 193 -213q129 0 270 129v580q0 47 -14 60q-15 13 -62 18l-63 6l-7 27h256v-775q0 -27 10 -42q9 -13 44 -15l92 -6l-4 -21l-252 -49l4 181h-4q-64 -53 -103 -83q-34 -26 -103 -60t-134 -34q-100 0 -168 62q-64 64 -64 198v590q0 11 -10 14 q-8 2 -65 7l-64 6z" />
<glyph unicode="v" horiz-adv-x="913" d="M-14 877h374l-4 -27l-59 -6q-43 -1 -52 -20q-9 -18 7 -60l244 -627l204 539q29 77 33 106q5 30 -12 44q-18 15 -68 16l-57 8l-6 27h336l-6 -27l-41 -6q-48 -1 -72 -33q-22 -29 -72 -149l-262 -678h-41l-297 766q-26 61 -39 77q-12 15 -47 17l-57 6z" />
<glyph unicode="w" horiz-adv-x="1409" d="M-10 877h377l-9 -27l-55 -6q-44 -1 -55 -19q-10 -16 6 -59l221 -629l211 518l-35 97q-21 56 -38 73q-14 15 -52 19l-57 6l-8 27h378l-6 -27l-57 -6q-42 -1 -52 -19q-9 -17 7 -59l250 -633l176 541q23 76 26 104q3 30 -15 45q-17 15 -68 19l-52 8l-6 27h330l-6 -27l-37 -6 q-53 -6 -77 -38q-22 -29 -62 -149l-221 -673h-43l-254 624l-258 -624h-41l-273 759q-22 64 -35 82t-49 19l-57 6z" />
<glyph unicode="x" horiz-adv-x="903" d="M0 877h377l-6 -27l-60 -6q-46 -6 -46 -34q0 -11 7 -24l199 -278h2l176 258q15 25 15 41q0 29 -46 35l-69 8l-6 27h331l-6 -27l-59 -8q-67 -6 -129 -101l-186 -258l274 -383q22 -34 42 -51q17 -14 46 -16l49 -4l6 -29h-374l6 29l57 6q31 2 40 19q9 18 -7 38l-209 303h-2 l-195 -286q-18 -27 -12 -49t43 -23l72 -8l6 -29h-334l6 29l62 8q68 6 125 94l206 285l-256 362q-41 62 -90 66l-49 6z" />
<glyph unicode="y" horiz-adv-x="890" d="M-16 877h374l-4 -27l-55 -6q-43 -1 -52 -20q-9 -18 7 -60l250 -633l198 547q27 81 27 115q0 9 -2 15q-11 28 -82 34l-57 8l-6 27h338l-7 -27l-47 -6q-48 -1 -68 -31q-21 -31 -65 -151l-248 -666l-65 -213q-50 -167 -109 -240q-60 -73 -153 -73q-50 0 -82 25 q-33 25 -33 61q0 37 24 61q25 25 60 25q37 0 62 -27q26 -28 32 -74q57 12 95 77q40 69 85 214l45 143v2l-313 773q-23 58 -37 76q-13 17 -47 18l-59 6z" />
<glyph unicode="z" horiz-adv-x="825" d="M41 0v23l575 825h-194q-148 0 -203 -36t-88 -134l-18 -94h-27l8 293h654v-21l-580 -825l219 -2q146 1 210 38q63 36 116 128l45 98h24l-73 -293h-668z" />
<glyph unicode="{" horiz-adv-x="604" d="M-20 406l10 20q291 24 291 172q0 66 -42 204t-42 230q0 135 98 214q98 78 274 89l4 -24q-146 -18 -213 -71q-65 -52 -65 -144q0 -68 45 -207t45 -227q0 -101 -82 -167q-84 -67 -221 -85v-7q139 -21 221 -85t82 -166q0 -86 -45 -226t-45 -207q0 -185 278 -219l-4 -22 q-174 10 -273 90t-99 217q0 93 42 229q42 137 42 203q0 83 -74 121q-72 37 -217 49z" />
<glyph unicode="|" horiz-adv-x="389" d="M176 -424v1796h37v-1796h-37z" />
<glyph unicode="}" horiz-adv-x="604" d="M31 -500q143 18 211 73q65 53 65 146q0 66 -44 207t-44 226q0 102 82 166t219 85v7q-135 18 -219 85q-82 66 -82 167q0 86 44 227t44 207q0 92 -64 144q-65 53 -212 71l2 24q177 -11 275 -89q100 -80 100 -214q0 -94 -43 -230t-43 -204q0 -148 292 -172l9 -20l-9 -19 q-144 -12 -218 -49t-74 -121q0 -69 43 -204t43 -228q0 -137 -100 -217q-99 -79 -275 -90z" />
<glyph unicode="~" horiz-adv-x="776" d="M102 332q24 192 148 192q52 0 161 -63q111 -64 144 -64q77 0 98 113h21q-24 -193 -144 -193q-49 0 -160 64q-110 63 -145 63q-41 0 -64 -23q-24 -24 -36 -89h-23z" />
<glyph unicode="&#xa1;" horiz-adv-x="483" d="M145 1204q0 38 28 69q27 30 69 30q41 0 68 -30q28 -31 28 -69q0 -33 -28 -61q-27 -27 -68 -27q-42 0 -69 27q-28 28 -28 61zM170 63l59 832q2 8 13 8q10 0 12 -8l61 -832q0 -30 1 -45q1 -22 -13 -38q-15 -17 -45 -17h-31q-72 0 -57 100z" />
<glyph unicode="&#xa2;" horiz-adv-x="845" d="M49 424q0 200 131 342q130 141 324 141q62 0 108 -12l99 362h32l-100 -370q131 -41 131 -133q0 -32 -23 -52t-55 -20q-34 0 -57 25q-24 25 -25 67l-190 -708q39 -11 76 -11q178 0 286 170l25 -12q-135 -240 -356 -240q-25 0 -56 7l-82 -306h-32q84 309 84 312 q-141 33 -230 155q-90 123 -90 283zM170 471q0 -142 61 -248q61 -107 162 -147l209 780q-40 21 -108 21q-134 0 -229 -114q-95 -115 -95 -292z" />
<glyph unicode="&#xa3;" horiz-adv-x="983" d="M14 74q0 116 162 116q65 0 168 -32q35 78 35 157q0 73 -43 263h-223l6 34h211q-27 124 -27 209q0 196 115 335q114 138 297 138q96 0 159 -39q64 -40 64 -102q0 -28 -21 -52t-49 -24q-47 0 -65 44q-18 43 12 93q-62 41 -141 41q-113 0 -187 -89q-73 -88 -73 -236 q0 -44 5 -101q3 -39 14 -120q11 -87 13 -97h263l6 -34h-264q10 -74 10 -144q0 -152 -80 -289q4 -1 61 -21q67 -23 73 -25q26 -6 58 -16q30 -9 71 -15q33 -5 58 -5q93 0 146 53q54 54 72 185l22 -4q-5 -151 -79 -239q-75 -89 -189 -89q-30 0 -61 6q-18 3 -54 13q-24 6 -58 22 q-24 11 -50 24q-28 14 -55 29q-44 24 -50 27q-92 -123 -205 -123q-54 0 -91 29q-36 28 -36 78zM43 74q0 -36 28 -58q26 -20 70 -20q97 0 174 111q-100 47 -159 47q-113 0 -113 -80z" />
<glyph unicode="&#xa4;" horiz-adv-x="917" d="M131 436l117 117q-68 79 -68 182q0 104 68 183l-117 116l29 29l116 -117q83 68 183 68q99 0 182 -68l117 117l28 -29l-116 -116q67 -82 67 -183q0 -100 -67 -182l116 -117l-28 -28l-117 116q-77 -67 -182 -67q-106 0 -183 67l-116 -116zM221 735q0 -98 70 -168 q69 -69 168 -69t168 69t69 168t-69 168q-70 70 -168 70t-168 -70t-70 -168z" />
<glyph unicode="&#xa5;" horiz-adv-x="1214" d="M4 1280h481l-6 -29l-96 -4q-51 0 -57 -19q-6 -20 22 -71l309 -522h7l239 436q55 100 45 134q-11 35 -98 42l-84 4l-6 29h450l-6 -29l-65 -4q-74 -5 -100 -28q-28 -25 -91 -146l-258 -455h373l-2 -34h-385v-232h383l6 -37h-389v-256q0 -16 86 -22l110 -8l7 -29h-531l6 29 l125 10q74 6 74 24v252h-406l7 37h399v232h-401l-2 34h385l-312 517q-33 59 -59 85q-23 23 -76 25l-78 6z" />
<glyph unicode="&#xa6;" horiz-adv-x="389" d="M176 -315v686h37v-686h-37zM176 598v686h37v-686h-37z" />
<glyph unicode="&#xa7;" horiz-adv-x="843" d="M53 657q0 147 195 246q-55 61 -55 148q0 100 72 181t188 81q105 0 169 -46t64 -104q0 -28 -19 -48q-19 -21 -49 -21q-45 0 -63 41q-19 42 8 88q-52 59 -129 59t-123 -55q-47 -56 -47 -131q0 -38 17 -72t58 -65q43 -32 68 -47q31 -18 89 -50q14 -7 18 -10q85 -48 103 -59 q30 -18 83 -60q50 -40 71 -84q22 -47 22 -98q0 -140 -195 -248q55 -61 55 -147q0 -96 -78 -176t-190 -80q-107 0 -180 45q-74 45 -74 100q0 27 19 49q18 21 47 21q45 0 63 -41q19 -42 -8 -88q52 -58 154 -58q72 0 122 56t50 129q0 37 -19 73q-19 37 -61 67q-44 31 -75 51 q-23 15 -95 52q-53 30 -104 61q-33 20 -82 60q-46 37 -68 83q-21 44 -21 97zM127 713q0 -83 61 -140q60 -55 179 -118q143 -71 215 -133q51 24 92 74t41 102q0 84 -63 141q-66 60 -175 115q-169 90 -213 131q-54 -22 -95 -70q-42 -49 -42 -102z" />
<glyph unicode="&#xa8;" horiz-adv-x="776" d="M143 1135q0 31 22 61q21 29 60 29t63 -29q23 -27 23 -61q0 -33 -23 -57q-24 -25 -63 -25t-60 25q-22 27 -22 57zM465 1135q0 34 23 61q24 29 63 29t60 -29q22 -30 22 -61q0 -30 -22 -57q-21 -25 -60 -25t-63 25q-23 24 -23 57z" />
<glyph unicode="&#xa9;" horiz-adv-x="1460" d="M61 641q0 277 196 475q195 197 474 197t474 -197q196 -198 196 -475q0 -278 -196 -474t-474 -196t-474 196t-196 474zM94 641q0 -264 187 -451q186 -186 450 -186q263 0 449 186t186 451q0 262 -186 451q-185 188 -449 188t-450 -187q-187 -189 -187 -452zM340 633 q0 177 114 291t291 114q113 0 203 -45l70 25l12 -219h-18l-74 162q-94 55 -197 55q-137 0 -226 -105q-89 -106 -89 -268q0 -167 92 -274t238 -107q85 0 138 34q55 35 101 103l37 84h19l-41 -196l-43 -4q-104 -43 -217 -43q-179 0 -294 109q-116 110 -116 284z" />
<glyph unicode="&#xaa;" horiz-adv-x="614" d="M47 1137q0 50 96 107q94 56 183 56q102 0 147 -51q45 -52 41 -176l-14 -366q-2 -62 47 -62q30 0 80 43l6 -12q-72 -88 -127 -88q-37 0 -64 27q-26 26 -28 75v2q-117 -104 -207 -104q-69 0 -112 43q-44 44 -44 104q0 87 87 145q85 57 286 103l4 94q8 183 -154 183 q-46 0 -92 -23q-45 -23 -45 -39l15 -22q16 -22 16 -43q0 -23 -17 -39q-19 -17 -42 -17q-62 0 -62 60zM143 760q0 -52 30 -83q30 -32 85 -32q70 0 160 72l6 241q-160 -38 -220 -84q-61 -47 -61 -114z" />
<glyph unicode="&#xab;" horiz-adv-x="823" d="M27 440v29l385 305l10 -16l-260 -303l262 -305l-10 -17zM360 440v29l398 340l10 -16l-279 -338l281 -340l-10 -17z" />
<glyph unicode="&#xac;" horiz-adv-x="917" d="M29 594l6 45h821v-369h-45v324h-782z" />
<glyph unicode="&#xad;" horiz-adv-x="602" d="M49 465l6 57h498l-2 -57h-502z" />
<glyph unicode="&#xae;" horiz-adv-x="1460" d="M61 641q0 277 196 475q195 197 474 197t474 -197q196 -198 196 -475q0 -278 -196 -474t-474 -196t-474 196t-196 474zM94 641q0 -264 187 -451q186 -186 450 -186q263 0 449 186t186 451q0 262 -186 451q-185 188 -449 188t-450 -187q-187 -189 -187 -452zM397 264l4 25 l78 6q43 4 43 18v666q0 11 -47 16l-72 6l-6 23h318q132 0 204 -51t72 -139q0 -74 -54 -129q-55 -56 -136 -74l182 -283q17 -25 32 -37q16 -13 24 -14q18 -3 34 -6l35 -2l6 -25h-170l-20 37l-201 320q-75 6 -121 16v-328q0 -10 51 -16l74 -4l4 -25h-334zM602 666 q49 -19 119 -19q84 5 135 51t51 129q0 84 -60 131q-61 47 -169 41l-76 -2v-331z" />
<glyph unicode="&#xaf;" horiz-adv-x="774" d="M131 1077l12 58h502l-8 -58h-506z" />
<glyph unicode="&#xb0;" horiz-adv-x="659" d="M51 1032q0 119 77 202t202 83q127 0 204 -83q76 -82 76 -202t-75 -201t-205 -81q-127 0 -202 81q-77 83 -77 201zM90 1032q0 -106 66 -177t174 -71q111 0 177 71t66 177q0 107 -67 178q-68 72 -176 72t-174 -72t-66 -178z" />
<glyph unicode="&#xb1;" horiz-adv-x="917" d="M31 504l6 45h399v344h45v-344h400l6 -45h-406v-332h-45v332h-405zM57 55l6 45h791l6 -45h-803z" />
<glyph unicode="&#xb2;" horiz-adv-x="575" d="M27 571q109 105 171 167q42 42 109 122q61 74 81 126q20 54 20 114q0 82 -46 126t-108 44q-65 0 -110 -31q-44 -30 -85 -100l-14 12q104 188 254 188q86 0 145 -56q60 -57 60 -140q0 -33 -8 -68q-7 -30 -31 -70q-29 -49 -40 -64q-18 -25 -63 -72q-30 -31 -69 -70 q-32 -32 -89 -85t-93 -89l10 -2h250q71 0 97 20q27 21 54 98l10 29h21l-47 -223h-475z" />
<glyph unicode="&#xb3;" horiz-adv-x="548" d="M39 594q0 24 15 41q15 16 42 16q36 0 58 -30q23 -30 18 -74l21 -4q20 -4 34 -4q86 0 146 54q59 53 59 142q0 86 -49 134t-135 48q-53 0 -119 -24l-8 14q7 4 27 16.5t33 19.5q52 31 57 34q16 11 45 30q32 22 41 31q1 1 26 31q15 18 20 37q5 20 5 39q0 57 -36 90t-101 33 q-113 0 -181 -113l-12 10q95 174 242 174q73 0 126 -44q52 -43 52 -109q0 -47 -32 -88q-34 -43 -61 -61q-17 -11 -100 -58v-4q112 11 178 -45t66 -152q2 -110 -96 -188q-100 -80 -232 -80q-70 0 -109 23q-40 24 -40 61z" />
<glyph unicode="&#xb4;" horiz-adv-x="776" d="M295 1016l242 377h139l-363 -377h-18z" />
<glyph unicode="&#xb5;" horiz-adv-x="1019" d="M16 877h254v-676q0 -69 60 -107q59 -37 149 -37q147 0 254 117v592q0 47 -14 60q-15 13 -62 18l-63 6l-6 27h256v-775q0 -28 9 -42q9 -13 44 -15l92 -6l-4 -21l-252 -49l4 168h-4q-105 -164 -254 -164q-64 0 -119 37q-57 38 -86 88h-4v-557q0 -15 41 -20q3 0 13 -2h10 l69 -4l7 -29h-387l6 29l69 4q60 12 64 22v1282q0 11 -10 14q-8 2 -66 7l-63 6z" />
<glyph unicode="&#xb6;" horiz-adv-x="864" d="M61 946q0 162 113 248t336 86h233v-1346h-38v684q-74 -18 -191 -18q-218 0 -336 92q-117 91 -117 254z" />
<glyph unicode="&#xb7;" horiz-adv-x="372" d="M90 436q0 38 29 65t69 27q41 0 68 -27t27 -65q0 -39 -27 -66q-28 -28 -68 -28q-42 0 -70 28t-28 66z" />
<glyph unicode="&#xb8;" horiz-adv-x="776" d="M197 -496q141 16 223 64q80 47 80 117q0 106 -154 106q-60 0 -129 -18v18l193 219h36l-135 -153q109 17 186 -24q76 -40 76 -120q0 -91 -102 -151t-268 -72z" />
<glyph unicode="&#xb9;" horiz-adv-x="509" d="M78 1282l4 14l237 33v-735q0 -21 60 -21l63 -6l4 -20h-348l4 20l76 6q49 6 49 23v670z" />
<glyph unicode="&#xba;" horiz-adv-x="743" d="M31 938q0 150 99 256t243 106q145 0 242 -103q98 -104 98 -253q0 -150 -99 -255t-241 -105q-148 0 -245 103t-97 251zM133 961q0 -199 98 -297q56 -56 148 -56q99 0 165 91t66 231q0 192 -88 280q-62 68 -155 68q-99 0 -166 -90q-68 -91 -68 -227z" />
<glyph unicode="&#xbb;" horiz-adv-x="835" d="M51 115l281 340l-279 338l10 16l396 -340v-29l-398 -342zM397 150l262 305l-262 303l11 16l385 -305v-29l-387 -307z" />
<glyph unicode="&#xbc;" horiz-adv-x="1368" d="M55 -248l1188 1538h60l-1188 -1538h-60zM78 1282l4 14l237 33v-735q0 -21 60 -21l63 -6l4 -20h-348l4 20l76 6q49 6 49 23v670zM770 -41l389 553h39v-502h143l-20 -65h-123v-224h-88v224h-338zM834 10h276v383h-4z" />
<glyph unicode="&#xbd;" horiz-adv-x="1339" d="M55 -248l1188 1538h60l-1188 -1538h-60zM78 1282l4 14l237 33v-735q0 -21 60 -21l63 -6l4 -20h-348l4 20l76 6q49 6 49 23v670zM778 -256q109 105 171 167q48 48 110 122q61 73 81 126q19 51 19 113q0 82 -45 126q-46 44 -108 44q-67 0 -110 -30t-85 -101l-14 13 q104 188 254 188q86 0 145 -56t59 -141q0 -32 -8 -67q-8 -34 -30 -71q-25 -42 -40 -63q-18 -26 -63 -72q-30 -31 -70 -71q-32 -32 -89 -85t-93 -89l10 -2h250q71 0 98 21t54 98l10 29h21l-48 -224h-475z" />
<glyph unicode="&#xbe;" horiz-adv-x="1325" d="M12 -248l1188 1538h60l-1188 -1538h-60zM39 594q0 24 15 41q15 16 42 16q36 0 58 -30q23 -30 18 -74l21 -4q20 -4 34 -4q86 0 146 54q59 53 59 142q0 86 -49 134t-135 48q-53 0 -119 -24l-8 14q7 4 27 16.5t33 19.5q52 31 57 34q16 11 45 30q32 22 41 31q1 1 26 31 q15 18 20 37q5 20 5 39q0 57 -36 90t-101 33q-113 0 -181 -113l-12 10q95 174 242 174q73 0 126 -44q52 -43 52 -109q0 -47 -32 -88q-34 -43 -61 -61q-17 -11 -100 -58v-4q112 11 178 -45t66 -152q2 -110 -96 -188q-100 -80 -232 -80q-70 0 -109 23q-40 24 -40 61zM727 -41 l389 553h39v-502h143l-20 -65h-123v-224h-88v224h-338zM791 10h276v383h-4z" />
<glyph unicode="&#xbf;" horiz-adv-x="638" d="M66 328q0 55 10 89q11 37 44 63q36 29 58 42q23 14 92 45q119 52 142 78q30 30 30 76q0 86 -123 197h27q164 -129 164 -240q0 -78 -48 -124q-47 -46 -165 -97q-114 -50 -155 -81q-42 -32 -42 -79q0 -75 82 -141t238 -66q62 0 135 19q12 -18 12 -66q0 -72 -133 -72 q-153 0 -261 108q-107 107 -107 249zM248 1217q0 40 26 66q28 28 68 28q41 0 69 -28q27 -27 27 -66q0 -35 -27 -62t-69 -27q-41 0 -68 27q-26 26 -26 62z" />
<glyph unicode="&#xc0;" horiz-adv-x="1259" d="M-14 0l6 29l63 6q67 7 95 46q25 35 94 212l319 887l-14 51q22 7 50 29q29 23 38 38h18l410 -1159q24 -62 43 -83q18 -19 68 -21l84 -6l6 -29h-482l7 29l92 4q37 1 61 14q22 12 12 39l-153 446h-434l-123 -342q-38 -96 -26 -121q12 -26 104 -34l75 -6l7 -29h-420z M299 1739h139l242 -377h-16zM381 569h407l-49 144q-43 124 -100 286l-49 146h-4z" />
<glyph unicode="&#xc1;" horiz-adv-x="1259" d="M-14 0l6 29l63 6q67 7 95 46q25 35 94 212l319 887l-14 51q22 7 50 29q29 23 38 38h18l410 -1159q24 -62 43 -83q18 -19 68 -21l84 -6l6 -29h-482l7 29l92 4q37 1 61 14q22 12 12 39l-153 446h-434l-123 -342q-38 -96 -26 -121q12 -26 104 -34l75 -6l7 -29h-420zM381 569 h407l-49 144q-43 124 -100 286l-49 146h-4zM547 1362l241 377h140l-363 -377h-18z" />
<glyph unicode="&#xc2;" horiz-adv-x="1259" d="M-14 0l6 29l63 6q67 7 95 46q25 35 94 212l319 887l-14 51q22 7 50 29q29 23 38 38h18l410 -1159q24 -62 43 -83q18 -19 68 -21l84 -6l6 -29h-482l7 29l92 4q37 1 61 14q22 12 12 39l-153 446h-434l-123 -342q-38 -96 -26 -121q12 -26 104 -34l75 -6l7 -29h-420z M371 1346l252 380h18l252 -380h-21l-237 258h-4l-240 -258h-20zM381 569h407l-49 144q-43 124 -100 286l-49 146h-4z" />
<glyph unicode="&#xc3;" horiz-adv-x="1259" d="M-14 0l6 29l63 6q67 7 95 46q25 35 94 212l319 887l-14 51q22 7 50 29q29 23 38 38h18l410 -1159q24 -62 43 -83q18 -19 68 -21l84 -6l6 -29h-482l7 29l92 4q37 1 61 14q22 12 12 39l-153 446h-434l-123 -342q-38 -96 -26 -121q12 -26 104 -34l75 -6l7 -29h-420z M336 1393q24 192 147 192q51 0 161 -63q111 -64 144 -64q78 0 99 113h20q-24 -193 -143 -193q-50 0 -161 64q-109 63 -144 63q-42 0 -65 -23q-24 -24 -36 -89h-22zM381 569h407l-49 144q-43 124 -100 286l-49 146h-4z" />
<glyph unicode="&#xc4;" horiz-adv-x="1259" d="M-14 0l6 29l63 6q67 7 95 46q25 35 94 212l319 887l-14 51q22 7 50 29q29 23 38 38h18l410 -1159q24 -62 43 -83q18 -19 68 -21l84 -6l6 -29h-482l7 29l92 4q37 1 61 14q22 12 12 39l-153 446h-434l-123 -342q-38 -96 -26 -121q12 -26 104 -34l75 -6l7 -29h-420z M377 1468q0 34 21 62q21 29 61 29q38 0 62 -29q24 -28 24 -62q0 -30 -24 -56t-62 -26q-40 0 -61 26t-21 56zM381 569h407l-49 144q-43 124 -100 286l-49 146h-4zM698 1468q0 34 24 62q24 29 62 29q40 0 61 -29q21 -28 21 -62q0 -30 -21 -56t-61 -26q-38 0 -62 26t-24 56z " />
<glyph unicode="&#xc5;" horiz-adv-x="1259" d="M-14 0l6 29l63 6q67 7 95 46q25 35 94 212l348 958q-66 12 -108 63q-40 49 -40 120q0 74 51 130q49 54 132 54t132 -54q50 -55 50 -130q0 -66 -37 -115t-100 -64l393 -1116q24 -62 43 -83q18 -19 68 -21l84 -6l6 -29h-482l7 29l92 4q37 1 61 14q22 12 12 39l-153 446 h-434l-123 -342q-38 -96 -26 -121q12 -26 104 -34l75 -6l7 -29h-420zM381 569h407l-49 144q-43 124 -100 286l-49 146h-4zM475 1434q0 -66 42 -111t110 -45q67 0 108 45q41 46 41 111q0 62 -41 109q-40 46 -108 46t-110 -46t-42 -109z" />
<glyph unicode="&#xc6;" horiz-adv-x="1697" d="M-111 0l7 29l102 8q45 6 85 46q38 38 116 171l546 952q11 19 -24 27l-84 10l-105 8l-6 29h996l34 -334h-24l-21 88q-47 126 -112 169q-67 44 -230 44h-243v-557h178q121 1 162 25q39 22 61 94l21 59l20 -4l-39 -391l-20 4l-6 55q-6 81 -40 99q-34 17 -169 22l-168 2v-614 l215 -6q203 2 294 58q92 57 138 175l24 86l29 -2l-76 -352h-946l6 31l119 10q72 7 72 29v462h-402l-168 -294q-73 -133 -73 -158q-2 -34 57 -41q2 0 12.5 -1.5t16.5 -2.5l102 -10l6 -25h-463zM420 569h381v654h-8z" />
<glyph unicode="&#xc7;" horiz-adv-x="1327" d="M66 625q0 299 194 492q196 194 500 194q177 0 330 -74l110 43l21 -367h-29l-119 283q-118 82 -317 82q-251 0 -402 -178t-151 -457q0 -286 149 -462q150 -177 402 -177h32l5 6h36q-2 -2 -2 -4q116 12 195 68t145 153l60 142h30l-69 -318l-70 -2q-154 -69 -321 -76 l-103 -116q109 17 186 -24q76 -40 76 -120q0 -91 -102 -151t-268 -72l-6 14q141 16 223 64q80 47 80 117q0 106 -154 106q-60 0 -129 -18v18l158 180h-4q-301 0 -494 182q-192 181 -192 472z" />
<glyph unicode="&#xc8;" horiz-adv-x="1148" d="M55 0l6 29l107 10q70 6 70 24v1158q0 16 -84 22l-91 8l-6 29h918l33 -334h-25l-22 88q-45 125 -113 170t-232 45h-251v-559h204q122 1 156 23q32 20 53 94l21 59l22 -2l-39 -391l-22 2l-4 55q-6 82 -35 102t-162 21l-194 2v-616l253 -6q198 1 278 56q78 53 128 179l25 86 l30 -2l-78 -352h-946zM297 1739h139l242 -377h-17z" />
<glyph unicode="&#xc9;" horiz-adv-x="1148" d="M55 0l6 29l107 10q70 6 70 24v1158q0 16 -84 22l-91 8l-6 29h918l33 -334h-25l-22 88q-45 125 -113 170t-232 45h-251v-559h204q122 1 156 23q32 20 53 94l21 59l22 -2l-39 -391l-22 2l-4 55q-6 82 -35 102t-162 21l-194 2v-616l253 -6q198 1 278 56q78 53 128 179l25 86 l30 -2l-78 -352h-946zM510 1362l242 377h139l-363 -377h-18z" />
<glyph unicode="&#xca;" horiz-adv-x="1148" d="M55 0l6 29l107 10q70 6 70 24v1158q0 16 -84 22l-91 8l-6 29h918l33 -334h-25l-22 88q-45 125 -113 170t-232 45h-251v-559h204q122 1 156 23q32 20 53 94l21 59l22 -2l-39 -391l-22 2l-4 55q-6 82 -35 102t-162 21l-194 2v-616l253 -6q198 1 278 56q78 53 128 179l25 86 l30 -2l-78 -352h-946zM305 1346l252 380h18l252 -380h-20l-238 258h-4l-239 -258h-21z" />
<glyph unicode="&#xcb;" horiz-adv-x="1148" d="M55 0l6 29l107 10q70 6 70 24v1158q0 16 -84 22l-91 8l-6 29h918l33 -334h-25l-22 88q-45 125 -113 170t-232 45h-251v-559h204q122 1 156 23q32 20 53 94l21 59l22 -2l-39 -391l-22 2l-4 55q-6 82 -35 102t-162 21l-194 2v-616l253 -6q198 1 278 56q78 53 128 179l25 86 l30 -2l-78 -352h-946zM315 1468q0 32 22 62q21 29 60 29t63 -29q23 -27 23 -62q0 -32 -23 -56q-24 -26 -63 -26t-60 26q-22 27 -22 56zM637 1468q0 35 23 62q24 29 63 29t60 -29q22 -30 22 -62q0 -29 -22 -56q-21 -26 -60 -26t-63 26q-23 24 -23 56z" />
<glyph unicode="&#xcc;" horiz-adv-x="643" d="M14 1739h140l241 -377h-16zM70 0l6 29l110 10q72 6 72 24v1158q0 16 -86 22l-94 8l-6 29h501l-6 -29l-110 -10q-72 -6 -72 -24v-1158q0 -16 86 -22l94 -8l6 -29h-501z" />
<glyph unicode="&#xcd;" horiz-adv-x="643" d="M70 0l6 29l110 10q72 6 72 24v1158q0 16 -86 22l-94 8l-6 29h501l-6 -29l-110 -10q-72 -6 -72 -24v-1158q0 -16 86 -22l94 -8l6 -29h-501zM248 1362l241 377h140l-363 -377h-18z" />
<glyph unicode="&#xce;" horiz-adv-x="643" d="M59 1346l252 380h19l252 -380h-21l-237 258h-5l-239 -258h-21zM70 0l6 29l110 10q72 6 72 24v1158q0 16 -86 22l-94 8l-6 29h501l-6 -29l-110 -10q-72 -6 -72 -24v-1158q0 -16 86 -22l94 -8l6 -29h-501z" />
<glyph unicode="&#xcf;" horiz-adv-x="643" d="M70 0l6 29l110 10q72 6 72 24v1158q0 16 -86 22l-94 8l-6 29h501l-6 -29l-110 -10q-72 -6 -72 -24v-1158q0 -16 86 -22l94 -8l6 -29h-501zM76 1475q0 33 21 61q21 29 61 29q38 0 62 -29q24 -28 24 -61q0 -31 -24 -57q-24 -25 -62 -25q-40 0 -61 25q-21 26 -21 57z M397 1475q0 33 24 61q24 29 62 29q40 0 61 -29q21 -28 21 -61q0 -31 -21 -57q-21 -25 -61 -25q-38 0 -62 25q-24 26 -24 57z" />
<glyph unicode="&#xd0;" horiz-adv-x="1359" d="M61 0l7 29l98 10q72 6 72 24v566h-168l6 37h162v555q0 16 -86 22l-82 8l-7 29l467 6q340 0 532 -168q191 -167 191 -454q0 -293 -205 -479q-204 -185 -554 -185h-433zM365 59l180 -24q272 7 423 175q150 166 150 411q0 283 -159 456q-159 172 -455 172h-139v-583h307 l6 -37h-313v-570z" />
<glyph unicode="&#xd1;" horiz-adv-x="1423" d="M55 1280h320l803 -1077h2l-2 1001q0 26 -121 41l-82 6l-6 29h444l-6 -29l-84 -6q-106 -10 -106 -45v-1208h-35l-875 1175h-4l2 -1089q0 -36 121 -43l82 -6l6 -29h-444l6 29l84 6q106 10 106 47v1102q-30 40 -137 57l-68 10zM446 1393q24 192 148 192q52 0 161 -63 q111 -64 144 -64q77 0 98 113h21q-24 -193 -144 -193q-49 0 -160 64q-109 63 -145 63q-41 0 -64 -23q-24 -24 -36 -89h-23z" />
<glyph unicode="&#xd2;" d="M66 637q0 272 195 473t460 201q283 0 473 -188q188 -187 188 -484q0 -270 -195 -468t-462 -198q-285 0 -472 186t-187 478zM205 643q0 -287 148 -462t376 -175q232 0 374 169t142 456q0 289 -150 468t-374 179q-229 0 -373 -172q-143 -171 -143 -463zM387 1739h139 l242 -377h-16z" />
<glyph unicode="&#xd3;" d="M66 637q0 272 195 473t460 201q283 0 473 -188q188 -187 188 -484q0 -270 -195 -468t-462 -198q-285 0 -472 186t-187 478zM205 643q0 -287 148 -462t376 -175q232 0 374 169t142 456q0 289 -150 468t-374 179q-229 0 -373 -172q-143 -171 -143 -463zM659 1362l242 377 h139l-362 -377h-19z" />
<glyph unicode="&#xd4;" d="M66 637q0 272 195 473t460 201q283 0 473 -188q188 -187 188 -484q0 -270 -195 -468t-462 -198q-285 0 -472 186t-187 478zM205 643q0 -287 148 -462t376 -175q232 0 374 169t142 456q0 289 -150 468t-374 179q-229 0 -373 -172q-143 -171 -143 -463zM463 1346l252 380 h18l252 -380h-20l-238 258h-4l-240 -258h-20z" />
<glyph unicode="&#xd5;" d="M66 637q0 272 195 473t460 201q283 0 473 -188q188 -187 188 -484q0 -270 -195 -468t-462 -198q-285 0 -472 186t-187 478zM205 643q0 -287 148 -462t376 -175q232 0 374 169t142 456q0 289 -150 468t-374 179q-229 0 -373 -172q-143 -171 -143 -463zM438 1393 q24 192 148 192q52 0 161 -63q111 -64 144 -64q77 0 98 113h21q-24 -193 -144 -193q-49 0 -160 64q-110 63 -145 63q-41 0 -64 -23q-24 -24 -36 -89h-23z" />
<glyph unicode="&#xd6;" d="M66 637q0 272 195 473t460 201q283 0 473 -188q188 -187 188 -484q0 -270 -195 -468t-462 -198q-285 0 -472 186t-187 478zM205 643q0 -287 148 -462t376 -175q232 0 374 169t142 456q0 289 -150 468t-374 179q-229 0 -373 -172q-143 -171 -143 -463zM479 1468 q0 32 22 62q21 29 60 29t63 -29q23 -27 23 -62q0 -32 -23 -56q-24 -26 -63 -26t-60 26q-22 27 -22 56zM801 1468q0 35 23 62q24 29 63 29t60 -29q22 -30 22 -62q0 -29 -22 -56q-21 -26 -60 -26t-63 26q-23 24 -23 56z" />
<glyph unicode="&#xd7;" horiz-adv-x="917" d="M68 125l358 358l-358 359l32 32l359 -358l358 358l33 -32l-358 -359l358 -358l-33 -33l-358 359l-359 -359z" />
<glyph unicode="&#xd8;" d="M66 637q0 272 195 473t460 201q184 0 330 -82l106 182h39l-115 -199q141 -90 221 -237q80 -148 80 -336q0 -270 -195 -468t-462 -198q-171 0 -319 74l-113 -197h-39l123 213q-147 85 -229 234t-82 340zM205 643q0 -340 207 -520l606 1048q-129 105 -297 105 q-229 0 -373 -172q-143 -171 -143 -461zM438 100q124 -94 291 -94q232 0 374 169t142 456q0 333 -201 518q-606 -1047 -606 -1049z" />
<glyph unicode="&#xd9;" horiz-adv-x="1359" d="M27 1280h518l-6 -29l-119 -10q-72 -6 -72 -27v-780q0 -209 101 -301t303 -92q372 0 372 432v731q0 31 -139 41l-82 6l-6 29h459l-6 -29l-84 -6q-103 -11 -103 -45v-727q0 -246 -119 -374t-337 -128q-245 0 -366 110q-120 109 -120 359v779q0 18 -86 24l-102 8zM414 1739 h139l242 -377h-17z" />
<glyph unicode="&#xda;" horiz-adv-x="1359" d="M27 1280h518l-6 -29l-119 -10q-72 -6 -72 -27v-780q0 -209 101 -301t303 -92q372 0 372 432v731q0 31 -139 41l-82 6l-6 29h459l-6 -29l-84 -6q-103 -11 -103 -45v-727q0 -246 -119 -374t-337 -128q-245 0 -366 110q-120 109 -120 359v779q0 18 -86 24l-102 8zM633 1362 l241 377h140l-363 -377h-18z" />
<glyph unicode="&#xdb;" horiz-adv-x="1359" d="M27 1280h518l-6 -29l-119 -10q-72 -6 -72 -27v-780q0 -209 101 -301t303 -92q372 0 372 432v731q0 31 -139 41l-82 6l-6 29h459l-6 -29l-84 -6q-103 -11 -103 -45v-727q0 -246 -119 -374t-337 -128q-245 0 -366 110q-120 109 -120 359v779q0 18 -86 24l-102 8zM463 1346 l252 380h18l252 -380h-20l-238 258h-4l-240 -258h-20z" />
<glyph unicode="&#xdc;" horiz-adv-x="1359" d="M27 1280h518l-6 -29l-119 -10q-72 -6 -72 -27v-780q0 -209 101 -301t303 -92q372 0 372 432v731q0 31 -139 41l-82 6l-6 29h459l-6 -29l-84 -6q-103 -11 -103 -45v-727q0 -246 -119 -374t-337 -128q-245 0 -366 110q-120 109 -120 359v779q0 18 -86 24l-102 8zM477 1468 q0 32 22 62q21 29 60 29t63 -29q23 -27 23 -62q0 -32 -23 -56q-24 -26 -63 -26t-60 26q-22 27 -22 56zM799 1468q0 35 23 62q24 29 63 29t60 -29q22 -30 22 -62q0 -29 -22 -56q-21 -26 -60 -26t-63 26q-23 24 -23 56z" />
<glyph unicode="&#xdd;" horiz-adv-x="1220" d="M-8 1280h485l-6 -29l-96 -4q-52 -2 -59 -19t24 -71l309 -536h6l252 450q55 104 46 135t-99 41l-84 4l-6 29h448l-6 -29l-65 -4q-73 -5 -101 -28q-29 -24 -92 -146l-276 -487v-527q0 -16 88 -22l108 -8l6 -29h-530l6 29l125 10q72 6 72 24v504l-336 568q-33 59 -59 85 q-23 23 -76 25l-78 6zM582 1368l241 377h140l-363 -377h-18z" />
<glyph unicode="&#xde;" horiz-adv-x="1089" d="M41 0l6 29l119 10q72 6 72 24v1158q0 16 -84 22l-105 8l-6 29h518l-6 -29l-119 -10q-71 -6 -71 -24v-211h194q228 0 349 -86q120 -86 120 -240q0 -161 -132 -263t-339 -102q-43 0 -192 19v-275q0 -17 86 -22l129 -8l6 -29h-545zM365 375q117 -25 192 -25q167 0 252 81 q86 81 86 233q0 314 -379 307l-151 -2v-594z" />
<glyph unicode="&#xdf;" horiz-adv-x="985" d="M29 809l14 59l133 9l4 63q16 201 108 321q91 119 234 119q142 0 222 -71q81 -72 81 -189q0 -107 -70 -177q-71 -71 -182 -101q139 -75 250 -217q113 -145 113 -291q0 -150 -85 -253q-86 -104 -212 -104q-100 0 -166 42q-65 41 -65 112q0 39 23 63q24 25 58 25 q41 0 61 -32q20 -31 6 -66q-14 -36 -54 -43q44 -74 141 -74q86 0 139 70q54 71 54 180q0 157 -98 306t-287 261v10q136 24 203 94t67 197q0 94 -57 163t-148 69q-227 0 -227 -346v-1008h-246l6 29l70 4q57 10 61 22v748z" />
<glyph unicode="&#xe0;" horiz-adv-x="817" d="M59 690q0 71 124 143q125 72 241 72q129 0 192 -64q64 -65 56 -229l-21 -493q-2 -41 13 -56q14 -14 45 -14q41 0 102 66l16 -19q-1 -5 -16 -19q-6 -6 -12 -13t-7 -8l-4 -4l-7 -7l-8 -8q-16 -17 -20 -20q-9 -5 -20 -15q-10 -9 -22 -14q-8 -3 -24 -7q-18 -4 -25 -4 q-47 0 -82 38t-33 102l-2 4q-151 -141 -262 -141q-98 0 -157 56q-60 57 -60 142q0 113 109 189q108 75 388 149l2 90q12 252 -205 252q-64 0 -126 -31q-60 -30 -60 -55q0 -1 22 -29q21 -27 21 -55q0 -31 -22 -52q-24 -22 -58 -22q-78 0 -78 76zM92 1393h139l242 -377h-16z M178 203q0 -71 41 -112q40 -40 113 -40q93 0 219 109l10 323q-217 -57 -301 -122q-82 -64 -82 -158z" />
<glyph unicode="&#xe1;" horiz-adv-x="817" d="M59 690q0 71 124 143q125 72 241 72q129 0 192 -64q64 -65 56 -229l-21 -493q-2 -41 13 -56q14 -14 45 -14q41 0 102 66l16 -19q-1 -5 -16 -19q-6 -6 -12 -13t-7 -8l-4 -4l-7 -7l-8 -8q-16 -17 -20 -20q-9 -5 -20 -15q-10 -9 -22 -14q-8 -3 -24 -7q-18 -4 -25 -4 q-47 0 -82 38t-33 102l-2 4q-151 -141 -262 -141q-98 0 -157 56q-60 57 -60 142q0 113 109 189q108 75 388 149l2 90q12 252 -205 252q-64 0 -126 -31q-60 -30 -60 -55q0 -1 22 -29q21 -27 21 -55q0 -31 -22 -52q-24 -22 -58 -22q-78 0 -78 76zM178 203q0 -71 41 -112 q40 -40 113 -40q93 0 219 109l10 323q-217 -57 -301 -122q-82 -64 -82 -158zM326 1016l241 377h140l-363 -377h-18z" />
<glyph unicode="&#xe2;" horiz-adv-x="817" d="M59 690q0 71 124 143q125 72 241 72q129 0 192 -64q64 -65 56 -229l-21 -493q-2 -41 13 -56q14 -14 45 -14q41 0 102 66l16 -19q-1 -5 -16 -19q-6 -6 -12 -13t-7 -8l-4 -4l-7 -7l-8 -8q-16 -17 -20 -20q-9 -5 -20 -15q-10 -9 -22 -14q-8 -3 -24 -7q-18 -4 -25 -4 q-47 0 -82 38t-33 102l-2 4q-151 -141 -262 -141q-98 0 -157 56q-60 57 -60 142q0 113 109 189q108 75 388 149l2 90q12 252 -205 252q-64 0 -126 -31q-60 -30 -60 -55q0 -1 22 -29q21 -27 21 -55q0 -31 -22 -52q-24 -22 -58 -22q-78 0 -78 76zM121 999l252 381h18l252 -381 h-20l-238 258h-4l-240 -258h-20zM178 203q0 -71 41 -112q40 -40 113 -40q93 0 219 109l10 323q-217 -57 -301 -122q-82 -64 -82 -158z" />
<glyph unicode="&#xe3;" horiz-adv-x="817" d="M59 690q0 71 124 143q125 72 241 72q129 0 192 -64q64 -65 56 -229l-21 -493q-2 -41 13 -56q14 -14 45 -14q41 0 102 66l16 -19q-1 -5 -16 -19q-6 -6 -12 -13t-7 -8l-4 -4l-7 -7l-8 -8q-16 -17 -20 -20q-9 -5 -20 -15q-10 -9 -22 -14q-8 -3 -24 -7q-18 -4 -25 -4 q-47 0 -82 38t-33 102l-2 4q-151 -141 -262 -141q-98 0 -157 56q-60 57 -60 142q0 113 109 189q108 75 388 149l2 90q12 252 -205 252q-64 0 -126 -31q-60 -30 -60 -55q0 -1 22 -29q21 -27 21 -55q0 -31 -22 -52q-24 -22 -58 -22q-78 0 -78 76zM104 1047q24 192 148 192 q52 0 161 -63q111 -64 144 -64q77 0 98 113h21q-24 -193 -144 -193q-49 0 -160 64q-109 63 -145 63q-41 0 -64 -23q-24 -24 -36 -89h-23zM178 203q0 -71 41 -112q40 -40 113 -40q93 0 219 109l10 323q-217 -57 -301 -122q-82 -64 -82 -158z" />
<glyph unicode="&#xe4;" horiz-adv-x="817" d="M59 690q0 71 124 143q125 72 241 72q129 0 192 -64q64 -65 56 -229l-21 -493q-2 -41 13 -56q14 -14 45 -14q41 0 102 66l16 -19q-1 -5 -16 -19q-6 -6 -12 -13t-7 -8l-4 -4l-7 -7l-8 -8q-16 -17 -20 -20q-9 -5 -20 -15q-10 -9 -22 -14q-8 -3 -24 -7q-18 -4 -25 -4 q-47 0 -82 38t-33 102l-2 4q-151 -141 -262 -141q-98 0 -157 56q-60 57 -60 142q0 113 109 189q108 75 388 149l2 90q12 252 -205 252q-64 0 -126 -31q-60 -30 -60 -55q0 -1 22 -29q21 -27 21 -55q0 -31 -22 -52q-24 -22 -58 -22q-78 0 -78 76zM139 1135q0 31 22 61 q21 29 60 29t63 -29q23 -27 23 -61q0 -33 -23 -57q-24 -25 -63 -25t-60 25q-22 27 -22 57zM178 203q0 -71 41 -112q40 -40 113 -40q93 0 219 109l10 323q-217 -57 -301 -122q-82 -64 -82 -158zM461 1135q0 34 23 61q24 29 63 29t60 -29q22 -30 22 -61q0 -30 -22 -57 q-21 -25 -60 -25t-63 25q-23 24 -23 57z" />
<glyph unicode="&#xe5;" horiz-adv-x="817" d="M59 690q0 71 124 143q125 72 241 72q129 0 192 -64q64 -65 56 -229l-21 -493q-2 -41 13 -56q14 -14 45 -14q41 0 102 66l16 -19q-1 -5 -16 -19q-6 -6 -12 -13t-7 -8l-4 -4l-7 -7l-8 -8q-16 -17 -20 -20q-9 -5 -20 -15q-10 -9 -22 -14q-8 -3 -24 -7q-18 -4 -25 -4 q-47 0 -82 38t-33 102l-2 4q-151 -141 -262 -141q-98 0 -157 56q-60 57 -60 142q0 113 109 189q108 75 388 149l2 90q12 252 -205 252q-64 0 -126 -31q-60 -30 -60 -55q0 -1 22 -29q21 -27 21 -55q0 -31 -22 -52q-24 -22 -58 -22q-78 0 -78 76zM178 203q0 -71 41 -112 q40 -40 113 -40q93 0 219 109l10 323q-217 -57 -301 -122q-82 -64 -82 -158zM240 1212q0 78 50 131q51 54 132 54q83 0 134 -54q50 -53 50 -131t-50 -131t-134 -53q-82 0 -132 53t-50 131zM270 1212q0 -65 42 -110t110 -45q67 0 109 45t42 110q0 66 -42 111t-109 45 q-68 0 -110 -45t-42 -111z" />
<glyph unicode="&#xe6;" horiz-adv-x="1363" d="M59 690q0 71 124 143q125 72 241 72q106 0 162 -39q55 -39 73 -125q123 164 328 164q143 0 227 -81t84 -193q0 -20 -4 -53l-612 4q-8 -66 -8 -113q0 -178 93 -295t234 -117q185 0 291 168l25 -14q-135 -236 -356 -236q-110 0 -204 59t-145 159q-170 -220 -323 -220 q-97 0 -160 60t-63 143q0 113 109 191q108 77 386 151l8 88q8 138 -52 195t-157 57q-64 0 -126 -31q-60 -30 -60 -55q0 -1 22 -29q21 -27 21 -55q0 -31 -22 -52q-24 -22 -58 -22q-78 0 -78 76zM178 203q0 -71 44 -115q43 -43 118 -43q130 0 258 174q-41 96 -41 201 q0 41 2 63q-216 -57 -299 -123q-82 -66 -82 -157zM688 610l486 4q1 114 -52 187q-52 71 -153 71q-87 0 -167 -73t-114 -189z" />
<glyph unicode="&#xe7;" horiz-adv-x="845" d="M51 420q0 207 130 346t323 139q122 0 205 -53q82 -52 82 -131q0 -36 -25 -64q-23 -26 -55 -26q-41 0 -64 27t-12 71q0 28 14 46q15 19 15 22q-7 22 -58 50q-50 27 -108 27q-134 0 -231 -116t-97 -287q0 -178 94 -296t236 -118q178 0 286 168l25 -14q-122 -219 -322 -234 l-106 -120q108 17 185 -24t77 -120q0 -91 -102 -151t-269 -72l-6 14q142 16 224 64q79 46 79 117q0 106 -153 106q-60 0 -129 -18v18l162 184q-169 5 -284 131q-116 128 -116 314z" />
<glyph unicode="&#xe8;" horiz-adv-x="854" d="M51 420q0 202 122 344q121 141 308 141q144 0 228 -81t84 -193q0 -11 -5 -53l-608 4q-10 -74 -10 -113q0 -179 94 -295q94 -117 236 -117q95 0 162 40q66 40 126 128l23 -14q-131 -236 -354 -236q-168 0 -287 128t-119 317zM150 1393h139l241 -377h-16zM186 610l482 4 q2 113 -52 186q-52 72 -151 72q-87 0 -166 -73q-80 -74 -113 -189z" />
<glyph unicode="&#xe9;" horiz-adv-x="854" d="M51 420q0 202 122 344q121 141 308 141q144 0 228 -81t84 -193q0 -11 -5 -53l-608 4q-10 -74 -10 -113q0 -179 94 -295q94 -117 236 -117q95 0 162 40q66 40 126 128l23 -14q-131 -236 -354 -236q-168 0 -287 128t-119 317zM186 610l482 4q2 113 -52 186q-52 72 -151 72 q-87 0 -166 -73q-80 -74 -113 -189zM371 1016l241 377h140l-363 -377h-18z" />
<glyph unicode="&#xea;" horiz-adv-x="854" d="M51 420q0 202 122 344q121 141 308 141q144 0 228 -81t84 -193q0 -11 -5 -53l-608 4q-10 -74 -10 -113q0 -179 94 -295q94 -117 236 -117q95 0 162 40q66 40 126 128l23 -14q-131 -236 -354 -236q-168 0 -287 128t-119 317zM186 610l482 4q2 113 -52 186q-52 72 -151 72 q-87 0 -166 -73q-80 -74 -113 -189zM193 999l251 381h19l252 -381h-21l-237 258h-4l-240 -258h-20z" />
<glyph unicode="&#xeb;" horiz-adv-x="854" d="M51 420q0 202 122 344q121 141 308 141q144 0 228 -81t84 -193q0 -11 -5 -53l-608 4q-10 -74 -10 -113q0 -179 94 -295q94 -117 236 -117q95 0 162 40q66 40 126 128l23 -14q-131 -236 -354 -236q-168 0 -287 128t-119 317zM186 610l482 4q2 113 -52 186q-52 72 -151 72 q-87 0 -166 -73q-80 -74 -113 -189zM203 1135q0 33 21 61q21 29 61 29q38 0 62 -29q24 -28 24 -61q0 -31 -24 -57q-24 -25 -62 -25q-40 0 -61 25q-21 26 -21 57zM524 1135q0 33 24 61q24 29 62 29q40 0 61 -29t21 -61q0 -31 -21 -57q-21 -25 -61 -25q-38 0 -62 25 q-24 26 -24 57z" />
<glyph unicode="&#xec;" horiz-adv-x="448" d="M-84 1393h139l242 -377h-16zM27 825l4 21l252 57v-850q0 -10 12 -13q9 -2 61 -7l66 -4l6 -29h-395l6 29l72 4q61 1 61 24v639q0 70 -12 92t-54 27z" />
<glyph unicode="&#xed;" horiz-adv-x="448" d="M27 825l4 21l252 57v-850q0 -10 12 -13q9 -2 61 -7l66 -4l6 -29h-395l6 29l72 4q61 1 61 24v639q0 70 -12 92t-54 27zM129 1016l242 377h139l-363 -377h-18z" />
<glyph unicode="&#xee;" horiz-adv-x="448" d="M-27 999l238 381h20l234 -381h-21l-221 256h-4l-225 -256h-21zM27 825l4 21l252 57v-850q0 -10 12 -13q9 -2 61 -7l66 -4l6 -29h-395l6 29l72 4q61 1 61 24v639q0 70 -12 92t-54 27z" />
<glyph unicode="&#xef;" horiz-adv-x="448" d="M-25 1135q0 31 22 61q21 29 60 29t63 -29q23 -27 23 -61q0 -33 -23 -57q-24 -25 -63 -25t-60 25q-22 27 -22 57zM27 825l4 21l252 57v-850q0 -10 12 -13q9 -2 61 -7l66 -4l6 -29h-395l6 29l72 4q61 1 61 24v639q0 70 -12 92t-54 27zM297 1135q0 33 24 61q24 29 62 29 q39 0 60 -29q22 -30 22 -61q0 -30 -22 -57q-21 -25 -60 -25q-38 0 -62 25q-24 26 -24 57z" />
<glyph unicode="&#xf0;" horiz-adv-x="972" d="M35 434q0 192 128 332q127 139 310 139q154 0 248 -100q-89 222 -268 346l-281 -92l4 41l234 78q-111 67 -275 100l15 20q175 -24 321 -100l248 82l4 -41l-205 -68q189 -114 294 -297q106 -185 106 -370q0 -225 -124 -377q-125 -154 -321 -154q-190 0 -314 133t-124 328z M162 461q0 -213 88 -337t233 -124q134 0 220 113q85 112 85 311q0 203 -88 327q-87 123 -229 123q-135 0 -222 -115t-87 -298z" />
<glyph unicode="&#xf1;" horiz-adv-x="1011" d="M27 825l2 21l254 57l-4 -176l6 -4q62 54 100 85q33 26 108 63q69 34 134 34q100 0 159 -59q68 -73 68 -201v-590q0 -5 3 -10q3 -4 20 -7q20 -4 51 -5l65 -4l6 -29h-391l6 29l70 4q64 2 64 24v551q0 211 -191 211q-136 0 -276 -133v-633q0 -10 13 -13q10 -2 62 -7l64 -4 l8 -29h-393l6 29l68 4q23 1 37 3q11 1 19 6q7 4 7 15v641q0 68 -12 90q-12 23 -49 27zM219 1047q24 192 148 192q50 0 160 -63q111 -64 145 -64q77 0 98 113h21q-24 -193 -144 -193q-50 0 -161 64q-110 63 -144 63q-41 0 -64 -23q-24 -24 -36 -89h-23z" />
<glyph unicode="&#xf2;" horiz-adv-x="995" d="M53 434q0 199 130 335t319 136q186 0 314 -131t128 -328q0 -202 -129 -337q-130 -136 -315 -136q-189 0 -318 131q-129 130 -129 330zM160 1393h139l242 -377h-17zM176 457q0 -252 125 -377q78 -78 201 -78q133 0 224 124t91 302q0 246 -112 358q-84 88 -207 88 q-140 0 -230 -120q-92 -122 -92 -297z" />
<glyph unicode="&#xf3;" horiz-adv-x="995" d="M53 434q0 199 130 335t319 136q186 0 314 -131t128 -328q0 -202 -129 -337q-130 -136 -315 -136q-189 0 -318 131q-129 130 -129 330zM176 457q0 -252 125 -377q78 -78 201 -78q133 0 224 124t91 302q0 246 -112 358q-84 88 -207 88q-140 0 -230 -120q-92 -122 -92 -297z M438 1016l242 377h139l-362 -377h-19z" />
<glyph unicode="&#xf4;" horiz-adv-x="995" d="M53 434q0 199 130 335t319 136q186 0 314 -131t128 -328q0 -202 -129 -337q-130 -136 -315 -136q-189 0 -318 131q-129 130 -129 330zM176 457q0 -252 125 -377q78 -78 201 -78q133 0 224 124t91 302q0 246 -112 358q-84 88 -207 88q-140 0 -230 -120q-92 -122 -92 -297z M236 999l251 381h19l252 -381h-21l-237 258h-4l-240 -258h-20z" />
<glyph unicode="&#xf5;" horiz-adv-x="995" d="M53 434q0 199 130 335t319 136q186 0 314 -131t128 -328q0 -202 -129 -337q-130 -136 -315 -136q-189 0 -318 131q-129 130 -129 330zM176 457q0 -252 125 -377q78 -78 201 -78q133 0 224 124t91 302q0 246 -112 358q-84 88 -207 88q-140 0 -230 -120q-92 -122 -92 -297z M211 1047q24 192 147 192q52 0 161 -63q111 -64 145 -64q77 0 98 113h20q-24 -193 -143 -193q-50 0 -161 64q-110 63 -144 63q-42 0 -65 -23q-24 -24 -36 -89h-22z" />
<glyph unicode="&#xf6;" horiz-adv-x="995" d="M53 434q0 199 130 335t319 136q186 0 314 -131t128 -328q0 -202 -129 -337q-130 -136 -315 -136q-189 0 -318 131q-129 130 -129 330zM176 457q0 -252 125 -377q78 -78 201 -78q133 0 224 124t91 302q0 246 -112 358q-84 88 -207 88q-140 0 -230 -120q-92 -122 -92 -297z M252 1135q0 33 21 61q21 29 61 29q38 0 62 -29q24 -28 24 -61q0 -31 -24 -57q-24 -25 -62 -25q-40 0 -61 25q-21 26 -21 57zM573 1135q0 33 24 61q24 29 62 29q40 0 61 -29t21 -61q0 -31 -21 -57q-21 -25 -61 -25q-38 0 -62 25q-24 26 -24 57z" />
<glyph unicode="&#xf7;" horiz-adv-x="917" d="M49 461l6 45h807l6 -45h-819zM356 201q0 39 30 67q31 29 73 29t71 -29t29 -67q0 -41 -29 -72t-71 -31t-73 31q-30 30 -30 72zM356 772q0 38 29 69q28 29 72 29q43 0 72 -29q30 -30 30 -69q0 -42 -30 -72t-72 -30q-43 0 -72 30q-29 31 -29 72z" />
<glyph unicode="&#xf8;" horiz-adv-x="995" d="M53 434q0 199 130 335t319 136q111 0 207 -51l170 291h39l-181 -309q97 -62 152 -163t55 -227q0 -202 -129 -337q-130 -136 -315 -136q-122 0 -228 62l-151 -262h-37l162 278q-91 62 -142 161t-51 222zM176 457q0 -223 100 -351l406 701q-76 67 -184 67q-140 0 -230 -120 q-92 -122 -92 -297zM299 82l2 -2q78 -78 201 -78q133 0 224 124t91 302q0 240 -108 354l-103 -176l-205 -348z" />
<glyph unicode="&#xf9;" horiz-adv-x="968" d="M2 877h254v-607q0 -213 193 -213q129 0 270 129v580q0 47 -14 60q-15 13 -62 18l-63 6l-7 27h256v-775q0 -27 10 -42q9 -13 44 -15l92 -6l-4 -21l-252 -49l4 181h-4q-64 -53 -103 -83q-34 -26 -103 -60t-134 -34q-100 0 -168 62q-64 64 -64 198v590q0 11 -10 14 q-8 2 -65 7l-64 6zM215 1393h139l242 -377h-16z" />
<glyph unicode="&#xfa;" horiz-adv-x="968" d="M2 877h254v-607q0 -213 193 -213q129 0 270 129v580q0 47 -14 60q-15 13 -62 18l-63 6l-7 27h256v-775q0 -27 10 -42q9 -13 44 -15l92 -6l-4 -21l-252 -49l4 181h-4q-64 -53 -103 -83q-34 -26 -103 -60t-134 -34q-100 0 -168 62q-64 64 -64 198v590q0 11 -10 14 q-8 2 -65 7l-64 6zM428 1016l242 377h139l-363 -377h-18z" />
<glyph unicode="&#xfb;" horiz-adv-x="968" d="M2 877h254v-607q0 -213 193 -213q129 0 270 129v580q0 47 -14 60q-15 13 -62 18l-63 6l-7 27h256v-775q0 -27 10 -42q9 -13 44 -15l92 -6l-4 -21l-252 -49l4 181h-4q-64 -53 -103 -83q-34 -26 -103 -60t-134 -34q-100 0 -168 62q-64 64 -64 198v590q0 11 -10 14 q-8 2 -65 7l-64 6zM213 999l252 381h18l252 -381h-20l-238 258h-4l-240 -258h-20z" />
<glyph unicode="&#xfc;" horiz-adv-x="968" d="M2 877h254v-607q0 -213 193 -213q129 0 270 129v580q0 47 -14 60q-15 13 -62 18l-63 6l-7 27h256v-775q0 -27 10 -42q9 -13 44 -15l92 -6l-4 -21l-252 -49l4 181h-4q-64 -53 -103 -83q-34 -26 -103 -60t-134 -34q-100 0 -168 62q-64 64 -64 198v590q0 11 -10 14 q-8 2 -65 7l-64 6zM229 1135q0 31 22 61q21 29 60 29t63 -29q23 -27 23 -61q0 -33 -23 -57q-24 -25 -63 -25t-60 25q-22 27 -22 57zM551 1135q0 34 23 61q24 29 63 29t60 -29q22 -30 22 -61q0 -30 -22 -57q-21 -25 -60 -25t-63 25q-23 24 -23 57z" />
<glyph unicode="&#xfd;" horiz-adv-x="890" d="M-16 877h374l-4 -27l-55 -6q-43 -1 -52 -20q-9 -18 7 -60l250 -633l198 547q35 104 25 130q-11 28 -82 34l-57 8l-6 27h338l-7 -27l-47 -6q-48 -1 -68 -31q-21 -31 -65 -151l-248 -666l-65 -213q-50 -167 -109 -240q-60 -73 -153 -73q-50 0 -82 25q-33 25 -33 61 q0 37 24 61q25 25 60 25q37 0 62 -27q26 -28 32 -74q57 12 95 77q40 69 85 214l45 143v2l-313 773q-23 58 -37 76q-13 17 -47 18l-59 6zM385 1016l242 377h139l-363 -377h-18z" />
<glyph unicode="&#xfe;" horiz-adv-x="966" d="M-37 1317l4 22l256 54v-660l4 -4q167 170 318 170q158 0 264 -121t106 -305q0 -209 -133 -354q-134 -146 -313 -146q-117 0 -240 60h-6v-494q0 -9 14 -14t62 -6l98 -4l6 -29h-428l7 29l71 4q56 5 60 16q2 2 2 8v1659q0 60 -13 83q-12 21 -53 26zM223 139q44 -55 115 -93 q70 -38 141 -38q140 0 226 115t86 299q0 174 -85 287q-86 114 -223 114q-126 0 -260 -137v-547z" />
<glyph unicode="&#xff;" horiz-adv-x="890" d="M-16 877h374l-4 -27l-55 -6q-43 -1 -52 -20q-9 -18 7 -60l250 -633l198 547q35 104 25 130q-11 28 -82 34l-57 8l-6 27h338l-7 -27l-47 -6q-48 -1 -68 -31q-21 -31 -65 -151l-248 -666l-65 -213q-50 -167 -109 -240q-60 -73 -153 -73q-50 0 -82 25q-33 25 -33 61 q0 37 24 61q25 25 60 25q37 0 62 -27q26 -28 32 -74q57 12 95 77q40 69 85 214l45 143v2l-313 773q-23 58 -37 76q-13 17 -47 18l-59 6zM219 1135q0 31 22 61q21 29 60 29t63 -29q23 -27 23 -61q0 -33 -23 -57q-24 -25 -63 -25t-60 25q-22 27 -22 57zM541 1135q0 34 23 61 q24 29 63 29t60 -29q22 -30 22 -61q0 -30 -22 -57q-21 -25 -60 -25t-63 25q-23 24 -23 57z" />
<glyph unicode="&#x152;" horiz-adv-x="1851" d="M66 621q0 293 205 474t558 181l848 4l33 -334h-22l-23 88q-43 123 -117 168t-239 45h-228v-557h176q122 1 164 24q39 21 60 93l20 59l23 -2l-39 -391l-23 2l-4 55q-6 80 -40 101q-34 20 -171 22l-166 2v-614l230 -6q133 1 223 33q87 30 124 75q38 46 71 125l24 86l29 -2 l-78 -352h-913q-335 -4 -531 163q-194 166 -194 458zM205 666q0 -285 157 -457t457 -172h137v1180l-178 24q-274 -7 -424 -171q-149 -162 -149 -404z" />
<glyph unicode="&#x153;" horiz-adv-x="1619" d="M53 434q0 199 130 335t319 136q127 0 228 -64q102 -65 153 -177q52 112 149 177q95 64 219 64q142 0 226 -81t84 -193q0 -20 -7 -53l-608 4q-8 -66 -8 -113q0 -178 93 -295t235 -117q177 0 290 168l23 -14q-131 -236 -358 -236q-113 0 -204 63q-90 62 -140 171 q-56 -109 -155 -172q-101 -64 -222 -64q-189 0 -318 131q-129 130 -129 330zM176 453q0 -246 125 -371q80 -80 201 -80q133 0 224 124t91 302q0 246 -112 358q-84 88 -207 88q-140 0 -230 -120q-92 -122 -92 -301zM954 610l482 4q2 113 -52 186q-52 72 -151 72 q-89 0 -168 -73q-81 -75 -111 -189z" />
<glyph unicode="&#x178;" horiz-adv-x="1220" d="M-8 1280h485l-6 -29l-96 -4q-52 -2 -59 -19t24 -71l309 -536h6l252 450q55 104 46 135t-99 41l-84 4l-6 29h448l-6 -29l-65 -4q-73 -5 -101 -28q-29 -24 -92 -146l-276 -487v-527q0 -16 88 -22l108 -8l6 -29h-530l6 29l125 10q72 6 72 24v504l-336 568q-33 59 -59 85 q-23 23 -76 25l-78 6zM387 1477q0 31 22 61q21 29 60 29q38 0 62 -29q24 -28 24 -61q0 -31 -24 -57q-24 -25 -62 -25q-39 0 -60 25q-22 27 -22 57zM709 1477q0 34 23 61q24 29 63 29t60 -29q22 -30 22 -61q0 -30 -22 -57q-21 -25 -60 -25t-63 25q-23 24 -23 57z" />
<glyph unicode="&#x2c6;" horiz-adv-x="776" d="M127 999l252 381h18l252 -381h-20l-238 258h-4l-240 -258h-20z" />
<glyph unicode="&#x2dc;" horiz-adv-x="776" d="M102 1047q24 192 148 192q52 0 161 -63q111 -64 144 -64q77 0 98 113h21q-24 -193 -144 -193q-49 0 -160 64q-110 63 -145 63q-41 0 -64 -23q-24 -24 -36 -89h-23z" />
<glyph unicode="&#x2000;" horiz-adv-x="872" />
<glyph unicode="&#x2001;" horiz-adv-x="1745" />
<glyph unicode="&#x2002;" horiz-adv-x="872" />
<glyph unicode="&#x2003;" horiz-adv-x="1745" />
<glyph unicode="&#x2004;" horiz-adv-x="581" />
<glyph unicode="&#x2005;" horiz-adv-x="436" />
<glyph unicode="&#x2006;" horiz-adv-x="290" />
<glyph unicode="&#x2007;" horiz-adv-x="290" />
<glyph unicode="&#x2008;" horiz-adv-x="218" />
<glyph unicode="&#x2009;" horiz-adv-x="349" />
<glyph unicode="&#x200a;" horiz-adv-x="96" />
<glyph unicode="&#x2010;" horiz-adv-x="602" d="M49 465l6 57h498l-2 -57h-502z" />
<glyph unicode="&#x2011;" horiz-adv-x="602" d="M49 465l6 57h498l-2 -57h-502z" />
<glyph unicode="&#x2012;" horiz-adv-x="602" d="M49 465l6 57h498l-2 -57h-502z" />
<glyph unicode="&#x2013;" horiz-adv-x="899" d="M20 461l7 53h850l-3 -53h-854z" />
<glyph unicode="&#x2014;" horiz-adv-x="1857" d="M20 461l7 53h1808l-2 -53h-1813z" />
<glyph unicode="&#x2018;" horiz-adv-x="350" d="M55 1032q0 85 70 170q67 82 162 133l12 -14q-7 -7 -29 -24q-8 -6 -15 -12t-11.5 -9.5t-5.5 -4.5q-8 -6 -28 -26q-23 -23 -28 -33q-6 -12 -18 -33q-12 -22 -17 -43q-4 -19 -4 -46q0 -64 44 -91q43 -27 98 -14q16 -29 -11 -67q-27 -37 -77 -37q-61 0 -102 41 q-40 40 -40 110z" />
<glyph unicode="&#x2019;" horiz-adv-x="346" d="M47 883l25 18q26 22 28 24q2 1 25 21q20 17 26 27t19 27t18 34q9 29 10 35q5 23 5 41q0 64 -44 91q-45 28 -96 16q-16 30 11 68t78 38q61 0 100 -43q39 -44 39 -115q0 -86 -69 -167q-69 -80 -161 -132z" />
<glyph unicode="&#x201a;" horiz-adv-x="346" d="M47 -229l25 20l28 22q2 2 25 21q20 17 26 27t19 27t18 34q9 29 10 35q5 23 5 41q0 64 -44 91t-96 15q-17 30 11 69q27 38 78 38q61 0 100 -43t39 -115q0 -86 -69 -167q-69 -80 -161 -132z" />
<glyph unicode="&#x201c;" horiz-adv-x="659" d="M55 1032q0 85 70 170q67 82 162 133l12 -14q-7 -7 -29 -24q-8 -6 -15 -12t-11.5 -9.5t-5.5 -4.5q-8 -6 -28 -26q-23 -23 -28 -33q-6 -12 -18 -33q-12 -22 -17 -43q-4 -19 -4 -46q0 -64 44 -91q43 -27 98 -14q16 -29 -11 -67q-27 -37 -77 -37q-61 0 -102 41 q-40 40 -40 110zM367 1032q0 86 69 170q67 82 160 133l14 -14q-10 -10 -28 -24q-8 -6 -15.5 -12t-11.5 -9.5t-6 -4.5q-8 -6 -28 -26q-21 -21 -27 -33q-2 -4 -4.5 -8.5t-7 -12l-7.5 -12.5q-11 -19 -16 -43q-4 -19 -4 -46q0 -64 44 -91q42 -26 95 -14q16 -30 -9 -67t-79 -37 q-58 0 -99 41q-40 40 -40 110z" />
<glyph unicode="&#x201d;" horiz-adv-x="657" d="M47 883l25 18q26 22 28 24q2 1 25 21q20 17 26 27t19 27t18 34q9 29 10 35q5 23 5 41q0 64 -44 91q-45 28 -96 16q-16 30 11 68t78 38q61 0 100 -43q39 -44 39 -115q0 -86 -69 -167q-69 -80 -161 -132zM358 883q1 1 29 22q24 18 32 26q13 13 27 25q20 17 28 32q2 5 9 16 t11 18q11 20 16 42q4 19 4 46q0 64 -44 91q-45 28 -95 16q-15 29 10 68q24 38 76 38q61 0 100 -43q39 -44 39 -115q0 -85 -69 -168q-68 -81 -160 -131z" />
<glyph unicode="&#x201e;" horiz-adv-x="657" d="M47 -229l25 20l28 22q2 2 25 21q20 17 26 27t19 27t18 34q9 29 10 35q5 23 5 41q0 64 -44 91t-96 15q-17 30 11 69q27 38 78 38q61 0 100 -43t39 -115q0 -86 -69 -167q-69 -80 -161 -132zM358 -229q1 1 29 22q24 18 32 26q13 13 27 25q20 17 28 32q2 5 9 16t11 18 q11 20 16 42q4 19 4 46q0 64 -44 91t-95 15q-15 30 10 69q24 38 76 38q61 0 100 -43t39 -115q0 -85 -69 -168q-68 -81 -160 -131z" />
<glyph unicode="&#x2022;" horiz-adv-x="888" d="M51 475q0 46 43 147t74 132q29 29 133 72q102 42 145 42q45 0 147 -42t132 -72q32 -32 73 -132q42 -102 42 -147q0 -43 -41 -145q-40 -99 -74 -133q-29 -32 -133 -75q-102 -42 -148 -42q-44 0 -145 43q-102 44 -131 74q-32 35 -74 134q-43 101 -43 144z" />
<glyph unicode="&#x2026;" horiz-adv-x="1118" d="M90 68q0 36 28 64t70 28q41 0 67 -28t26 -64q0 -39 -26 -67t-67 -28q-42 0 -70 28t-28 67zM463 68q0 37 29 64q30 28 69 28q40 0 68 -28q26 -26 26 -64q0 -41 -26 -67q-28 -28 -68 -28q-43 0 -71 28q-27 27 -27 67zM838 68q0 38 26 64q28 28 68 28q39 0 67 -28 q27 -27 27 -64q0 -40 -27 -67q-28 -28 -67 -28q-40 0 -68 28q-26 26 -26 67z" />
<glyph unicode="&#x202f;" horiz-adv-x="349" />
<glyph unicode="&#x2039;" horiz-adv-x="497" d="M39 440v29l397 340l10 -16l-280 -338l280 -340l-8 -17z" />
<glyph unicode="&#x203a;" horiz-adv-x="497" d="M47 115l281 340l-279 338l10 16l396 -340v-29l-398 -342z" />
<glyph unicode="&#x205f;" horiz-adv-x="436" />
<glyph unicode="&#x20ac;" horiz-adv-x="968" d="M6 449l6 34h119q-6 57 -6 121q0 62 6 111h-125l6 37h125q38 242 173 394q136 152 329 152q125 0 208 -53t83 -129q0 -33 -24 -57q-25 -25 -54 -25q-63 0 -77 62q-13 60 28 94q-51 80 -170 80q-145 0 -252 -148t-131 -370h422l6 -37h-434q2 -12 0 -38q0 -6 -0.5 -14.5 t-1 -13t-0.5 -6.5q0 -93 14 -160h416l6 -34h-416q38 -187 135 -293q100 -109 234 -109q197 0 297 195l20 -15q-133 -256 -356 -256q-172 0 -295 130q-122 130 -160 348h-131z" />
<glyph unicode="&#x2122;" horiz-adv-x="1126" d="M51 1149l17 131h391l6 -133h-16l-11 49q-12 34 -36 49t-83 15h-26v-402q0 -5 22 -6l52 -4l2 -23h-217l2 23l57 4q18 4 18 8v400h-26q-58 -1 -83 -17q-23 -15 -38 -47l-12 -47h-19zM510 825l4 23l43 2q20 0 24 4q5 5 5 20l12 365q-7 11 -27 16l-47 5l-2 20h152l125 -358h6 l133 358h154l-5 -20l-53 -5q-14 -1 -14 -10l10 -387q0 -4 23 -6l45 -4l2 -23h-205v23l53 4q17 2 17 8l-9 383h-6l-157 -409h-23l-143 401q-6 1 -6 4l-11 -367q0 -14 7 -18t28 -4l43 -2l2 -23h-180z" />
<glyph unicode="&#x25fc;" horiz-adv-x="880" d="M0 0v881h881v-881h-881z" />
</font>
</defs>
</svg>
