<svg id="98366a76-64f1-41ac-9276-bb9806ee9143" data-name="Capa 1" xmlns="http://www.w3.org/2000/svg" viewBox="0 0 32 32"><defs><style>.\32 c2bf70f-8894-41b9-ba36-52484892282f{fill:#ff4900;}</style></defs><title>FAVICON</title><path class="2c2bf70f-8894-41b9-ba36-52484892282f" d="M24.48,13.88l-2-.55,1-1.76-3-3.07-1.77,1-.53-2-4.32,0-.55,2-1.76-1-3.07,3,1,1.77-2,.53,0,4.32,2,.55-1,1.76,3,3.07,1.77-1,.53,2,4.32,0,.55-2,1.76,1,3.07-3-1-1.77,2-.53Zm-.36,2.33-2.67.65-1.11.27-.64.15-.41.1.22.37.34.57.58,1,1.41,2.36-.24.24-2.35-1.43-1-.59-.56-.34-.36-.22-.11.42-.16.64-.28,1.1-.67,2.67h-.34l-.65-2.67-.27-1.11-.15-.64-.1-.41-.37.22-.57.34-1,.58-2.36,1.41-.24-.24,1.43-2.35.59-1,.34-.56.22-.36-.42-.11-.64-.16-1.1-.28-2.67-.67v-.34l2.67-.65,1.11-.27.64-.15.41-.1-.22-.37-.34-.57-.58-1-1.41-2.36.24-.24,2.35,1.43,1,.59.56.34.36.22.11-.42.16-.64.28-1.1.67-2.67h.34l.65,2.67.27,1.11.15.64.1.41.37-.22.57-.34,1-.58,2.36-1.41.24.24-1.43,2.35-.59,1-.34.56-.22.36.42.11.64.16,1.1.28,2.67.67Z"/></svg>