<svg id="24863748-4fa7-44c7-bcff-fd6afdf7e7e1" data-name="Capa 1" xmlns="http://www.w3.org/2000/svg" viewBox="0 0 262.24 65.21"><defs><style>.\32 9213f5c-90e8-47b1-81ba-55321f74e83d{fill:#ff4612;}</style></defs><title>LANDING MOVDI ASSETS</title><path d="M258.77,48.41h-9.32V17.79h9.32Z"/><path d="M93.13,17.67l18.11,0,3.43,28.61h1.48l4.33-28.6,18.11,0-.06,30.65-9.23,0-.43-28.61-4.17,28.6-17.82,0-4.06-28.61-.54,28.61-9.23,0Z"/><path d="M158.7,16.89c11.11,0,17.91,6.86,17.89,15.77s-6.84,15.77-17.95,15.75-18-6.86-17.94-15.82S147.54,16.86,158.7,16.89Zm0,24.22c5.8,0,8.7-3.07,8.71-8.46s-2.88-8.44-8.68-8.45-8.75,3.07-8.76,8.42S152.86,41.09,158.66,41.1Z"/><path d="M185.69,17.72,194,46.34h1.48l8.46-28.59,10.16,0-9.43,30.63-19.87,0L175.52,17.7Z"/><path d="M228.86,17.53l-12.6,0L216.2,48l12.59,0h.1c8.93,0,18.22-5.07,18.25-15.22S237.82,17.61,228.86,17.53Zm-3.29,4.73h1a4,4,0,0,1,3.38,1.88c2.58,4.14,3.12,8.61,13.09,8.61-10,0-10.5,4.44-13.09,8.55a4,4,0,0,1-3.37,1.87h-1C225.55,35.15,225.56,30.29,225.57,22.26Z"/><path class="29213f5c-90e8-47b1-81ba-55321f74e83d" d="M67,24.68l-7.32-2.05L63.44,16,52.05,4.55,45.43,8.28l-2-7.34L27.28.86,25.23,8.18l-6.58-3.8L7.16,15.77l3.72,6.62-7.34,2L3.47,40.54l7.32,2.05L7,49.17,18.38,60.66,25,56.94l2,7.34,16.17.07L45.19,57l6.58,3.8L63.27,49.45l-3.72-6.62,7.34-2ZM65.6,33.39l-10,2.42-4.14,1-2.39.58-1.55.37.82,1.38,1.27,2.13,2.17,3.64,5.27,8.84-.91.9-8.78-5.36-3.63-2.22-2.1-1.28L40.27,45l-.39,1.56-.61,2.4-1,4.11L35.71,63H34.43L32,53l-1-4.14-.58-2.39-.37-1.55-1.38.82L26.55,47l-3.64,2.17-8.84,5.27-.9-.91,5.36-8.78,2.22-3.63L22,39l.83-1.36-1.56-.39-2.4-.61-4.11-1-10-2.52V31.82l10-2.42,4.14-1,2.39-.58,1.55-.37-.82-1.38-1.27-2.13-2.17-3.64-5.27-8.84.91-.9,8.78,5.36,3.63,2.22,2.1,1.28,1.36.83.39-1.56.61-2.4,1-4.11,2.52-10H36l2.42,10,1,4.14L40,18.75l.37,1.55,1.38-.82,2.13-1.27L47.51,16l8.84-5.27.9.91L51.9,20.45l-2.22,3.63-1.28,2.1-.83,1.36,1.56.39,2.4.61,4.11,1,10,2.52Z"/></svg>