<svg id="7a87b42a-b557-4338-9458-4ba3ba92e9dc" data-name="Capa 1" xmlns="http://www.w3.org/2000/svg" viewBox="0 0 170.47 41.75"><defs><style>.ea908fca-3971-4fef-a875-2302cb92b90b{fill:#fff;}</style></defs><title>LANDING MOVDI ASSETS</title><path class="ea908fca-3971-4fef-a875-2302cb92b90b" d="M166.83,31h-6V11.4h6Z"/><path class="ea908fca-3971-4fef-a875-2302cb92b90b" d="M60.95,11.33l11.58,0,2.2,18.29h.94l2.77-18.28,11.58,0L90,31h-5.9l-.27-18.29L81.14,31l-11.39,0-2.6-18.29-.34,18.29h-5.9Z"/><path class="ea908fca-3971-4fef-a875-2302cb92b90b" d="M102.86,10.83c7.1,0,11.45,4.38,11.44,10.08S109.93,31,102.83,31,91.35,26.59,91.36,20.87,95.73,10.81,102.86,10.83Zm0,15.48c3.71,0,5.56-2,5.57-5.41s-1.84-5.39-5.55-5.4-5.59,2-5.6,5.38S99.13,26.3,102.84,26.31Z"/><path class="ea908fca-3971-4fef-a875-2302cb92b90b" d="M120.11,11.36l5.31,18.3h.94l5.41-18.28h6.5l-6,19.58-12.7,0-5.92-19.6Z"/><path class="ea908fca-3971-4fef-a875-2302cb92b90b" d="M147.71,11.24h-8.06l0,19.47h8.12c5.71,0,11.65-3.24,11.66-9.73S153.44,11.29,147.71,11.24Zm-2.1,3h.61a2.54,2.54,0,0,1,2.16,1.2c1.65,2.64,2,5.51,8.37,5.51-6.38,0-6.72,2.84-8.37,5.47a2.54,2.54,0,0,1-2.15,1.2h-.64C145.6,22.5,145.6,19.4,145.61,14.26Z"/><path class="ea908fca-3971-4fef-a875-2302cb92b90b" d="M44.22,15.81,39.54,14.5,42,10.29,34.69,2.94,30.45,5.32,29.19.63,18.86.58,17.54,5.26,13.34,2.84,6,10.11l2.38,4.23L3.68,15.61l0,10.34,4.68,1.31L5.88,31.47l7.28,7.34,4.23-2.38,1.26,4.69,10.34,0,1.31-4.68,4.21,2.43,7.34-7.28-2.38-4.23,4.69-1.26Zm-.87,5.57L37,22.92l-2.65.64-1.53.37-1,.24.53.88.81,1.36,1.39,2.33,3.37,5.65-.58.58-5.61-3.43-2.32-1.42L28,29.3l-.87-.53-.25,1-.39,1.53-.66,2.62-1.61,6.38h-.82l-1.55-6.39-.64-2.65-.37-1.53-.24-1-.88.53-1.36.81-2.33,1.39-5.65,3.37-.58-.58,3.43-5.61,1.42-2.32L15.5,25l.53-.87-1-.25-1.53-.39-2.62-.66L4.5,21.19v-.82l6.39-1.55,2.65-.64,1.53-.37,1-.24-.53-.88-.81-1.36L13.33,13,10,7.36l.58-.58,5.61,3.43,2.32,1.42,1.34.82.87.53.25-1,.39-1.53L22,7.83l1.61-6.38h.82L26,7.84l.64,2.65L27,12l.24,1,.88-.53,1.36-.81,2.33-1.39,5.65-3.37L38,7.5l-3.43,5.61-1.42,2.32-.82,1.34-.53.87,1,.25,1.53.39,2.62.66,6.38,1.61Z"/></svg>