<svg id="13266967-e027-489b-a0c7-dfdce7aff2ce" data-name="Capa 1" xmlns="http://www.w3.org/2000/svg" viewBox="0 0 113.05 58.57"><title>LANDING MOVDI ASSETS</title><path d="M109.18,38.16a2.57,2.57,0,1,0,2.57,2.57A2.57,2.57,0,0,0,109.18,38.16Zm0,4.62a2.05,2.05,0,1,1,2-2.05A2.06,2.06,0,0,1,109.18,42.79Z"/><path d="M109.87,40.73a.73.73,0,0,0,.41-.71.79.79,0,0,0-.84-.77h-1.32V42h.63V40.94H109c.32,0,.51.09.6.38a5.38,5.38,0,0,0,.23.7h.69a2.21,2.21,0,0,1-.25-.68A.79.79,0,0,0,109.87,40.73Zm-.6-.33h-.51v-.64h.45c.19,0,.43.08.43.3A.34.34,0,0,1,109.26,40.39Z"/><path d="M29.62,53.41A7,7,0,0,1,27,55.16c-.88.28-3.38.5-4.12-1.57-.16-.45,0-.59.38-.71.6-.18,2.16-.64,3.8-1.25a19.65,19.65,0,0,0,3.24-1.52,1.41,1.41,0,0,0,.53-1.92c-1-2.35-3.41-4.81-7.35-4.06a6.71,6.71,0,0,0-5.37,6.63,6.8,6.8,0,0,0,5.46,7,7.35,7.35,0,0,0,7.57-3C31.72,53.92,30.13,52.87,29.62,53.41Zm-7.08-3.14c-.31-.85-.06-3.43,1.36-3.92s2.42.26,2.87,1.77a1.76,1.76,0,0,1-.05,1.37,2.58,2.58,0,0,1-1.17.66l-1.12.37C23.32,50.9,22.79,51,22.53,50.27Z"/><path d="M66.24,53.41a7,7,0,0,1-2.61,1.75c-.88.28-3.38.5-4.12-1.57-.16-.45,0-.59.38-.71.6-.18,2.16-.64,3.8-1.25a19.64,19.64,0,0,0,3.24-1.52,1.41,1.41,0,0,0,.53-1.92c-1-2.35-3.41-4.81-7.35-4.06a6.71,6.71,0,0,0-5.37,6.63,6.8,6.8,0,0,0,5.46,7,7.35,7.35,0,0,0,7.57-3C68.34,53.92,66.75,52.87,66.24,53.41Zm-7.08-3.14a4.43,4.43,0,0,1,.18-2.56,2.13,2.13,0,0,1,1.19-1.36,1.92,1.92,0,0,1,1.73.06,2.78,2.78,0,0,1,1.14,1.71,1.76,1.76,0,0,1-.05,1.37,2.56,2.56,0,0,1-1.17.66c-.49.17-.92.31-1.12.38C59.94,50.88,59.42,51,59.16,50.27Z"/><path d="M94.16,53.41a7,7,0,0,1-2.61,1.75c-.88.28-3.38.5-4.12-1.57-.16-.45,0-.59.38-.71.6-.18,2.16-.64,3.8-1.25a19.63,19.63,0,0,0,3.24-1.52,1.41,1.41,0,0,0,.53-1.92c-1-2.35-3.41-4.81-7.35-4.06a6.71,6.71,0,0,0-5.37,6.63,6.8,6.8,0,0,0,5.46,7,7.35,7.35,0,0,0,7.57-3C96.26,53.92,94.67,52.87,94.16,53.41Zm-7.08-3.14a4.44,4.44,0,0,1,.18-2.56,2.13,2.13,0,0,1,1.19-1.36,1.92,1.92,0,0,1,1.73.06,2.78,2.78,0,0,1,1.14,1.71,1.76,1.76,0,0,1-.05,1.37,2.56,2.56,0,0,1-1.17.66c-.49.17-.92.31-1.12.38C87.86,50.88,87.34,51,87.08,50.27Z"/><path d="M11.8,54.17a1.4,1.4,0,0,1-.58,1.3l-.89.4a.35.35,0,0,0-.2.37.81.81,0,0,0,0,.13l.11,1c0,.28.23.32.6.32H17.3c.36,0,.55,0,.6-.32l.1-1a.81.81,0,0,0,0-.13.35.35,0,0,0-.2-.37l-.89-.4a1.4,1.4,0,0,1-.58-1.3V43a1.4,1.4,0,0,1,.58-1.3l.89-.4a.35.35,0,0,0,.2-.37.81.81,0,0,0,0-.13L17.9,40c0-.28-.23-.32-.6-.32H11.14c-.36,0-.55,0-.6.32l-.11.76a.81.81,0,0,0,0,.13.35.35,0,0,0,.2.37l.73.4c.42.24.44.77.44,1.3V46.1a.39.39,0,0,1-.39.39H7.91a.39.39,0,0,1-.39-.39V43c0-.53,0-1.07.44-1.3l.73-.4a.35.35,0,0,0,.2-.37.81.81,0,0,0,0-.13L8.77,40c0-.28-.23-.32-.6-.32H2c-.36,0-.55,0-.6.32l-.1.76a.81.81,0,0,0,0,.13.35.35,0,0,0,.21.37l.89.4A1.4,1.4,0,0,1,3,43V54.17a1.4,1.4,0,0,1-.58,1.3l-.89.4a.35.35,0,0,0-.21.37.81.81,0,0,0,0,.13l.1,1c0,.28.23.32.6.32H8.47c.36,0,.55,0,.6-.32l.11-1a.81.81,0,0,0,0-.13.35.35,0,0,0-.2-.37l-.89-.4a1.4,1.4,0,0,1-.58-1.3V49.62a.39.39,0,0,1,.39-.39h3.5a.39.39,0,0,1,.39.39Z"/><ellipse cx="34.93" cy="41.58" rx="2.33" ry="2.25"/><path d="M32.38,57.71c-.35,0-.53,0-.58-.31l-.1-1a.7.7,0,0,1,0-.13.35.35,0,0,1,.19-.35l.69-.39a1.37,1.37,0,0,0,.56-1.25V47.89c0-.53-.09-1.22-.56-1.45l-.44-.26a.35.35,0,0,1-.2-.37.8.8,0,0,1,0-.13l.11-.76c0-.28.23-.32.6-.32H37a.39.39,0,0,1,.39.39v9.28A1.37,1.37,0,0,0,38,55.53l.69.39a.35.35,0,0,1,.19.35.71.71,0,0,1,0,.13l-.1,1c0,.26-.23.31-.58.31Z"/><path d="M45.58,45.28l.69-.33c.87-.41,2.58-1.15,4-.69,1.22.39,2.28,1.28,2.28,3.61v7.07c0,.3,0,.43.15.5s.52-.2.83-.37.49,0,.68.24a.69.69,0,0,1,.21.8,3.26,3.26,0,0,1-3.06,1.72,2.72,2.72,0,0,1-2.94-2.68V48.35A1.2,1.2,0,0,0,47.08,47c-.88.11-1.53.85-1.53,2.17v5.09a1.38,1.38,0,0,0,.56,1.25l.69.39a.35.35,0,0,1,.19.35.7.7,0,0,1,0,.13l-.1,1c0,.26-.23.31-.58.31H40.53c-.35,0-.53,0-.58-.31l-.1-1a.7.7,0,0,1,0-.13.35.35,0,0,1,.19-.35l.69-.39a1.37,1.37,0,0,0,.56-1.25V47.89c0-.53-.09-1.22-.56-1.45l-.44-.26a.35.35,0,0,1-.21-.37.78.78,0,0,1,0-.13l.1-.76c0-.28.23-.32.6-.32h4.11a.54.54,0,0,1,.54.39Z"/><path d="M102,45.28l.69-.33c.87-.41,2.58-1.15,4-.69,1.23.39,2.28,1.28,2.28,3.61v7.07c0,.3,0,.43.15.5s.52-.2.83-.37.49,0,.68.24a.69.69,0,0,1,.21.8,3.26,3.26,0,0,1-3.06,1.72,2.72,2.72,0,0,1-2.94-2.68V48.35A1.2,1.2,0,0,0,103.49,47c-.88.11-1.53.85-1.53,2.17v5.09a1.37,1.37,0,0,0,.56,1.25l.69.39a.35.35,0,0,1,.19.35.71.71,0,0,1,0,.13l-.1,1c0,.26-.23.31-.58.31H96.94c-.35,0-.53,0-.58-.31l-.1-1a.7.7,0,0,1,0-.13.35.35,0,0,1,.19-.35l.69-.39a1.37,1.37,0,0,0,.56-1.25V47.89c0-.53-.09-1.22-.56-1.45l-.44-.26a.35.35,0,0,1-.21-.37.81.81,0,0,1,0-.13l.11-.76c0-.28.23-.32.6-.32h4.11a.55.55,0,0,1,.54.39Z"/><path d="M81.06,54.45a2.85,2.85,0,0,0,1.07,1.08l.69.39a.35.35,0,0,1,.19.35.72.72,0,0,1,0,.13l-.1,1c0,.26-.23.31-.58.31H78.84c-.6,0-.64-.17-.91-.66L75,51.72l-1.1,1.05v1.5a1.42,1.42,0,0,0,.64,1.25l.69.39a.35.35,0,0,1,.19.35.68.68,0,0,1,0,.13l-.1,1c0,.26-.23.31-.58.31H69c-.35,0-.53,0-.58-.31l-.1-1a.67.67,0,0,1,0-.13.35.35,0,0,1,.19-.35l.69-.39a1.37,1.37,0,0,0,.56-1.25V42.84a1.37,1.37,0,0,0-.56-1.25l-.69-.39a.35.35,0,0,1-.19-.35.67.67,0,0,1,0-.13l.1-.72c0-.26.23-.31.58-.31h4.19a.75.75,0,0,1,.75.75v8.68l1.86-1.68c.27-.23.7-.61.87-.78s.2-.42,0-.52l-.66-.3a.32.32,0,0,1-.19-.33.73.73,0,0,1,0-.12l.1-.92c0-.25.21-.29.55-.29h5c.33,0,.5,0,.55.29l.1.92a1.13,1.13,0,0,1,0,.12c0,.2-.23.3-.37.36a3.56,3.56,0,0,0-.68.29,6.82,6.82,0,0,0-1.11.85L78,48.87Z"/><path d="M76.66,29.92v-.09h-.57a.76.76,0,0,0,.81.86.84.84,0,0,0,.91-.91.67.67,0,0,0-.47-.72h0a.71.71,0,0,0,.38-.72.73.73,0,0,0-.78-.8c-.56,0-.74.41-.72.91h.53v-.06c0-.13,0-.32.2-.32s.21.18.21.31c0,.34-.14.41-.47.41v.53c.35,0,.46.08.46.43,0,.18,0,.43-.26.43a.23.23,0,0,1-.23-.24"/><polygon points="75.68 27.57 74.02 27.57 74.02 28.09 74.85 28.09 73.89 30.64 74.52 30.64 75.68 27.57"/><path d="M72.73,29h0a.64.64,0,0,0,.42-.65.77.77,0,1,0-1.54,0A.65.65,0,0,0,72,29h0a.77.77,0,0,0-.53.81.88.88,0,1,0,1.77,0,.76.76,0,0,0-.53-.81m-.36-1c.17,0,.19.21.19.33s0,.35-.19.35-.17-.24-.17-.35,0-.32.17-.32m0,2.16c-.21,0-.26-.28-.26-.43s0-.45.25-.45.27.29.27.45-.06.43-.27.43"/><polygon points="70.66 27.57 69.78 27.57 69.78 28.09 70.08 28.09 70.08 30.64 70.66 30.64 70.66 27.57"/><polygon points="36.25 27.57 34.91 27.57 34.91 30.64 36.26 30.64 36.26 30.07 35.57 30.07 35.57 29.38 36.17 29.38 36.17 28.81 35.57 28.81 35.57 28.14 36.25 28.14 36.25 27.57"/><path d="M42.21,29.92a.39.39,0,1,0,.38.38.38.38,0,0,0-.38-.38"/><polygon points="41.36 27.57 39.64 27.57 39.64 28.14 40.17 28.14 40.17 30.64 40.84 30.64 40.84 28.14 41.36 28.14 41.36 27.57"/><path d="M38.71,28.26v-.59a1.3,1.3,0,0,0-.6-.15.84.84,0,0,0-.88.9,1,1,0,0,0,.62.91c.19.13.4.21.4.45a.35.35,0,0,1-.39.34.87.87,0,0,1-.5-.17v.58a1.14,1.14,0,0,0,.58.16.91.91,0,0,0,1-1c0-.83-1-.86-1-1.37a.3.3,0,0,1,.33-.3.81.81,0,0,1,.49.2"/><path d="M67.51,33a.7.7,0,0,1-.2.68l-.22.17-.23.16a.7.7,0,0,1-.71,0s-.39-.24-1-.67c-2-1.36-6.53-4.42-9-6.18-2.46,1.75-7,4.81-9,6.18-.64.43-1,.67-1,.67a.7.7,0,0,1-.71,0l-.23-.16-.22-.17a.7.7,0,0,1-.2-.68l.06-.23a.62.62,0,0,0,.14.18l.22.17.23.16a.7.7,0,0,0,.71,0s.39-.24,1-.67c2-1.37,6.53-4.42,9-6.18,2.46,1.75,7,4.81,9,6.18.64.43,1,.67,1,.67a.7.7,0,0,0,.71,0l.23-.16.22-.17a.63.63,0,0,0,.14-.18ZM48.16,20.67c-2.43-1.8-6.73-5.14-8.65-6.64-.61-.47-1-.77-1-.77a.64.64,0,0,1-.17-.2s0,.14-.07.26a.7.7,0,0,0,.24.67s.35.3,1,.77c1.88,1.46,6,4.68,8.47,6.51Zm25.71-7.62a.65.65,0,0,1-.17.2s-.35.3-1,.77c-1.92,1.5-6.22,4.84-8.65,6.64l.18.59c2.46-1.83,6.59-5,8.47-6.51.61-.47,1-.77,1-.77a.7.7,0,0,0,.24-.67C73.92,13.19,73.88,13.09,73.87,13.05Z"/><path d="M49.66,20.19,45.77,32.13a.05.05,0,0,0,0,.06l.06,0,.06,0a0,0,0,0,0,.06,0l10.16-7.39,10.16,7.39a.05.05,0,0,0,.06,0l.06,0,.06,0a0,0,0,0,0,0-.06L62.6,20.19l10.17-7.38a.05.05,0,0,0,0-.06l0-.07,0-.07a0,0,0,0,0,0,0H60.13L56.25.63a.05.05,0,0,0,0,0h-.15a.05.05,0,0,0,0,0l-3.88,12H39.57a.05.05,0,0,0,0,0l0,.07,0,.07a.05.05,0,0,0,0,.06Z"/></svg>