<svg id="ecd737e4-8f47-4f33-8a02-70d09a4a65d8" data-name="Capa 1" xmlns="http://www.w3.org/2000/svg" viewBox="0 0 102.9 58.57"><defs><style>.\32 4b4eb92-acaa-4716-8af5-1fc5c22c23cd{fill-rule:evenodd;}</style></defs><title>LANDING MOVDI ASSETS</title><path class="24b4eb92-acaa-4716-8af5-1fc5c22c23cd" d="M92.13,15.2a11.48,11.48,0,0,1,1.45-2.42l1.09-1.09a2.18,2.18,0,0,1,1.2-.53c1,0,1.17,1.17.51,3.57a10.56,10.56,0,0,1-2,4.07,5.64,5.64,0,0,1-1.75,1.62,1.26,1.26,0,0,1-1,.09c-.39-.2-.55-.8-.5-1.81a9.22,9.22,0,0,1,1-3.51Zm-1.33,7.43a12.19,12.19,0,0,0,9.44-6.29l.44-.86a7,7,0,0,0,.51-4,3.33,3.33,0,0,0-1.37-1.94,4.8,4.8,0,0,0-3.67-.34,11.36,11.36,0,0,0-8.28,6.38,6,6,0,0,0-1,2.11,5.49,5.49,0,0,0-.17,2.43c.28,1.95,1.65,2.79,4.1,2.5Z"/><path class="24b4eb92-acaa-4716-8af5-1fc5c22c23cd" d="M82.1,13.17,82,13.11v0a3.26,3.26,0,0,0-3.26-1.7,4.13,4.13,0,0,0-1.64.55c-.48.3-.79.5-.87.69s-.08.39.17.47a5.75,5.75,0,0,1,1.4.36,2,2,0,0,1,1,1.95,27.25,27.25,0,0,1-1.17,7.41c-.45,1-.16,1.45.87,1.43l2.87-.37c1.11-.28,1.68-.64,1.73-1.11l0-.86a38.94,38.94,0,0,0-.36-6.22l0-.12a6.37,6.37,0,0,1,3.93-3.62,1.72,1.72,0,0,1,1.79.62c.19.16.31.22.39.16.44-.13.83-.56,1.22-1.26a2.33,2.33,0,0,0,.42-1.64c0-.86-.66-1.28-1.79-1.23q-3.39.28-6.63,4.52l0,.06Z"/><path class="24b4eb92-acaa-4716-8af5-1fc5c22c23cd" d="M65.38,3.75a2.15,2.15,0,0,0-2.57-1.19,11.29,11.29,0,0,0-4.24,1.22c-.17.12-.12.26.19.34.73.23,1.28,1,1.67,2.23a62.73,62.73,0,0,1,3,18c0,.79.23,1.33.62,1.5.9.54,2.26.23,4.07-.9A23.6,23.6,0,0,0,72.9,20.9a11.22,11.22,0,0,0,3-4.93c.45-1.79-.16-3-1.79-3.57a6.27,6.27,0,0,0-4.13.22,10.11,10.11,0,0,0-2.81,1.56L67,14.07c-.42-3.93-.73-6.32-.94-7.21l-.31-1.61a6.91,6.91,0,0,0-.39-1.51Zm2.54,19.14L67.22,16c1.72-1.33,2.89-1.45,3.49-.41s.48,2.18-.16,3.82a6.77,6.77,0,0,1-2.64,3.48Z"/><path class="24b4eb92-acaa-4716-8af5-1fc5c22c23cd" d="M73.76,26.08a37.35,37.35,0,0,1-7.57,7.28,40.15,40.15,0,0,1-12.46,5.69q-11.3,3.06-20.22,0L33.25,39c-.11.08-.12.23-.08.5.55,7.52,6,12.68,16.35,15.55a26.71,26.71,0,0,0,11.11.72,19.54,19.54,0,0,0,9.67-4.13A16.84,16.84,0,0,0,76,42.42q1.61-6.32-.48-14.62l-.19-.58a.22.22,0,0,0-.28-.13c-.3,0-.37.2-.3.52a28,28,0,0,1,.73,5.52A27.36,27.36,0,0,1,74.93,40q-1.87,8.47-9.2,11.53a22.14,22.14,0,0,1-14.65.78,25.48,25.48,0,0,1-7.35-3.46,15.58,15.58,0,0,1-4-3.7,6,6,0,0,1-1-1.87l.08,0a36.54,36.54,0,0,0,6.3,0,41.7,41.7,0,0,0,12.42-2.68,36.3,36.3,0,0,0,11.53-7.38c2.81-2.68,4.62-5.07,5.46-7.17.16-.3.16-.5,0-.58s-.34,0-.44.23l-.31.39Z"/><path class="24b4eb92-acaa-4716-8af5-1fc5c22c23cd" d="M4,25.35a17.87,17.87,0,0,0,6.1-1.06L15.2,23l1.23,8c.28,1.3.56,2.06.87,2.26l.62.31,1.64-.11c2.1-.2,3.15-.56,3.15-1.11l-.08-.61L21,21.48,26.67,20l1.15,7.75.55,2.65c.31.91.83,1.33,1.53,1.25a6.24,6.24,0,0,0,3.2-.86.52.52,0,0,0,.12-.66L33,29.59a54,54,0,0,1-2.22-10.34l6.55-1c-3,3.15-4.09,5.88-3.09,8.19a3.33,3.33,0,0,0,1.64,1.82,3.8,3.8,0,0,0,2.39.2,9,9,0,0,0,5.34-3.66c.9,2.62,2.78,3.51,5.63,2.6.14,0,.22-.08.22-.19s-.06-.27-.26-.39c-1-.44-1.51-1.48-1.59-3.09a19.6,19.6,0,0,1,.34-4.16l.44-2.46c0-.73-.39-1-1.17-.81a7.25,7.25,0,0,0-1.84.75,11,11,0,0,0-1.2.78,3.58,3.58,0,0,0-.56,1.2,14.21,14.21,0,0,1-3.81,6.68C38.6,26.82,38,26.91,37.85,26a5.23,5.23,0,0,1,.67-2.76,15.91,15.91,0,0,1,5-6.21,10.73,10.73,0,0,1,2.09-1.2c.17-.08.25-.17.25-.33s-.16-.31-.47-.39l-2-.08a84.13,84.13,0,0,0-12.9,1.87l-.25-4.32a41,41,0,0,1,.25-7.14.85.85,0,0,0-.31-1,1.89,1.89,0,0,0-1.45-.23,9.56,9.56,0,0,0-3.85,1.2q-.35.19-.23.33l.19.16.28.37a5.83,5.83,0,0,1,.45,2.59l.83,9-5.74,1.48c-.38-2.6-.62-5-.81-7.1l-.36-5c0-1.12-.31-1.67-1.08-1.67a9.22,9.22,0,0,0-2.82.67A12.48,12.48,0,0,0,12,8.15c-.3.23-.34.42-.19.55l.23.12.16.06A1.33,1.33,0,0,1,13.08,10c.59,2.95,1.09,5.6,1.45,8l-.11,0A45.67,45.67,0,0,0,3.49,22.07a2.32,2.32,0,0,0-1.14,2C2.51,25.4,4,25.35,4,25.35Zm11-4.54c-3.67,1-6,1.53-7.07,1.65-.81.19-1.25.14-1.28-.16s.31-.48,1-.86a30.25,30.25,0,0,1,7-2.54l0,0,.26,1.93Z"/><path class="24b4eb92-acaa-4716-8af5-1fc5c22c23cd" d="M61,13.92a15.6,15.6,0,0,0-3,.75c-2.67,1.09-4.1,2.26-4.29,3.54a2.1,2.1,0,0,0,.08,1.12,1.62,1.62,0,0,0,.94,1c.66.23,2.18.66,4.66,1.25,1.53.37,2.39.94,2.51,1.72.7,1.79-.08,3.88-2.35,6.22a20.49,20.49,0,0,1-4.06,3.63,11.12,11.12,0,0,1-3.34,1.36c-1.5.36-2.85-.37-4.06-2.21l-.41-.59a1.15,1.15,0,0,1-.3-.7c0-.19.14-.26.34-.3l.36.06a1.44,1.44,0,0,0,.5.28,3.37,3.37,0,0,0,3.46-.47,21.24,21.24,0,0,0,3.12-2.85l1.19-1.55.53-1a1.92,1.92,0,0,0,0-1.67c-.39-.59-1.36-1-2.84-1.12l.11,0c-.86-.14-1.83-.31-2.95-.61a2.31,2.31,0,0,1-1.72-1.26c-.78-2.18.22-4.37,3-6.58A13.76,13.76,0,0,1,58,10.72c1.65-.34,2.67.39,3,2.18l.11.94-.11.08Z"/></svg>