<svg id="42916317-ac58-472f-b009-3d66fe8c93e2" data-name="Capa 1" xmlns="http://www.w3.org/2000/svg" viewBox="0 0 73.22 76.5"><title>LANDING MOVDI ASSETS</title><path d="M54.52,9A.73.73,0,0,1,54,8.68L54,10.45l.39-.62.09-.14,0-.05h0V9Z"/><path d="M49.95,4h0c-.1,0-.3-.15-.51-.24a1.36,1.36,0,0,0-.55-.12c-.18,0-.32.11-.33.37a.3.3,0,0,1-.19.28c-.19.09-.46.12-.52.34h0a.92.92,0,0,0-.55.12,2,2,0,0,0-.52.7.87.87,0,0,1-.53.43,1.31,1.31,0,0,1-.51,0h0l-.55.1-.54.14L44,6.28l-.54.19-.54.19-.43.14-.11,0a1,1,0,0,0-.53.48l-.07.12c-.3,0-.34.11-.37.32a3.69,3.69,0,0,1,.45.08l.56.16.56.19.56.19.56.16a4.08,4.08,0,0,0,.55.1,2.7,2.7,0,0,0,.55,0A2.16,2.16,0,0,0,46,8.37a1.05,1.05,0,0,0,.24.24,2.16,2.16,0,0,0,.56.28l.56.17a5.43,5.43,0,0,1,.56.19,1.45,1.45,0,0,1,.56.38h0v0a17.17,17.17,0,0,0-.44,3,13.75,13.75,0,0,0,.08,2.89,2.17,2.17,0,0,0-.52.25,2,2,0,0,0-.53.5.8.8,0,0,0,0,1.15,1.49,1.49,0,0,0,.56.28l.11,0-.09.46c-.25,1.2-.63,3.06.14,3.88a1.23,1.23,0,0,0,.56.34l.11,0c.72.92.18,2.14,0,3.27a2.62,2.62,0,0,0,0,1.23,1.6,1.6,0,0,0,.29.53c0,.17.19.24.29.37a.4.4,0,0,1,.08.25A6,6,0,0,0,49.56,31a1.54,1.54,0,0,0-.3.6c-.39,1.43.43,3.92-.37,5l0,.05v.32c-1.08.67.34,1.77,0,2.82a3.63,3.63,0,0,0-.38.45,2.55,2.55,0,0,0-.5,1.43l0,.58a26,26,0,0,1,.52,3.49,1.2,1.2,0,0,0-.37.79l0,.69A7,7,0,0,0,48.77,49l.07.15c.8-.23.14-1.77.37-2.53l0-.07a9.26,9.26,0,0,1,.51-1.24,8.25,8.25,0,0,1,.52-.9,7.62,7.62,0,0,1,.53-.7l.2-.22a1.6,1.6,0,0,0,.32-.67c.28-1.12-.14-2.85,0-4V38.5c-.36-1.17-.07-2.32-.3-3a1,1,0,0,0-.06-.15A1,1,0,0,1,51,35.2a8.66,8.66,0,0,1,.52-.76,1.06,1.06,0,0,0,.13-.65v-.32c-.06-.22-.13-.43-.19-.64A4.12,4.12,0,0,1,51.35,31a1.13,1.13,0,0,1,.07-.5,6.41,6.41,0,0,1,.52-.8,1.23,1.23,0,0,0,.12-.9h.34l.05-.07a3.28,3.28,0,0,0-.11-3.24,1.82,1.82,0,0,0-.57-.58,1.24,1.24,0,0,0-.42-.16,1.88,1.88,0,0,1-.14-.23h0a2.1,2.1,0,0,1-.06-1.6c.13-.45.35-.9.5-1.31.23-.59.34-1.12-.05-1.52A1.63,1.63,0,0,0,51,19.7l-.06,0q0-.63,0-1.22L50.5,3.92,50,4Z"/><path d="M53.81,8h0c0-.09,0-.18,0-.26V7.43a4,4,0,0,1-.5-.89h0c-.2-.46-.36-.95-.6-1.37a2.6,2.6,0,0,0-.58-.75,1.93,1.93,0,0,0-.56-.34A2.39,2.39,0,0,0,51,3.95a3.48,3.48,0,0,0-.55,0L51,18.45a13,13,0,0,1,.45-2.75,13.4,13.4,0,0,1,.5-1.46c.16-.39.33-.76.51-1.12s.34-.65.52-1,.34-.59.52-.87l.52-.83L54,8.68A1.07,1.07,0,0,1,53.81,8Z"/><path d="M35.5,55.31a2.25,2.25,0,0,0,.54-1,1.15,1.15,0,0,0,0-.46c.8-.34.14-2,.37-2.82V49.18h.34c.06-.13.14-.3.22-.5.34-.85.74-2.18.15-2.64v.32a.27.27,0,0,1-.23-.13,3.27,3.27,0,0,1-.13-.51,11.93,11.93,0,0,1-.09-6c0-.1.06-.19.09-.27v-.62c.39-2.37-.07-3.58,0-6.29a.73.73,0,0,1,.2-.68.77.77,0,0,0,.16-.88.74.74,0,0,0,.37-.13c.49-.35.28-1.32.51-1.92a.67.67,0,0,1,.55-.46h0c.29,0,.31-.14.33-.32l.22-.16a2.05,2.05,0,0,0,.55-.63,2.47,2.47,0,0,0-.07-2.06c-.18-.49-.42-1-.63-1.54a4.83,4.83,0,0,1-.42-2.51.48.48,0,0,0,.32-.31c.23-.61-.25-1.86.32-2.17l.07,0,.1-.12a1.82,1.82,0,0,0,.24-1.15c-.15,0-.24,0-.29-.06a.4.4,0,0,1-.06-.24v-.32c-.41-2.39-.34-3.4-.71-6A4.19,4.19,0,0,1,39,8.51a5.34,5.34,0,0,1,.54-.82c.17-.22.36-.43.55-.64l.55-.6c.13-.15.25-.3.38-.46h0l.15-.2,0,0h0l0-.05.13-.19-.14,0h-.06a.66.66,0,0,1-.55-.09c-.39-.34,0-1.34-.62-1.51a.89.89,0,0,0-.39,0l-.18,0a1.41,1.41,0,0,1-.59-.52A.93.93,0,0,0,38.26,3a1.32,1.32,0,0,0-.41,0c.17-.41,0-.54-.19-.6s-.5-.07-.58-.25a.36.36,0,0,1,0-.23,1.06,1.06,0,0,1,.06-.19H36.06a.38.38,0,0,1-.12.41,1.23,1.23,0,0,1-.57.15,1.53,1.53,0,0,0-.57.14.34.34,0,0,0-.17.24l-.39.07-.57.1L33.1,3l-.57.12L32,3.25l-.57.14-.57.16-.57.19L29.7,4l-.24.1a1.49,1.49,0,0,0-.33.11.65.65,0,0,0-.18.12h-.37a.28.28,0,0,1,0,.07c-.08.17-.33.19-.56.23s-.44.08-.46.3c.13.18.25.37.37.56h0c-.12-.19-.23-.38-.37-.57a.35.35,0,0,0,0,0L27.38,5a2,2,0,0,1-.69.19,4,4,0,0,1-.58,0A.61.61,0,0,0,26,4.9a1,1,0,0,0-.71-.3,4.9,4.9,0,0,0-.7,0l-.69,0c-.24,0-.48,0-.69,0l-.28,0A1.63,1.63,0,0,0,22.48,4a2,2,0,0,0-.64-.35h-.07a5.57,5.57,0,0,0-.69.16,4,4,0,0,0-.69.27,2.8,2.8,0,0,0-.68.49h0c-.27.07-.34.31-.67.32h0l-.68,0-.69,0L17,5l-.69.1-.69.15-.69.19-.69.22-.69.24-.69.24-.69.22-.58.16h0c0,.11,0,.21,0,.32h2.82c.07.22.28.31.57.34a3.9,3.9,0,0,0,.7,0l.69-.06a3.74,3.74,0,0,1,.7,0c.29,0,.5.13.57.36h.14a.83.83,0,0,1,.71.42c.26.51-.09,1.38.21,2.07a2.92,2.92,0,0,0,.59.9c.24.27.51.49.72.73a1.63,1.63,0,0,1,.45.9,6.46,6.46,0,0,1-.33,2.8c-.2.65-.43,1.3-.63,1.92-.4,1.3-.62,2.52.12,3.56a3.4,3.4,0,0,0,.72.73l.11.08c0,.44,0,.9.37.94a9.13,9.13,0,0,0,.31,1.57,1.57,1.57,0,0,0,.4.64v3.77A5.67,5.67,0,0,1,22,29.69a5.87,5.87,0,0,1,.11,3.25,2.27,2.27,0,0,1-.26.53,1.92,1.92,0,0,1-.38,1.05,3,3,0,0,0-.65,1.24,1.81,1.81,0,0,0,0,.23,1.11,1.11,0,0,0,0,.14,2.73,2.73,0,0,0,.73.93,1.35,1.35,0,0,1,.29,1.44v.32c.4,1.29-.22,2.67.59,3.64a2.08,2.08,0,0,0,.49.42v.32a17.21,17.21,0,0,1,.29,1.73,15.67,15.67,0,0,0,.84,4.19,3.71,3.71,0,0,0,.63,1h.1c.63-.06.07-1.15.27-1.58h0a.58.58,0,0,1-.34-.35,2.78,2.78,0,0,1,0-1.18,4,4,0,0,0,0-1.29V44.15c0-1.29.62-2,.37-3.45.21-1.86-.64-2.8-.37-4.71h.37c-.09-1,.62-1.33.34-2.53l.19-.15a2.2,2.2,0,0,0,.66-1.07,3.1,3.1,0,0,0-.06-1.69,4.25,4.25,0,0,0-.74-1.42l0-.05v-2.2c0-.44,0-.87.37-.94a1.07,1.07,0,0,1,.23-.69.84.84,0,0,0,.11-.55,4.91,4.91,0,0,0-.15-.57c-.18-.57-.46-1.23-.76-2s-.54-1.36-.77-2.1A9.54,9.54,0,0,1,24,16.85a1.34,1.34,0,0,1,.3-1.21,4.09,4.09,0,0,0,.67-.82,1.21,1.21,0,0,0,.11-.47c0-.21,0-.44,0-.64h-.37V10.25l.09,0a2.28,2.28,0,0,0,.68-.48.94.94,0,0,1,.69-.17l.31.05c.23,0,.44,0,.37-.32v0c.51-1.39-.55-2.61.59-3.08l.11,0c0-.09,0-.21,0-.3H29.3c0,.24.21.33.48.35a3.59,3.59,0,0,0,.57,0l.57-.05a1.59,1.59,0,0,1,.52,0l.06.08c.23.33.3.78.61,1a.81.81,0,0,0,.41.16h.34a3.66,3.66,0,0,1-.1,2.33c-.29.92-.64,1.61.07,2l0,0a1.06,1.06,0,0,1,.56.36,1.47,1.47,0,0,1,0,1.24c-.2.78-.55,1.63.07,2.14l0,0a5.26,5.26,0,0,1,0,1.4,5,5,0,0,0,.08,2.16.9.9,0,0,0,.59.52h0l0,.1a12.35,12.35,0,0,0,.22,6.32c.19.87.4,1.74.52,2.67-.23,0-.41,0-.37.32l0,.15c-.15.53-.33,1-.52,1.54s-.35.91-.53,1.35-.38,1-.52,1.53a5.42,5.42,0,0,0,.13,3.72,5.83,5.83,0,0,0,.42.8.88.88,0,0,0-.37.64l0,.55a4.52,4.52,0,0,0,.63,1.54l.07.1a6.76,6.76,0,0,1,0,.94,3.66,3.66,0,0,0,0,1.89c0,.32,0,.64,0,.94a9.24,9.24,0,0,0,.23,4.62,6.16,6.16,0,0,0,.61,1.18,9.43,9.43,0,0,0,.58.79l0,.11a2.16,2.16,0,0,1,0,.7c-.1.7-.53,1.09-.39,2h-.11c-.61.07-.06,1.15-.26,1.58,0,.08.16.07.31,0A2.11,2.11,0,0,0,35.5,55.31ZM28,5.61l0,0,0,0Z"/><path d="M21.42,65.43l.73-.36.45-.25.21-.14a1.41,1.41,0,0,0,.35-.42l.11-.15h0a1.51,1.51,0,0,0,.22-.61,2.35,2.35,0,0,0,0-.27c.08-.78.16-1.56.24-2.34a1.16,1.16,0,0,1,.23-.53.54.54,0,0,0-.08-.75l-.17-.14-.17-.11-.32-.2L23,59l-.1-.06a.93.93,0,0,0-1.08,0l-.15,0a2.27,2.27,0,0,1-.55,0l-1-.1c0-.54.1-1.08.14-1.62a.9.9,0,0,0-.08-.43.61.61,0,0,0-.34-.29.78.78,0,0,0-.39,0l-.25.07-.12,0a.43.43,0,0,0-.59,0,.42.42,0,0,0-.09.17.43.43,0,0,0-.16.24.68.68,0,0,0,.09.51,1.7,1.7,0,0,1,.18.41,1.17,1.17,0,0,1,0,.31l0,.56-.86,0-.39,0-.22,0a.31.31,0,0,1-.12,0l-.11,0-.24-.17a.56.56,0,0,0-.44-.15.91.91,0,0,0-.44.19,5.48,5.48,0,0,1-.5.33l-.3.16-.13.06a1.06,1.06,0,0,0-.22.13.54.54,0,0,0-.17.24.42.42,0,0,0,0,.68.54.54,0,0,1,.14.39s0,.06,0,.09,0,.08,0,.15,0,.33,0,.5a5.18,5.18,0,0,0,.93,2.71,5.92,5.92,0,0,0,.74.87q.22.22.44.4l.23.18.2.14.29.19.12.07.13.1c.11.1.12.17.23.27a1,1,0,0,0,.67.21v.74a.47.47,0,0,0-.2.26.46.46,0,0,0-.18.34.75.75,0,0,0,.23.57.72.72,0,0,0,.39.18h.43a1.17,1.17,0,0,0,.3,0,.75.75,0,0,0,.33-.18A.64.64,0,0,0,20,68.2a.71.71,0,0,0,.21-.57,1.42,1.42,0,0,0,0-.2l0-.11a5.46,5.46,0,0,1-.14-.66,2.91,2.91,0,0,1,0-.41,1.56,1.56,0,0,0,.3-.3ZM18.32,64a4.81,4.81,0,0,1-.34-.35c-.11-.12-.21-.25-.31-.39s-.2-.29-.29-.45a5.88,5.88,0,0,1-.46-1,4.69,4.69,0,0,1-.14-.46A3.71,3.71,0,0,1,16.7,61a1.8,1.8,0,0,1,0-.61.86.86,0,0,0,.79,0,2.75,2.75,0,0,0,.38-.23A.69.69,0,0,1,18,60l.11,0h.29c0,1-.09,1.91-.1,2.58S18.3,63.61,18.32,64ZM20,64.6c0-.48,0-1,0-1.28s0-.49,0-.68,0-.39,0-.59,0-.39,0-.57,0-.32,0-.55,0-.52,0-.82l1.23.15a.53.53,0,0,1,.26.13.21.21,0,0,1,0,.07l0,.09c0,.11.06.32.08.49a5.72,5.72,0,0,1,0,.77,7.11,7.11,0,0,1-.08.89c0,.11,0,.22-.05.33l-.07.33-.05.22,0,.12-.28.23-.36.25A5.27,5.27,0,0,1,20,64.6Z"/><path d="M31.09,64.26l.37.32.14.14a.27.27,0,0,1,.07.11v.05q0,.38,0,.75l0,.23V66a.49.49,0,0,0,0,.16.52.52,0,0,0,.18.3.45.45,0,0,0,.62,0c.2-.23.4-.46.57-.69l.07-.11.09-.11a.88.88,0,0,0,.16-.64,1.4,1.4,0,0,0-.06-.28,2.91,2.91,0,0,0-.16-.37q0-3.06,0-6.12a.72.72,0,0,0,.22-.24l0-.06a.4.4,0,0,0,.1-.57l-.09-.08-.14-.08a3.41,3.41,0,0,1-.67-.5.81.81,0,0,0-.39-.25.81.81,0,0,0-.77,1,.62.62,0,0,0,.17.21.28.28,0,0,1,.05.1,1.12,1.12,0,0,1,0,.31V62l-4.55-3.67a.43.43,0,0,0-.54,0l-.14.11a3.27,3.27,0,0,1-.6.36l-.12.05a.76.76,0,0,0-.26.14.44.44,0,0,0-.15.22.38.38,0,0,0-.07.58c.06.08.15.09.2.18a.88.88,0,0,1,.09.33c0,1.33,0,2.66,0,4a1,1,0,0,1,0,.27,1,1,0,0,1-.07.14,1.12,1.12,0,0,0-.15.59.77.77,0,0,0,.1.33,1.59,1.59,0,0,0,.18.24l.09.1.14.15.1.11c.07.09.07.19.19.29a.47.47,0,0,0,.58,0,.62.62,0,0,0,.22-.28.69.69,0,0,0,.21-.55L27,61.06l1.36,1,1.13.87.87.7Z"/><path d="M70.85,65.94a.65.65,0,0,0-.15-.1,2.37,2.37,0,0,1-.41-.19,1.91,1.91,0,0,1-.32-.24l-.16-.16-.36-.38-.37-.41-.32-.36-.26-.31c-.15-.18-.25-.33-.37-.5s-.22-.33-.32-.5l-.11-.2,0-.06v0l0-.06,0-.17a.69.69,0,0,0-.06-.17.9.9,0,0,0-.36-.36l.21-.08.26-.08a.76.76,0,0,0,.47-.24.59.59,0,0,0,.1-.17.6.6,0,0,0,.18-.31,2.28,2.28,0,0,1,.09-.39,1.1,1.1,0,0,1,.16-.32,2.6,2.6,0,0,0,.16-.23h0a.81.81,0,0,0,.17-.29A.62.62,0,0,0,68.8,59l-.52-.5a.75.75,0,0,0-.87-.14,1.07,1.07,0,0,1-.53.15h-.15l-.45,0-.56,0h-.26a2.25,2.25,0,0,0-1.1.3.46.46,0,0,0-.14-.38.71.71,0,0,0-.47-.17.82.82,0,0,0-.43.11l-.07,0-.11.08-.14.1-.19.11-.29.16-.27.14-.11,0-.19.06a.52.52,0,0,0-.27.15,2.76,2.76,0,0,0-.28.59.54.54,0,0,0,.23.4.59.59,0,0,0,.28.11.35.35,0,0,1,0,.15c0,1.22,0,2.44,0,3.66a.6.6,0,0,1-.07.23,1.12,1.12,0,0,0-.2.62.72.72,0,0,0,.23.51.89.89,0,0,0,.23.16,1.16,1.16,0,0,1,.27.18l.1.09a2.53,2.53,0,0,1,.32.42.64.64,0,0,0,.76.16.58.58,0,0,0,.25-.24l0-.06a.55.55,0,0,0,.19-.42q0-1.62,0-3.25a1.77,1.77,0,0,1,.63-.25.59.59,0,0,1,.24,0,.47.47,0,0,1,.19.09l.07.06.1.1c.09.09.21.22.3.33l.15.19.16.24c.12.19.25.4.37.61l.21.37.34.63.49.89.28.48.19.29.16.23a4.11,4.11,0,0,0,.44.52l.15.14a1.16,1.16,0,0,0,.28.2.83.83,0,0,0,.32.09.67.67,0,0,0,.46-.15,2.26,2.26,0,0,1,.29-.22,1.69,1.69,0,0,1,.49-.2l.14,0,.11,0a.44.44,0,0,0,.22-.14.45.45,0,0,0,.09-.16.45.45,0,0,0,.17-.28A.53.53,0,0,0,70.85,65.94Zm-4.14-6a2.15,2.15,0,0,1-.09.35l0,.07a.74.74,0,0,1-.31.13l-.24.06-.64.17c-.51.14-1.07.32-1.6.52a1.55,1.55,0,0,1,.19-.85l.23-.25a2,2,0,0,1,.44-.34.71.71,0,0,0,.83.07,1.73,1.73,0,0,1,.72-.18h.38a.28.28,0,0,1,.14,0A.38.38,0,0,1,66.71,59.89Z"/><path d="M52.38,59.55a2,2,0,0,0-.05-.32,1.29,1.29,0,0,0-.35-.66.81.81,0,0,0-.81-.18l-.2.07a2.47,2.47,0,0,1-.77.13l-5.07,0a1.17,1.17,0,0,1-.53-.14.9.9,0,0,0-.85.12,1.07,1.07,0,0,0-.29.28L43.4,59a.94.94,0,0,0-.2.32c-.12.32-.24.65-.35,1a.52.52,0,0,0,.14.55.61.61,0,0,0,.44.12.72.72,0,0,0,.48-.21.7.7,0,0,0,.14-.21.71.71,0,0,0,.13-.17s0-.11.08-.17a1,1,0,0,1,.45-.26l.27-.06.19,0h1.28a.33.33,0,0,1,0,.11s0,.07,0,.12,0,.11,0,.25,0,.36,0,.63,0,.56,0,.87,0,.6,0,.87,0,.5,0,.69,0,.33,0,.44,0,.19,0,.25,0,.1,0,.15a1.6,1.6,0,0,1-.11.36.81.81,0,0,0,0,.86.6.6,0,0,0,.18.18l.14.07.13.05.26.11.22.1a.77.77,0,0,1,.15.09,1.93,1.93,0,0,1,.27.28.54.54,0,0,0,.63,0,.55.55,0,0,0,.22-.28l0,0a.53.53,0,0,0,.14-.27,4,4,0,0,0,0-.43c0-.39,0-1.15,0-1.76s0-1.08,0-1.44,0-.62,0-.87c0-.49.05-1,.1-1.42l.12,0,.56,0h.48l.22,0a2.26,2.26,0,0,1,.43.08.93.93,0,0,1,.44.25,1.83,1.83,0,0,1,.24.38.55.55,0,0,0,.31.19.66.66,0,0,0,.63-.16,23.31,23.31,0,0,0,.28-.49.56.56,0,0,0,0-.08s0-.11,0-.19S52.39,59.63,52.38,59.55Z"/><path d="M12.91,66.37l0-.07,0-.08a2.58,2.58,0,0,1-.09-.32c0-.06,0-.12,0-.18s0-.14,0-.23,0-.46,0-.7l0-4.52a.63.63,0,0,0,.2-.14.41.41,0,0,0,.1-.17.43.43,0,0,0,.17-.31.5.5,0,0,0-.23-.43l-.18-.11L12.52,59a3.43,3.43,0,0,1-.78-.49l-.12-.09a.89.89,0,0,0-.2-.14.74.74,0,0,0-.8.06.58.58,0,0,0-.18.25.58.58,0,0,0-.19.4,11.33,11.33,0,0,0-.88.88c-.3.33-.6.71-.94,1.15s-.69,1-1,1.49l-.64-.89-.57-.77-.52-.67-.52-.64L4.66,59l-.3-.34-.13-.13A.58.58,0,0,0,4,58.39a.66.66,0,0,0-.51.07l-.88.46a.55.55,0,0,0-.28.31.42.42,0,0,0-.08.62c.07.1.18.13.26.27a.72.72,0,0,1,.07.14,1.85,1.85,0,0,1,.07.22c0,.09,0,.19.05.31s0,.13,0,.21,0,.15,0,.23,0,.18,0,.3,0,.28,0,.47,0,.41,0,.63,0,.44,0,.62,0,.32,0,.42,0,.18,0,.24a2,2,0,0,1-.07.36c-.05.22-.22.45-.27.66a.8.8,0,0,0,.2.83c.08.08.15.12.23.21a2.4,2.4,0,0,1,.32.47.49.49,0,0,0,.34.2.54.54,0,0,0,.48-.21A.69.69,0,0,0,4,66.25a.68.68,0,0,0,.21-.5V61.89l2.23,3a.81.81,0,0,0,.32.28.64.64,0,0,0,.61-.1l.07,0,.37-.11.12,0a.8.8,0,0,0,.26-.12.58.58,0,0,0,.16-.17.43.43,0,0,0,0-.09.47.47,0,0,0,.15-.22.44.44,0,0,0-.17-.49.68.68,0,0,1-.15-.12c-.06-.1,0-.18,0-.29l0,0c.45-.65.9-1.3,1.28-1.79s.67-.82,1-1.14q0,3.68,0,7.37a.56.56,0,0,0,.22.43.52.52,0,0,0,.66,0c.06,0,.16-.17.24-.24l.14-.1.56-.33a1,1,0,0,0,.32-.29l.06-.11A.75.75,0,0,0,12.91,66.37Z"/><path d="M42.22,61.15a5.17,5.17,0,0,1-.39-.38.88.88,0,0,0-1-.17l-.31.13-.13.05-.09,0H38.46l-.15,0a.36.36,0,0,1-.26,0l0,0L38,60.69c-.05-.09-.13-.21-.19-.32l-.09-.17.3,0,.16,0,.22,0,.34,0,.35,0a4.77,4.77,0,0,0,.53,0h.25l.24,0,.3-.05.31-.08.18,0a.91.91,0,0,1,.36,0,1.21,1.21,0,0,0,.66.07.51.51,0,0,0,.34-.26.43.43,0,0,1,.08-.12.6.6,0,0,0,.16-.39.42.42,0,0,0-.21-.34A1.15,1.15,0,0,0,42,59a2.57,2.57,0,0,1-.6-.23l-.48-.29-.16-.11a1.14,1.14,0,0,0-.42-.23,1.38,1.38,0,0,0-1,.2l-.23.1-.13,0a5.31,5.31,0,0,1-.58.15l-.56.08-.25,0-.32.09-.12,0-.15.05a.32.32,0,0,1-.15,0c-.06,0-.06,0-.11,0A.64.64,0,0,0,36,59a3.16,3.16,0,0,1-.26.21.83.83,0,0,1-.24.13.61.61,0,0,0-.27.15A29.52,29.52,0,0,0,35,60a.75.75,0,0,0,.15.44l.07.1.15.22.39.61.22.36.28.47.14.23a.53.53,0,0,0,.1.11.74.74,0,0,0,1-.12,1,1,0,0,1,.62-.2l1.49,0a.68.68,0,0,1,.25,0,.12.12,0,0,1,.08.1.58.58,0,0,1,0,.08l0,.11-.08.29a13.88,13.88,0,0,1-1,2.6l-.15.28-.12.22a.85.85,0,0,1-.89.16L37.47,66l-.13-.09-.41-.29-.47-.32-.33-.22L36,65a.63.63,0,0,0-.73.16.69.69,0,0,0-.15.22.57.57,0,0,0-.14.7.48.48,0,0,0,.1.12l.08.06.17.13.38.31.46.38.26.22.11.1a.34.34,0,0,1,.08.1.51.51,0,0,0,.18.35.72.72,0,0,0,.26.13,2.52,2.52,0,0,0,.51.07,2.6,2.6,0,0,0,1.36-.34,4.74,4.74,0,0,0,.68-.47c.15-.13.32-.28.48-.45l.24-.26.24-.29.25-.33c.08-.11.17-.23.35-.5s.45-.7.73-1.22a19,19,0,0,0,.83-1.77.9.9,0,0,0,.22-.56.57.57,0,0,0-.25-.46C42.55,61.29,42.4,61.29,42.22,61.15Z"/><path d="M60.29,63.72a.45.45,0,0,0-.17.24.46.46,0,0,0-.16.24,1,1,0,0,1-.08.23,1.06,1.06,0,0,1-.36.24l-.13,0-.15,0-.21,0c-.19,0-.46.07-.7.09a8.35,8.35,0,0,1-1.78,0l-.29,0c-.11,0-.1,0-.14,0a.16.16,0,0,1-.06-.06.2.2,0,0,1,0-.06s0-.09,0-.18-.06-.48-.07-.72,0-.46,0-.68,0-.22,0-.3,0-.14,0-.2l.62,0,.86,0a.73.73,0,0,0,.14.41.54.54,0,0,0,.52.15.52.52,0,0,0,.3-.17,2,2,0,0,1,.24-.39s0-.08,0-.14.07-.29.11-.44l0-.15,0-.13a.61.61,0,0,0,0-.17.46.46,0,0,0-.18-.41A.74.74,0,0,0,58,61a.55.55,0,0,0-.22.21.28.28,0,0,1-.15.09H57.5l-.53,0h-.89l-.09,0a.13.13,0,0,1-.07-.12s0,0,0-.07,0-.07,0-.13,0-.15,0-.23,0-.17,0-.23a2.24,2.24,0,0,1,0-.26A2,2,0,0,1,56,60l.09,0,.18,0,.29,0,.32,0h.36l.4,0,.33,0,.24,0a1,1,0,0,1,.27.08,1,1,0,0,1,.31.22l.09.1.22.34.14.23a.57.57,0,0,0,.08.11.65.65,0,0,0,1-.07.51.51,0,0,0,.07-.13.5.5,0,0,0,.18-.34.38.38,0,0,0,0-.08s0-.1,0-.17a5,5,0,0,0-.15-.69l-.07-.22-.06-.16a1,1,0,0,0-.16-.27,1.16,1.16,0,0,0-.63-.38.77.77,0,0,0-.65.1.57.57,0,0,1-.23,0h-.11l-.28,0-.38,0h-.42c-.3,0-.66,0-1,.07a.67.67,0,0,0-.23-.39.68.68,0,0,0-.78,0l-.07,0-.14.1-.22.15-.2.13-.15.09a1.23,1.23,0,0,1-.27.12l-.14,0a.85.85,0,0,0-.37,0,.64.64,0,0,0-.25.19.56.56,0,0,0-.09.16l0,0a.53.53,0,0,0,0,.69.54.54,0,0,0,.37.21h.06c0,.14,0,.27,0,.5s0,.55,0,.88,0,.65,0,1,0,.65,0,.9,0,.43,0,.55,0,.19,0,.23a.38.38,0,0,1,0,.12l0,.08,0,.06-.08.11a.86.86,0,0,0-.18.46.6.6,0,0,0,.19.47.89.89,0,0,0,.39.21,2.38,2.38,0,0,1,.57.22l.12.07a1.38,1.38,0,0,1,.28.22,1,1,0,0,0,.13.13.58.58,0,0,0,.58,0,.62.62,0,0,0,.26-.25h.17l.49,0,.61,0h.6l1-.06.42,0,.21,0,0,0a1,1,0,0,0,.22.11.79.79,0,0,0,.84-.27c.11-.11.15-.22.25-.33a1.65,1.65,0,0,0,.3-1,1.23,1.23,0,0,1,0-.24v-.1a1.7,1.7,0,0,0,0-.2.42.42,0,0,0-.18-.34A.57.57,0,0,0,60.29,63.72Z"/><polygon points="13.67 73.23 15.37 73.23 15.37 72.66 13.67 72.66 13.67 71.89 16.59 71.89 16.59 71.31 12.81 71.31 12.81 74.72 16.62 74.72 16.62 74.08 13.67 74.08 13.67 73.23"/><path d="M50.84,71.68a.56.56,0,0,0-.06-.12l-.07-.08-.09-.06-.13-.05-.21,0-.29,0H47.44l-.3,0-.21,0-.13.05a.39.39,0,0,0-.16.15.6.6,0,0,0-.06.12,1,1,0,0,0,0,.18,1.82,1.82,0,0,0,0,.25v1.79a1.86,1.86,0,0,0,0,.25.9.9,0,0,0,0,.18.57.57,0,0,0,.06.12l.07.08.09.06.13.05.21,0,.3,0H50l.3,0,.21,0,.13-.05a.39.39,0,0,0,.16-.14.58.58,0,0,0,.06-.12.93.93,0,0,0,0-.18,1.82,1.82,0,0,0,0-.25V72.74H48.66v.58h1.4v.76H47.39V71.92h2.68v.38l.83-.14v-.08a1.6,1.6,0,0,0,0-.23A.85.85,0,0,0,50.84,71.68Z"/><polygon points="57.04 72.62 55.77 71.31 54.63 71.31 56.54 73.2 56.54 74.72 57.41 74.72 57.41 73.18 59.32 71.31 58.31 71.31 57.04 72.62"/><path d="M41.22,73.43l.3,0,.21-.06.14-.08a.49.49,0,0,0,.1-.11A.55.55,0,0,0,42,73a.93.93,0,0,0,0-.22V72a1,1,0,0,0,0-.22.55.55,0,0,0-.07-.16.48.48,0,0,0-.1-.11l-.14-.08-.21-.06-.3,0H38.06v3.41h.84V73.43h.81l1.49,1.29h1.23l-1.7-1.29Zm-2.31-.58V71.9H41l.1,0a.18.18,0,0,1,.11.1.33.33,0,0,1,0,.13v.41a.24.24,0,0,1-.08.21l-.05,0a.81.81,0,0,1-.25,0Z"/><polygon points="30.78 73.23 32.48 73.23 32.48 72.66 30.78 72.66 30.78 71.89 33.7 71.89 33.7 71.31 29.92 71.31 29.92 74.72 33.73 74.72 33.73 74.08 30.78 74.08 30.78 73.23"/><path d="M24.52,73.1s0,.06,0,.1v.19l0,.3a3,3,0,0,0-.42-.37l-2.6-2h-.59v3.41h.77c0-.64,0-1.28,0-1.92,0-.07,0-.17,0-.23l0-.23a2.56,2.56,0,0,0,.24.22l2.77,2.16h.59V71.31h-.77Z"/></svg>