<svg id="67370459-a765-461d-b85f-1dbc39e0b857" data-name="Capa 1" xmlns="http://www.w3.org/2000/svg" viewBox="0 0 107.45 40.71"><defs><style>.ce201f62-e9e1-432d-85cd-ca6b23baf512{fill:none;}</style></defs><title>LANDING MOVDI ASSETS</title><rect x="-0.06" y="40.49" width="107.52"/><polygon points="107.45 0.22 107.45 40.49 107.45 40.49 -0.07 40.49 -0.07 40.71 107.79 40.71 107.79 0.22 107.45 0.22"/><polygon class="ce201f62-e9e1-432d-85cd-ca6b23baf512" points="107.45 0.22 107.45 0 -0.26 0 -0.26 40.49 -0.07 40.49 -0.07 0.22 107.45 0.22"/><path d="M79.28,20.3c-1.2,0-1.62.66-1.62,1.48v3c0,.82.42,1.48,1.62,1.48s1.63-.66,1.63-1.48v-3C80.91,21,80.49,20.3,79.28,20.3Z"/><path d="M22.84,25.69a.86.86,0,0,0,1,1,3.59,3.59,0,0,0,1.68-.48V24.9H23.92C23.17,24.9,22.84,25,22.84,25.69Z"/><path d="M56.71,20.3a4,4,0,0,0-1.77.48v5.46a11.25,11.25,0,0,0,1.28,0c1.74,0,2-.79,2-1.9V21.78C58.19,21,57.92,20.3,56.71,20.3Z"/><path d="M67.93,20.3c-1.21,0-1.62.66-1.62,1.48v3c0,.82.42,1.48,1.62,1.48s1.62-.66,1.62-1.48v-3C69.55,21,69.13,20.3,67.93,20.3Z"/><path d="M45.18,20c-1.2,0-1.48.66-1.48,1.48v.46h3v-.46C46.66,20.67,46.38,20,45.18,20Z"/><path d="M98.14,27.19h0a.93.93,0,0,0,0,1.85.93.93,0,0,0,0-1.85Zm.27,1.56a.89.89,0,0,1-.08-.31.23.23,0,0,0-.26-.21h-.14v.53h-.19V27.53a2.18,2.18,0,0,1,.34,0,.64.64,0,0,1,.38.09.29.29,0,0,1,.11.25.3.3,0,0,1-.24.3h0c.11,0,.18.12.2.3a1,1,0,0,0,.08.3Z"/><path d="M107.45.22H-.06V40.49H107.45ZM16.93,29H13.38V20.47H11.61v-3h1.77V15.74c0-2.41,1-3.84,3.84-3.84h2.37v3H18.11c-1.11,0-1.18.41-1.18,1.18v1.48h2.68l-.31,3H16.93Zm12.12,0h-3L26,28.31a6.79,6.79,0,0,1-3.35.87,3.14,3.14,0,0,1-3.32-3.45c0-2.36,1.35-3.2,3.76-3.2H25.5V22c0-1.21-.14-1.56-2-1.56h-3l.3-3h3.31c4.07,0,5,1.28,5,4.54ZM39.1,20.68a17,17,0,0,0-3.25-.38c-1.59,0-2.07.35-2.07,1.7v2.55c0,1.35.48,1.7,2.07,1.7a16.88,16.88,0,0,0,3.25-.39v2.88a15.68,15.68,0,0,1-3.55.46c-3.81,0-5.32-2-5.32-4.89V22.24c0-2.89,1.51-4.9,5.32-4.9a15.69,15.69,0,0,1,3.55.46Zm11.1,3.63H43.7v.24c0,1.35.48,1.7,2.07,1.7a20.69,20.69,0,0,0,4.14-.39v2.88a18.63,18.63,0,0,1-4.43.46c-3.81,0-5.32-2-5.32-4.89V21.94c0-2.53,1.12-4.6,5-4.6s5,2,5,4.6Zm11.53.05c0,2.79-.8,4.83-5.64,4.83a26.81,26.81,0,0,1-4.7-.45v-16l3.55-.59v5.58a8.06,8.06,0,0,1,2.66-.43c3.55,0,4.14,1.59,4.14,4.14Zm11.37.06c0,2.41-1,4.75-5.16,4.75s-5.18-2.34-5.18-4.75V22.1c0-2.41,1-4.75,5.18-4.75s5.16,2.34,5.16,4.75Zm11.36,0c0,2.41-1,4.75-5.16,4.75s-5.18-2.34-5.18-4.75V22.1c0-2.41,1-4.75,5.18-4.75s5.16,2.34,5.16,4.75ZM96.12,29H92.27L89,23.62V29H85.48V12.78L89,12.19V22.66l3.25-5.15h3.84l-3.55,5.62Zm2,.17a1.1,1.1,0,0,1,0-2.19h0a1.1,1.1,0,0,1,0,2.19Z"/><path d="M98.07,27.65h-.14v.41h.14c.16,0,.3-.06.3-.21S98.29,27.65,98.07,27.65Z"/></svg>