<svg id="Capa_1" data-name="Capa 1" xmlns="http://www.w3.org/2000/svg" viewBox="0 0 126.97 35.93"><defs><style>.cls-1{fill-rule:evenodd;}</style></defs><path class="cls-1" d="M70,34.53A1.68,1.68,0,0,1,68.71,34c-1.73-1.75,1.36-5.53,2.64-6.8a10.13,10.13,0,0,0,.69-.78,1.66,1.66,0,0,1,.81-.67,31.58,31.58,0,0,1-.32,5.48c-.23,1.41-.81,3.26-2.53,3.26M98.86,16.21a9.48,9.48,0,0,1-1.41,5.12,1.92,1.92,0,0,1-2.14.85C92.76,21.06,93,10.53,96.54,10.53c2.47,0,2.32,4,2.32,5.68m-31.7.95c0-7.88,5.27-8.52,5.27-3.16,0,2.38.13,3.47-.65,5.78-1.26,3.77-4.62,3.64-4.62-2.62M52.1,17a13.9,13.9,0,0,1,.59-4.15c.35-1,1.08-2.27,2.36-2.27,3.42,0,2.81,10,.11,11.47C52.69,23.4,52.1,19.2,52.1,17M44.63,5.16c0-.86.11-1.33.11-2.1L44.84,1A5.71,5.71,0,0,0,41.57,0c-.25.38-.32.28-.4.86l-.12,4.19L37.47,5a3.16,3.16,0,0,0-.53,2.42c1.54.36,3.9-.28,3.9.42V15c0,1.37-1.75,4.9-2.74,5.16,0-.54.1-.48.1-.95a5.08,5.08,0,0,0-2.09-3.7,24.77,24.77,0,0,0-3.28-2.4c.09-.34.4-.58.61-.87,2.63-3.67.24-5.08-2.22-3.7a3.43,3.43,0,0,0-.91,5.3c-.18.35-.36.71-.53,1.06l-1.68,3c-.46.8-1.7,3.36-2.74,3.36s-.59-6.59-.53-7.68c0-.53.1-2.87.05-3.11a3.28,3.28,0,0,0-4.11-1.8c-2,.84-3.17,4-3.85,5.84-.19.54-.51,1.91-.93,2.23l.1-7.27c0-.64-2.18-1.31-2.95-.95-.31.65-.06,7.62-.1,9.06,0,.52-.1.53-.11,1.05v2.32c0,.51.09.48.11.94a3.1,3.1,0,0,0,.39,1.93,1.71,1.71,0,0,0,1.61.6c1.16,0,1.14-.34,1.31-1.43a30.25,30.25,0,0,1,1.55-5.82c.45-1.27,2.35-5.77,3.67-6.12,0,2.64-.21,4.92-.21,7.58,0,2-.08,5.79,2.31,5.79,2.8,0,5-4.53,6.24-6.61l1.56-2.65a17.68,17.68,0,0,1,2.23,2A4.69,4.69,0,0,1,35,19.8c0,1.13-.74,2.37-1.93,2.15-.89-.16-2.23-1.48-2.8-1.31A2.76,2.76,0,0,0,29,22.74c0,1.5,5,2.16,7.45.92a6.79,6.79,0,0,0,2.23-1.78c.66-.82,1.93-2.44,2-3.46.39.29.21,2.26,1.16,3.9,2.46,4.2,6.34,1,7-2.11A17.37,17.37,0,0,0,50.45,23a3.74,3.74,0,0,0,2.92,1.29,5.08,5.08,0,0,0,4.22-2.62c.21-.3.12-.33.41-.54a3.46,3.46,0,0,0,3.37,3.16c1.23,0,3.06-1.31,3.16-2.53.55.15.49.93,1.49,1.68,3.52,2.61,6.28-1.34,6.62-1.57,0,.35,0,.7,0,1.06s.15.32-.19.65l-3.27,3.05c-1.82,1.82-3.29,3.05-3.29,5.87,0,4,7.08,5.16,9-.22.76-2.08.75-5,.75-7.36s-.38-1.65.84-3.26a34.73,34.73,0,0,0,3.62-5.76,16.61,16.61,0,0,0,1.54-3.82c2.72,0,2.84-.65,2.49,1.11-.09.45-.16.78-.23,1.25a25.7,25.7,0,0,0-.26,4c0,5.06,4.47,8,7,4.26a3,3,0,0,1,.58-.78,3.54,3.54,0,0,0,1.3,1.66c2,1.48,4.78.49,6.12-1.3a9.29,9.29,0,0,1,.8-1.1c.71,3.05,3.65,4.14,5.45,2.3L106,21.79c0,.67,0,1.72.37,2.05s3.11.91,3.38-.08c.46-1.72-.33-4.21,1.26-8.74l1.2-2.7h.31l.2,3.17c.2,1.83,0,7.57,2.44,7.57.78,0,1.67.14,1.69-.94a24.78,24.78,0,0,1,1.9-8.84,2.69,2.69,0,0,1,.62-1.17,52.84,52.84,0,0,0,.3,7.91c.71,4.32,4.6,5.84,6.44,2.61a8.22,8.22,0,0,0,.84-3.36c0-1.09-.88-1.17-1.18.08-.22.89-.47,2.87-1.66,2.87-1.84,0-1.79-4.57-1.79-5.9,0-1.12,0-4.7.15-5.65a1.58,1.58,0,0,0-1-1.69c-2.26-1.19-2.84-.86-3.61,1.07L117,12.36c-.25.89-.47,1.56-.7,2.46l-.5,2.55a2.93,2.93,0,0,1-.22-1.36l-.21-2.85c0-1.21.24-3.21-.54-4a3.37,3.37,0,0,0-2.19-.86c-.81,0-1.19.61-1.47,1.26l-1.33,3.62c-.13.37-.2.58-.32,1a2.09,2.09,0,0,1-.36.8V9.06L108,8.55c-1-.24-1.77-.68-2,.65a33.93,33.93,0,0,0,0,4.28c0,2.81.32,5.26-1,7.65-.87,1.59-2.34,1.79-2.79-.31-.55-2.58-.13-9-.13-11.55a4.27,4.27,0,0,0-2-.69c-1-.17-1.3.21-1.3,1.21a6.87,6.87,0,0,1-.61-.66c-3.19-3.22-7.92.63-7.92,7.19V17.9c0,.93.21,1.42.21,2.31,0,1.06-1.36,2.82-2.54,1.91-.73-.57-1.15-2.45-1.15-3.8a22.37,22.37,0,0,1,.43-4.2c.37-1.86,1.67-5-1.78-4.52a27.22,27.22,0,0,0-3.18.61c0-.77.21-1.39-.14-2-.63-1-2.33-.63-3,.09a2.51,2.51,0,0,0-.66,1.56c0,1.49.22,1.22,1,2.31a19.69,19.69,0,0,1-1.61,4.39c-.26.51-1.66,3.39-2.29,3.61,0-2.85.11-5.44.11-8.21,0-2.27.36-2.75-.75-3.14a5.25,5.25,0,0,0-1.74-.3c-.65.12-.77.52-.77,1.23a6.87,6.87,0,0,1-.61-.66c-2.28-2.3-5.28-.86-6.59,1.78a14.55,14.55,0,0,0-1.33,7.2,6.2,6.2,0,0,1-.09,2.54,3.45,3.45,0,0,1-.51,1,1.61,1.61,0,0,1-.78.7c-1.65.58-2-2.24-2-3.79s-.15-4.33,0-5.77a23.78,23.78,0,0,0,.1-2.87c0-1-.88-1.12-1.69-1.26-1.14-.2-1.58-.14-1.58,1.16a8.36,8.36,0,0,1-.6-.66,5.65,5.65,0,0,0-.71-.56c-3.1-2.05-6.29,1.27-7,5.54A34.18,34.18,0,0,1,48.33,19c-.35,1-1.46,2.93-2.65,2.93-2,0-1.26-9.38-1.26-10.53s.11-1.61.1-2.63c0-1.53,0-1.16,1.58-1.16,1.83,0,2.95.42,3.33-.78a1.75,1.75,0,0,0,.06-1.12c-.27-.41-4.08-.34-4.86-.52M2.93,9.58C2.93,7,4.79,2.48,6.4,2.11a8.55,8.55,0,0,1,0,1.5c-.26,1.84.24,15.67-.11,18.21-.08.54,0,1.07-.07,1.62a12.14,12.14,0,0,1-.61,2.76c-.76,2.47,2.6.35,3.58-2.42a20.77,20.77,0,0,0,.65-6.3v-16C9.88.59,8.29,0,7.35,0c-1.89,0-4,2.19-5.07,3.56C.38,6-1.27,10.46,1.37,13.14c.86.86,2.82,2,2.82,1,0-.44-.66-1.22-.85-1.78a6.17,6.17,0,0,1-.41-2.75"/></svg>