<svg id="c87bd1f2-97bb-414f-9951-4807dca466d0" data-name="Capa 1" xmlns="http://www.w3.org/2000/svg" viewBox="0 0 114.71 58.57"><title>LANDING MOVDI ASSETS</title><path d="M113.29,47.34h-.09v.16h.1c.08,0,.11,0,.11-.08S113.37,47.34,113.29,47.34Z"/><path d="M113.29,47.13a.41.41,0,1,0,.4.41A.4.4,0,0,0,113.29,47.13Zm.24.71h-.13l-.13-.25h-.07v.25h-.12v-.59h.22c.15,0,.23,0,.23.17a.14.14,0,0,1-.14.16Z"/><path d="M29.22.95A28.34,28.34,0,1,0,57.56,29.28,28.34,28.34,0,0,0,29.22.95Zm0,53.81A25.47,25.47,0,1,1,54.69,29.28,25.5,25.5,0,0,1,29.22,54.75Z"/><path d="M38.21,20.73a12.68,12.68,0,0,0-3.69-2.2A40.29,40.29,0,0,0,40,13.38a15.5,15.5,0,0,0-5-1.12A23.77,23.77,0,0,1,40.25,9a9.88,9.88,0,0,0-4.11-.87,15.58,15.58,0,0,0-8.61,2.18S28.59,7.52,28.76,7a18,18,0,0,0-2.89,1.76A23.69,23.69,0,0,0,21.17,13a3.35,3.35,0,0,0-.55,3,15.63,15.63,0,0,1,.71,2.09c.27,1.34.11,1.39,0,1.4a4.52,4.52,0,0,0-2.57,1.76,10.09,10.09,0,0,0-1.67,3.6,9.48,9.48,0,0,0-3.48-.58A5.34,5.34,0,0,0,8.4,27.45c-1,2.87.52,6.68.52,6.68a20,20,0,0,0,.76,4.43c.21.63,1.29.75,2,.79,1.81.08,1.66,2.55,1.18,3.88a3.25,3.25,0,0,0,2.66-2.84,5,5,0,0,1,1.45,1.32,3.2,3.2,0,0,0,.65-2.88c1.79,2.15,2.15,6.08,2.18,6.07A10.32,10.32,0,0,0,21,43.64s-.3,2.11-.78,2.19l-1,.17-1.63,2.06h4.76a20,20,0,0,1,1-4.4,10.85,10.85,0,0,0,1.28,1.17,12.54,12.54,0,0,1,1.25-4.37,11.88,11.88,0,0,0,1,1.48c3.5-.72,11.33-5.62,11.41-5.69.18.24,2.19,3.28,5,4.27-.64,2-4.06,5.24-4.41,5.32l-1,.18-1.63,2h5c.37-2.41,4.44-5.3,5.51-7.43a.79.79,0,0,0,0-.82A3.19,3.19,0,0,1,46,37.24a8.45,8.45,0,0,1,1.2-4c1.22-1.86,1.36-5.47,1.08-6.68a83.9,83.9,0,0,0-11.68-4.65A5.61,5.61,0,0,0,38.21,20.73Zm-26,12.55-1.73.6v-.36A1.72,1.72,0,0,1,12,32.57a.93.93,0,0,1,.5.1Zm2.26-3c-.79,1.53-3.18,1.2-3.18,1.2a1.07,1.07,0,0,1-.72-.91h0a1.09,1.09,0,0,1,0-.29c.09-.78.35-.91,1-.93,2.85-.11,3.35-3.94,3.34-4.1A10.45,10.45,0,0,1,15,27.06c-.29,1.45-1.15,3-2.14,3.39a3.76,3.76,0,0,1-.5.17,3.76,3.76,0,0,0,.5-.17c1-.41,1.85-1.94,2.14-3.39h0A7.36,7.36,0,0,1,14.43,30.31ZM30.89,14a21,21,0,0,1,5.73.24h0c-1.62,2.06-4,3.11-6,4.65h0A9.83,9.83,0,0,1,35.2,21h0a14,14,0,0,1-5.59,3c0,.57,1.3,1.58,1.3,1.58-2.9.7-8.3-1.05-8.3-1.05a16.75,16.75,0,0,0,.9-4.43,17.13,17.13,0,0,0-1.16-3.94c-.36-1.22.48-2.83,3.55-5.33-.09.48-.66,2.47-.71,2.88a30.68,30.68,0,0,1,8.39-3.72,14.36,14.36,0,0,1,2.37-.45C34.57,10,31.85,12.7,30.88,14M27.6,40.05a10.76,10.76,0,0,1-.93-1.34l9.9-3C36.49,35.82,30.78,39.4,27.6,40.05Z"/><polygon points="30.64 18.86 30.64 18.86 30.64 18.86 30.64 18.86"/><polygon points="35.2 20.98 35.2 20.98 35.2 20.98 35.2 20.98"/><polygon points="36.61 14.21 36.61 14.21 36.61 14.21 36.61 14.21"/><polygon points="35.2 20.98 35.2 20.98 35.2 20.98 35.2 20.98"/><polygon points="25.13 13.88 25.18 13.67 25.18 13.67 25.18 13.67 25.13 13.88"/><path d="M15,27.06c-.29,1.45-1.15,3-2.14,3.39a3.76,3.76,0,0,1-.5.17,3.89,3.89,0,0,1-1.88,0h0a1.07,1.07,0,0,0,.72.91s2.39.33,3.18-1.2A7.36,7.36,0,0,0,15,27.06Z"/><path d="M10.52,30.61h0a3.89,3.89,0,0,0,1.88,0A3.89,3.89,0,0,1,10.52,30.61Z"/><polygon points="112.61 51.13 112.38 50.53 112.08 50.53 112.08 51.45 112.28 51.45 112.28 50.78 112.29 50.78 112.53 51.45 112.68 51.45 112.93 50.78 112.93 50.78 112.93 51.45 113.14 51.45 113.14 50.53 112.84 50.53 112.61 51.13"/><polygon points="111.21 50.7 111.48 50.7 111.48 51.45 111.69 51.45 111.69 50.7 111.96 50.7 111.96 50.53 111.21 50.53 111.21 50.7"/><polygon points="68.59 53.15 68.58 53.15 68.1 50.54 67.52 50.54 67.06 53.15 67.05 53.15 66.62 50.54 65.97 50.54 66.74 54.63 67.33 54.63 67.81 51.93 67.82 51.93 68.33 54.63 68.92 54.63 69.63 50.54 68.98 50.54 68.59 53.15"/><rect x="70.18" y="50.54" width="0.7" height="4.09"/><polygon points="73.17 52.88 73.16 52.88 72.31 50.54 71.66 50.54 71.66 54.63 72.29 54.63 72.29 52.08 72.3 52.08 73.2 54.63 73.81 54.63 73.81 50.54 73.17 50.54 73.17 52.88"/><path d="M75.46,53.11h.45v.4c0,.41-.1.57-.39.57s-.33-.17-.33-.43v-2.1c0-.35.14-.45.31-.45s.4.16.4.77h.67v-.26a1,1,0,0,0-1.05-1.12,1,1,0,0,0-1,1v2.11a.93.93,0,0,0,.94,1,.81.81,0,0,0,.71-.36l.13.31h.34V52.56H75.46Z"/><path d="M77.87,51.5c0-.25.12-.4.35-.4s.34.1.37.45l.67-.07a1,1,0,0,0-1-1,1,1,0,0,0-1.09,1c0,1.17,1.43,1.39,1.43,2.2a.36.36,0,0,1-.41.37c-.23,0-.39-.2-.42-.62l-.67.1a1.08,1.08,0,0,0,1.05,1.13,1,1,0,0,0,1.11-1C79.3,52.53,77.87,52.19,77.87,51.5Z"/><rect x="79.79" y="53.96" width="0.67" height="0.67"/><path d="M84,52.48a.88.88,0,0,0,.49-.85,1,1,0,0,0-1.09-1.08h-1v4.09h1.11c.8,0,1.1-.51,1.1-1.18A.94.94,0,0,0,84,52.48ZM83,51.12h.27c.31,0,.46.2.46.58a.46.46,0,0,1-.47.52H83Zm.29,2.93H83V52.79h.23c.42,0,.58.21.58.63S83.72,54.05,83.34,54.05Z"/><polygon points="85.88 52.82 86.79 52.82 86.79 52.21 85.88 52.21 85.88 51.15 87.06 51.15 87.06 50.54 85.18 50.54 85.18 54.63 87.14 54.63 87.14 54.02 85.88 54.02 85.88 52.82"/><polygon points="88.39 52.82 89.3 52.82 89.3 52.21 88.39 52.21 88.39 51.15 89.57 51.15 89.57 50.54 87.69 50.54 87.69 54.63 89.65 54.63 89.65 54.02 88.39 54.02 88.39 52.82"/><path d="M92.38,51.75c0-.87-.4-1.21-1.19-1.21h-1v4.09h.7V53l.36,0,.5,1.69h.71l-.59-1.85C92.13,52.67,92.38,52.4,92.38,51.75Zm-1.22.63h-.25V51.12h.25c.38,0,.52.14.52.63S91.54,52.38,91.16,52.38Z"/><rect x="92.99" y="53.96" width="0.67" height="0.67"/><path d="M96.11,51.5c0-.25.12-.4.35-.4s.35.1.37.45l.67-.07a1,1,0,0,0-1-1,1,1,0,0,0-1.09,1c0,1.17,1.43,1.39,1.43,2.2a.36.36,0,0,1-.41.37c-.23,0-.39-.2-.42-.62l-.67.1a1.08,1.08,0,0,0,1.05,1.13,1,1,0,0,0,1.11-1C97.53,52.53,96.11,52.19,96.11,51.5Z"/><path d="M99.07,50.54h-1v4.09h.7V53h.31c.87,0,1.27-.33,1.27-1.2S99.94,50.54,99.07,50.54Zm0,1.83h-.27V51.12H99c.46,0,.6.14.6.63S99.5,52.38,99,52.38Z"/><path d="M102,50.49a1,1,0,0,0-1.07,1v2.11a1.08,1.08,0,0,0,2.15,0V51.53A1,1,0,0,0,102,50.49Zm.37,3.14c0,.31-.09.45-.37.45s-.37-.15-.37-.45V51.55c0-.31.09-.45.37-.45s.37.15.37.45Z"/><path d="M105.9,51.75c0-.87-.4-1.21-1.19-1.21h-1v4.09h.7V53l.36,0,.5,1.69H106l-.59-1.85C105.65,52.67,105.9,52.4,105.9,51.75Zm-1.22.63h-.25V51.12h.25c.38,0,.52.14.52.63S105.06,52.38,104.68,52.38Z"/><polygon points="106.29 51.15 106.97 51.15 106.97 54.63 107.67 54.63 107.67 51.15 108.35 51.15 108.35 50.54 106.29 50.54 106.29 51.15"/><path d="M109.32,51.5c0-.25.12-.4.35-.4s.35.1.37.45l.67-.07a1,1,0,0,0-1-1,1,1,0,0,0-1.09,1c0,1.17,1.43,1.39,1.43,2.2a.36.36,0,0,1-.41.37c-.23,0-.39-.2-.42-.62l-.67.1a1.08,1.08,0,0,0,1.05,1.13,1,1,0,0,0,1.11-1C110.74,52.53,109.32,52.19,109.32,51.5Z"/><rect x="111.23" y="53.96" width="0.67" height="0.67"/><path d="M113.53,47.42c0-.13-.08-.17-.23-.17h-.22v.59h.12v-.25h.07l.13.25h.13l-.14-.26A.14.14,0,0,0,113.53,47.42Zm-.23.07h-.1v-.16h.09c.08,0,.12,0,.12.07S113.38,47.5,113.29,47.5Z"/><path d="M113.29,47a.52.52,0,1,0,.54.52A.52.52,0,0,0,113.29,47Zm0,.94a.41.41,0,1,1,.4-.41A.4.4,0,0,1,113.29,48Z"/><path d="M63.42,18.38H67.2a3.32,3.32,0,0,0,2.21-.53,2.51,2.51,0,0,0,.74-2c0-1-.39-1.94-1.53-2.09v0a1.82,1.82,0,0,0,1.39-2,2.08,2.08,0,0,0-.88-1.88,3.9,3.9,0,0,0-2.07-.36H62.32l1.1,1.88Zm2.76-7h.19c.58,0,.92.14.92.8s-.31.8-.92.8h-.19Zm0,3.17h.24c.67,0,.91.27.91,1s-.24,1-.91,1h-.24Z"/><path d="M99.65,18.38h6.15v-4.3h-2.43v1.44c0,.56,0,1-.69,1h-.27v-7H99.11l.55,1.88Z"/><path d="M109.84,18.55c2,0,3.3-.55,3.3-2.74V12.08c0-2.19-1.34-2.74-3.3-2.74s-3.3.55-3.3,2.74v3.73C106.54,18,107.89,18.55,109.84,18.55Zm0-7.15a.48.48,0,0,1,.54.54V15.8c0,.06,0,.69-.54.69s-.54-.63-.54-.69V12.08C109.3,12,109.27,11.4,109.84,11.4Z"/><path d="M85.6,18.38h2.76V15h1.76V13.09H88.36V11.4c.53,0,.75.05.86.25a2.11,2.11,0,0,1,.08.92h2.39v-3H85l.55,1.88Z"/><path d="M78.43,18.38h2.76V15h1.76V13.09H81.19V11.4c.53,0,.75.05.86.25a2.1,2.1,0,0,1,.08.92h2.39v-3H77.88l.55,1.88Z"/><path d="M70.79,15.55a2.79,2.79,0,0,0,.85,2.34,4.9,4.9,0,0,0,4.92,0,2.79,2.79,0,0,0,.85-2.34v-6H74.64v6.34a.55.55,0,1,1-1.1,0V9.52H70.24l.55,1.88Z"/><path d="M91.54,18.38h2.53l.31-1.88h1.7l.34,1.88h2.53L97.41,9.52H92.2l.55,1.88Zm3.68-7h0l.45,2.93h-.95Z"/><path d="M100.41,27.33h-4.2v2.48c0,1,0,1.7-1.2,1.7h-.46V19.45H88.83l.95,3.25V34.77h10.64Z"/><polygon points="83.37 34.77 88.15 34.77 88.15 19.45 82.42 19.45 83.37 22.7 83.37 34.77"/><path d="M108,34.77a5.22,5.22,0,0,0,3.9-1.13c1.16-1.09,1.23-2.25,1.23-3.76V24.15c0-1.47-.13-2.86-1.38-3.84a6.29,6.29,0,0,0-3.9-.86h-7l.95,3.25V34.77ZM106.61,22.7H107c1,0,1.36.46,1.36,1.57v5.77c0,1.11-.32,1.48-1.36,1.48h-.38Z"/><polygon points="67.02 34.77 71.53 34.77 73.01 29.46 73.05 29.46 74.53 34.77 79.03 34.77 81.84 19.45 76.81 19.45 75.78 27.33 75.75 27.33 74.71 19.45 71.35 19.45 70.31 27.33 70.28 27.33 69.25 19.45 62.32 19.45 64.81 22.7 67.02 34.77"/><polygon points="70.87 43.82 72.05 48.05 75.64 48.05 77.88 35.84 73.87 35.84 73.05 42.13 73.02 42.13 72.19 35.84 69.52 35.84 68.69 42.13 68.66 42.13 67.84 35.84 62.32 35.84 64.31 38.43 66.07 48.05 69.66 48.05 70.84 43.82 70.87 43.82"/><polygon points="82.84 48.04 82.84 35.84 78.28 35.84 79.04 38.43 79.04 48.04 82.84 48.04"/><polygon points="87.04 48.04 87.04 42.56 87.06 42.56 89.33 48.04 93.02 48.04 93.02 35.84 89.94 35.84 89.94 41.35 89.91 41.35 87.79 35.84 83.32 35.84 84.08 38.43 84.08 48.04 87.04 48.04"/><path d="M103,47V40.75H98.55l.75,2.59v.72c0,.56.11,1.4-.73,1.4a.76.76,0,0,1-.77-.8v-5c0-.53.06-1.2.77-1.2s.73.84.73,1.38v.27H103V37a7.74,7.74,0,0,0-4.73-1.41,4.89,4.89,0,0,0-3.22,1,3.45,3.45,0,0,0-1,2.88v4.64c0,1.34.06,2.45,1.18,3.4a5,5,0,0,0,3.22.81A6.81,6.81,0,0,0,103,47Z"/><path d="M113.15,44.2v-.06a4.8,4.8,0,0,0-.28-1.68,2.24,2.24,0,0,0-.94-1.17,10.65,10.65,0,0,0-2.9-1.08,2.73,2.73,0,0,1-1.07-.48.9.9,0,0,1-.23-.68c0-.46.26-.61.74-.61.74,0,.75.75.75,1.3v0h3.55V36.88a7.55,7.55,0,0,0-4.5-1.28,5.27,5.27,0,0,0-3.13.76,3,3,0,0,0-1.26,2.72v.27c0,2.63,1.3,3.19,3.6,3.76,1.05.26,1.84.36,1.84,1.61a.67.67,0,0,1-.74.74.78.78,0,0,1-.68-.4,3.32,3.32,0,0,1-.11-1.32H104V47a7.06,7.06,0,0,0,4.43,1.28C112.11,48.29,113.15,46.55,113.15,44.2Z"/></svg>