<svg id="998c8cb4-83f0-46fa-8682-51f6dfa54ea4" data-name="Capa 1" xmlns="http://www.w3.org/2000/svg" viewBox="0 0 180.33 40.71"><defs><style>.\32 48e4078-adf8-42f1-8c05-a806a9f9a446{fill:none;}</style></defs><title>LANDING MOVDI ASSETS</title><path class="248e4078-adf8-42f1-8c05-a806a9f9a446" d="M171.87,13.58a2.63,2.63,0,0,0-1.74.71,3.32,3.32,0,0,0-1,1.53q-.11.36.29.36a30.29,30.29,0,0,0,3.45-.31q.5-.07.55-.21a1.57,1.57,0,0,0-.18-1.45A1.52,1.52,0,0,0,171.87,13.58Z"/><path class="248e4078-adf8-42f1-8c05-a806a9f9a446" d="M75,10.59c-2.14,0-2.28,2.92-2.28,4.74s0,5.71,2.25,5.71S77.31,17.9,77.31,16a13.78,13.78,0,0,0-.43-4A1.82,1.82,0,0,0,75,10.59Z"/><path class="248e4078-adf8-42f1-8c05-a806a9f9a446" d="M110.49,9.25a6.11,6.11,0,0,0-2.52.24,23.75,23.75,0,0,0-1.07,3.07q-.13.41-.36,1.22T106.19,15q-.08.27,2.54.27a3.88,3.88,0,0,0,4.08-2.91Q113.79,9.25,110.49,9.25Z"/><path d="M59.27,28.25A49,49,0,0,1,40.46,32.1,49.6,49.6,0,0,1,15.8,25.56c-.61-.36-1.07.27-.56.73a36.5,36.5,0,0,0,24.64,9.4c6.81,0,14.72-2.15,20.17-6.17C61,28.86,60.19,27.86,59.27,28.25Z"/><path d="M55.83,26c-.48.34-.4.8.13.74,1.76-.21,5.67-.68,6.37.21s-.78,4.58-1.43,6.22c-.2.5.23.7.68.32,2.93-2.45,3.68-7.58,3.09-8.32S58.94,23.79,55.83,26Z"/><path d="M66.51,19.76a10.54,10.54,0,0,0-5.45-1.17L66,11.52a3,3,0,0,0,.72-1.34V8.36a.53.53,0,0,0-.55-.54H56.62a.53.53,0,0,0-.54.54v2.13a.53.53,0,0,0,.55.54h5l-5.73,8.22a2.58,2.58,0,0,0-.35,1.47v2.16c0,.31.35.67.68.49a11,11,0,0,1,10.09,0c.36.19.7-.18.7-.49V20.59A1,1,0,0,0,66.51,19.76Z"/><path d="M18.34,23.8h2.91a.55.55,0,0,0,.56-.54v-7.9c0-1.72-.08-4.11,2-4.11s1.79,2.45,1.79,4.11v7.9a.55.55,0,0,0,.52.54H29a.55.55,0,0,0,.56-.54v-7.9a9,9,0,0,1,.27-2.86,1.93,1.93,0,0,1,1.74-1.22,1.51,1.51,0,0,1,1.71,1.28,18.66,18.66,0,0,1,.08,2.8v7.9a.55.55,0,0,0,.52.54h2.9a.55.55,0,0,0,.56-.54V13.85c0-1.6.19-3.42-.73-4.68a4.29,4.29,0,0,0-7.38,1.13c-.82-1.88-2-2.76-3.77-2.76a3.84,3.84,0,0,0-3.83,2.76h-.05V8.36a.55.55,0,0,0-.53-.5H18.38a.55.55,0,0,0-.56.54V23.31A.55.55,0,0,0,18.34,23.8Z"/><path d="M74.95,7.54c-4.21,0-6.54,3.61-6.54,8.25s2.3,8.32,6.54,8.32c4.07,0,6.65-3.61,6.65-8.16C81.59,11.25,79.26,7.54,74.95,7.54Zm0,13.5c-2.28,0-2.25-3.89-2.25-5.71s.13-4.74,2.28-4.74A1.82,1.82,0,0,1,76.87,12a13.78,13.78,0,0,1,.43,4C77.31,17.9,77.2,21,74.95,21Z"/><path d="M91.55,7.54c-2,0-3.15,1-4,3h-.05V8.27A.56.56,0,0,0,87,7.86H84.32a.55.55,0,0,0-.56.49V23.26a.55.55,0,0,0,.52.54h2.89a.56.56,0,0,0,.57-.54v-8a6.6,6.6,0,0,1,.46-2.82,1.9,1.9,0,0,1,1.68-1.19c2,0,1.82,2.39,1.82,4v8.1a.55.55,0,0,0,.51.47h2.91a.56.56,0,0,0,.56-.47V13.94c0-1.44,0-3.45-.76-4.64A3.81,3.81,0,0,0,91.55,7.54Z"/><path d="M48.47,13.72a20.13,20.13,0,0,0-5.46,1,4.93,4.93,0,0,0-3.1,4.75c0,3,1.9,4.53,4.35,4.53A5.75,5.75,0,0,0,49,21.89a7.08,7.08,0,0,0,1.67,1.94.61.61,0,0,0,.69-.07h0c.58-.51,1.63-1.43,2.23-1.93a.55.55,0,0,0,0-.77,4,4,0,0,1-1.1-2.69V13.85c0-1.92.13-3.68-1.28-5A6.59,6.59,0,0,0,46.89,7.4c-2.76,0-5.85,1-6.5,4.45a.51.51,0,0,0,.43.61l2.82.3a.61.61,0,0,0,.51-.53,2.21,2.21,0,0,1,2.33-1.75,1.93,1.93,0,0,1,1.63.76,3.71,3.71,0,0,1,.36,2.1Zm-.54,6a2.36,2.36,0,0,1-2,1.32c-1.12,0-1.77-.85-1.77-2.1,0-2.48,2.22-2.93,4.32-2.93v.63A5.68,5.68,0,0,1,47.93,19.76Z"/><path d="M15.55,21.07a4,4,0,0,1-1.1-2.69V13.85c0-1.92.13-3.68-1.28-5A6.59,6.59,0,0,0,8.8,7.4c-2.76,0-5.85,1-6.5,4.45a.51.51,0,0,0,.43.61l2.82.3a.61.61,0,0,0,.5-.53,2.22,2.22,0,0,1,2.34-1.75,1.94,1.94,0,0,1,1.63.76,3.74,3.74,0,0,1,.35,2.1v.38a20.13,20.13,0,0,0-5.46,1,4.94,4.94,0,0,0-3.1,4.75c0,3,1.9,4.53,4.35,4.53A5.75,5.75,0,0,0,11,21.89a7.16,7.16,0,0,0,1.67,1.94.61.61,0,0,0,.69-.07h0c.58-.51,1.63-1.43,2.23-1.93A.55.55,0,0,0,15.55,21.07ZM9.83,19.76a2.36,2.36,0,0,1-2,1.32c-1.12,0-1.77-.85-1.77-2.1C6.05,16.5,8.27,16,10.37,16v.63A5.68,5.68,0,0,1,9.83,19.76Z"/><path d="M162.33,11.29a4.34,4.34,0,0,0-2.87-.81,7.45,7.45,0,0,0-2.84.65A9.32,9.32,0,0,0,154,12.74,1.92,1.92,0,0,0,153,11a4.12,4.12,0,0,0-2.21-.55,7.14,7.14,0,0,0-2.59.49,20.78,20.78,0,0,0-2.47,1.28,2.22,2.22,0,0,1-.39.19q-.1,0,.17-.92t0-.93a5.52,5.52,0,0,0-1.21.19l-1.24.28-1.33.12a6.33,6.33,0,0,0-1.27.2.46.46,0,0,0-.3.31,1.51,1.51,0,0,0,0,.24,42.32,42.32,0,0,1-1.2,4.91l-1,3.19q-.68,2.12-1,3.18-.11.33-.07.4s.17.08.39.09q1.14.08,2.06.08,1.41,0,2.08-.05a1.09,1.09,0,0,0,.48-.11.84.84,0,0,0,.22-.41q.38-1.2,1.13-3.61T144.28,16a2.08,2.08,0,0,1,1.14-1,3.48,3.48,0,0,1,1.53-.45q1.59,0,1,1.9-.16.51-.45,1.5T147,19.38q-.2.64-.64,1.89t-.64,1.88q-.17.55.23.55h4.41a.55.55,0,0,0,.56-.44q.2-.64.56-1.9t.56-1.9q.86-2.71,1.09-3.27A2.68,2.68,0,0,1,154.29,15a3,3,0,0,1,1.54-.53q1.56,0,1.14,1.58-.25,1-1,3.31-.19.61-.62,1.84T154.74,23q-.18.57.23.65a16.74,16.74,0,0,0,2.19.08q1.72,0,2.17-.05a.68.68,0,0,0,.6-.52q.27-.84.75-2.52t.76-2.53q.22-.71.71-2.12t.72-2.13A2.26,2.26,0,0,0,162.33,11.29Z"/><path d="M135.53,10q2.85,0,3.59-2.32A1.54,1.54,0,0,0,138.77,6,2.4,2.4,0,0,0,137,5.38a4.19,4.19,0,0,0-2.19.61,3.06,3.06,0,0,0-1.44,1.7,1.56,1.56,0,0,0,.33,1.73A2.57,2.57,0,0,0,135.53,10Z"/><path d="M118.14,7.06q-1.51-1.89-4.93-2Q111.13,5,108.84,5q-3.87,0-5.05.13-.48.05-.53.31l0,.19q-1.06,4.6-2.39,8.78-.47,1.48-1.46,4.44T97.92,23.3q-.12.39.3.39l2.65,0q1.76.05,2.65.05a.39.39,0,0,0,.4-.31q.19-.6.44-1.81t.45-1.82a.72.72,0,0,1,.78-.49q.58,0,1.73.07t1.74.05a9.54,9.54,0,0,0,6.13-2.12,10.64,10.64,0,0,0,3.5-5.22Q119.68,9,118.14,7.06Zm-5.33,5.3a3.88,3.88,0,0,1-4.08,2.91q-2.62,0-2.54-.27t.34-1.21q.23-.81.36-1.22A23.75,23.75,0,0,1,108,9.49a6.11,6.11,0,0,1,2.52-.24Q113.79,9.25,112.81,12.35Z"/><path d="M177.67,12a4.81,4.81,0,0,0-4.16-1.86,9.59,9.59,0,0,0-6,2,9.93,9.93,0,0,0-3.54,5q-1,3.14.6,5t5,1.85a9.87,9.87,0,0,0,6.07-1.74c.19-.14.3-.24.31-.31a3.72,3.72,0,0,0-.24-1.56q-.33-1.22-.59-1.36l-1.31.64a7.26,7.26,0,0,1-2.81.64,3.93,3.93,0,0,1-1.8-.37,1.29,1.29,0,0,1-.82-1.32q3.48-.24,5.26-.41l3.11-.29a1.94,1.94,0,0,0,1.43-1.53A4.71,4.71,0,0,0,177.67,12Zm-4.29,3.62q0,.15-.55.21a30.29,30.29,0,0,1-3.45.31q-.41,0-.29-.36a3.32,3.32,0,0,1,1-1.53,2.63,2.63,0,0,1,1.74-.71,1.52,1.52,0,0,1,1.33.63A1.57,1.57,0,0,1,173.38,15.65Z"/><path d="M129.21,15.4q.08-.25.3-1t.31-1q.12-.33.45-1.09a11.69,11.69,0,0,0,.43-1.09q.1-.32-.71-.32a7.42,7.42,0,0,0-2.92.71,7.11,7.11,0,0,0-1.43.69c-.1,0-.1-.31,0-.83s.11-.84-.07-.84l-2.5.41q-1.61.21-2.44.29a.4.4,0,0,0-.3.27.9.9,0,0,0,0,.2,18.27,18.27,0,0,1-1,5.15q-.34,1.06-1,3.19t-1,3.18q-.12.39.34.44.8.08,2.19.08t2.16-.05q.49,0,.59-.36t.3-1.13q.19-.77.31-1.16.18-.57.52-1.73t.54-1.74a2.47,2.47,0,0,1,.88-1.4,3.39,3.39,0,0,1,1.75-.35l.77,0,.81,0A.73.73,0,0,0,129.21,15.4Z"/><path d="M137.95,11.31q.08-.27-.27-.27t-1.29.07q-.87.07-1.29.07t-1.24-.08q-.8-.08-1.21-.08t-.48.27a2.78,2.78,0,0,0-.06.28,48.75,48.75,0,0,1-1.58,6q-.29.93-.92,2.78t-.92,2.75a1.48,1.48,0,0,0-.1.4q0,.12.34.17a18,18,0,0,0,2.22.08,19.25,19.25,0,0,0,2.25-.08.51.51,0,0,0,.47-.33q.3-1,.87-2.87t.87-2.9a60,60,0,0,1,2.22-6Z"/></svg>