<svg id="555b74ab-a608-40e8-837a-84e453b4fe77" data-name="Capa 1" xmlns="http://www.w3.org/2000/svg" viewBox="0 0 113.05 58.57"><defs><style>.\32 6e0b4ad-d124-4717-8518-d6251e730af4{fill-rule:evenodd;}</style></defs><title>LANDING MOVDI ASSETS</title><path class="26e0b4ad-d124-4717-8518-d6251e730af4" d="M13,34.25v2.32a18.84,18.84,0,0,0,3.28,10.22c1.87,2.81,4.37,4.47,7.23,6.27a35.43,35.43,0,0,0,9.89,3.61A60.58,60.58,0,0,0,45.57,58h2.25c14,0,28.27-4.07,37.44-8.92v-6.6a52.26,52.26,0,0,1-8.4,3.93c-.61.19-1.57.6-2.21.84s-1.56.48-2.33.79a39.8,39.8,0,0,1-4.8,1.36c-1.67.36-3.26.81-5,1.16s-3.41.56-5.28.88-3.78.41-5.63.54-3.93.22-6,.22h-.44c-7.44,0-14.53-1.17-19.49-3.65-4.78-2.39-9.24-6.82-9.24-13.91V34a21.31,21.31,0,0,1,2-8.32,20.54,20.54,0,0,1,1.83-3.32c.38-.57.69-1,1.09-1.52s.91-1,1.19-1.42V17.06a24.84,24.84,0,0,0-3.35,3.32,27.21,27.21,0,0,0-2.86,3.82c-1.36,2-3.29,6.74-3.29,10.06Z"/><path class="26e0b4ad-d124-4717-8518-d6251e730af4" d="M100.06,21.7V19.6s-.34-2.35-.39-2.66A13.36,13.36,0,0,0,99,14.57a15.7,15.7,0,0,0-2.18-4A20.45,20.45,0,0,0,90.14,5c-5-2.74-12.5-4.4-20.2-4.4h-.65A73.63,73.63,0,0,0,48.57,3.66c-1.64.46-3,.94-4.5,1.45A38.13,38.13,0,0,0,39.81,6.8c-1.36.67-2.71,1.25-4,1.91-.7.35-3.41,2-3.85,2.1v1.74c.6-.14,2.8-1.36,3.65-1.72,1.18-.5,2.65-1.24,3.84-1.61.54-.16,1.42-.5,2-.73s1.32-.44,2-.67c1.31-.44,2.77-.93,4.16-1.28,3-.75,5.61-1.36,8.88-1.93a62.27,62.27,0,0,1,9.83-1h3.27c6.36,0,13.24,1.46,17.32,3.73A17.45,17.45,0,0,1,92.67,12a14,14,0,0,1,2.89,7.7V21a14.85,14.85,0,0,1-2.87,8,19.1,19.1,0,0,1-2.55,2.89,18.65,18.65,0,0,1-3.21,2.3V39c1-.09,4.1-2.07,4.89-2.65a20.4,20.4,0,0,0,3.88-3.74,21.39,21.39,0,0,0,2.87-4.75,20.41,20.41,0,0,0,1-2.81c.12-.41.53-3.29.54-3.31Z"/><path class="26e0b4ad-d124-4717-8518-d6251e730af4" d="M60.95,29.76v.87c0,5,3.06,8.63,8.05,8.63h.94a8.77,8.77,0,0,0,3.67-.83,14.33,14.33,0,0,0,2.66-2l-2.85-2.67a4.73,4.73,0,0,1-3.56,1.67h-.8a3.66,3.66,0,0,1-3.63-3.41v-.51H76.77v-2a10.18,10.18,0,0,0-1.83-5.86A6.83,6.83,0,0,0,69.87,21H68.5A7.87,7.87,0,0,0,63,23.71a9.65,9.65,0,0,0-2.08,6ZM65.45,28v.51h6.82v-.36a3.27,3.27,0,0,0-3.19-3.41h-.36A3.48,3.48,0,0,0,65.45,28Z"/><path class="26e0b4ad-d124-4717-8518-d6251e730af4" d="M34.18,39H38.6V25h4a1.56,1.56,0,0,1,1.6,1.52V39h4.5V26.56a4.92,4.92,0,0,0-4.93-5.22H34.18V39Z"/><path class="26e0b4ad-d124-4717-8518-d6251e730af4" d="M52,33.75c0,3,1.94,5.22,4.86,5.22h3V35.2H57.61c-.67,0-1.16-.77-1.16-1.45V25h3.41V21.34H56.45V16.48H52V33.75Z"/><path class="26e0b4ad-d124-4717-8518-d6251e730af4" d="M79.38,34.69a4.38,4.38,0,0,0,1.36,2.92,4.26,4.26,0,0,0,1.37.81,9.92,9.92,0,0,0,1.77.4V14h-4.5V34.69Z"/><path class="26e0b4ad-d124-4717-8518-d6251e730af4" d="M25.6,25.47l0,8.78c0,3,1.74,4.87,4.57,4.93V21.34H25.7l-.11,4.13Z"/><polygon class="26e0b4ad-d124-4717-8518-d6251e730af4" points="25.69 18.87 30.18 18.87 30.18 14.59 25.69 14.59 25.69 18.87 25.69 18.87"/><path class="26e0b4ad-d124-4717-8518-d6251e730af4" d="M88.73,14a1.85,1.85,0,0,1,.89.23,1.66,1.66,0,0,1,.67.67,1.81,1.81,0,0,1,0,1.8,1.67,1.67,0,0,1-.67.67,1.81,1.81,0,0,1-1.79,0,1.68,1.68,0,0,1-.67-.67,1.8,1.8,0,0,1,0-1.8,1.66,1.66,0,0,1,.67-.67,1.85,1.85,0,0,1,.89-.23Zm0,.3a1.54,1.54,0,0,0-.74.19,1.4,1.4,0,0,0-.56.56,1.5,1.5,0,0,0,0,1.5,1.41,1.41,0,0,0,.56.56,1.5,1.5,0,0,0,1.49,0,1.4,1.4,0,0,0,.56-.56A1.51,1.51,0,0,0,90,15a1.39,1.39,0,0,0-.56-.56,1.54,1.54,0,0,0-.74-.19Zm-.79,2.5V14.85h.67a1.63,1.63,0,0,1,.49.05.48.48,0,0,1,.24.19.5.5,0,0,1,.09.28.52.52,0,0,1-.15.37.6.6,0,0,1-.4.18A.52.52,0,0,1,89,16a2.22,2.22,0,0,1,.29.38l.24.38h-.38L89,16.48a1.56,1.56,0,0,0-.33-.45.4.4,0,0,0-.25-.07h-.18v.82Zm.31-1.09h.38a.61.61,0,0,0,.37-.08.28.28,0,0,0,.05-.37.29.29,0,0,0-.13-.1,1,1,0,0,0-.31,0h-.36v.59Z"/></svg>