<svg id="9657e247-074e-4ec5-8d01-bceb9ea982b9" data-name="Capa 1" xmlns="http://www.w3.org/2000/svg" viewBox="0 0 136.15 58.57"><title>LANDING MOVDI ASSETS</title><path d="M126.65,38.2l8.9-2.27-3-3.83-3.28-4.18a6.26,6.26,0,0,0,1.63-1.35,8.36,8.36,0,0,0,2-5.51,8.87,8.87,0,0,0-1-4,8.25,8.25,0,0,0-2.7-3.12,8.34,8.34,0,0,0-2.77-1.23,14.56,14.56,0,0,0-3.37-.33H115.5l-5.34,4.38-3.69-6.67-5.26,7.57V12.41H81.72v.81a7.55,7.55,0,0,0-3.34-1.11,9.93,9.93,0,0,0-1-.06h-.21a11.51,11.51,0,0,0-1.51.17H67.56l-5,5.86V12.22H55.35v2.66a11.74,11.74,0,0,0-1.6-1.15,12,12,0,0,0-5.12-1.65c-.08,0-.84-.06-1.12-.06s-1.2.06-1.24.06a11.58,11.58,0,0,0-7.37,3.36,12.33,12.33,0,0,0-2,2.55,11.86,11.86,0,0,0-2.17-2.81,12.06,12.06,0,0,0-3.84-2.51,11.82,11.82,0,0,0-3.34-.78s-.89-.07-1.19-.07-1.08.06-1.18.07a11.61,11.61,0,0,0-3.32.77A12,12,0,0,0,18,15.15a12.34,12.34,0,0,0-1.19,1.33,8.1,8.1,0,0,0-5.15-3.93,14.08,14.08,0,0,0-3.33-.33H.6V35.87l8.2,2.33h2v8.51l1.77,1.79H25.16V47.38l1.7,1.11h18.4v-.66l.44.66h6.75l-.69-1a10,10,0,0,0,4.3,1,18.76,18.76,0,0,0,6.87-1.63v1.62h8.66l.09-.36a5.77,5.77,0,0,1,.57-1.52,5.79,5.79,0,0,1,.58,1.52l.09.36H81v0a9,9,0,0,0,1.72-.22c.51-.12,2.42-.75,3.43-1.09v1.33h5.29l.44-.42.27.42H105.3V47.38L107,48.49h8.8v-.93l1,.93h3.29l1.4-3-3.15-3.83,3.09-3.45ZM77.56,14a5.65,5.65,0,0,1,3.95,1.45,5.85,5.85,0,0,1,1.69,4l0,1.2H80l-.08-1.11a2.91,2.91,0,0,0-.77-1.83,2.23,2.23,0,0,0-1.56-.58Zm0,16.94a3,3,0,0,0,1.83-.75A2.91,2.91,0,0,0,80.2,28c0-1.08-.89-2-2.64-2.68V21.88l.3.09c.85.26,1.33.41,1.6.53v0a6.87,6.87,0,0,1,3.15,2,5,5,0,0,1,1,3.24,6.52,6.52,0,0,1-1.79,4.75,6.17,6.17,0,0,1-3.9,1.79h-.39ZM57.35,14.17h3.31v7h0v8.27h0v4.34H57.35Zm3.18,25.49H58.42l0,0-.11-.13a4,4,0,0,0-1.27-1,3.24,3.24,0,0,0-1.26-.31h-.07V36.41h.08a5.27,5.27,0,0,1,2.49.66A5.08,5.08,0,0,1,60.14,39l.32.56ZM47.83,14a10.32,10.32,0,0,1,5,1.41,10.18,10.18,0,0,1,3.79,4l.56,1H53.37l-.21-.3a7.57,7.57,0,0,0-2.56-2.27,6.81,6.81,0,0,0-2.76-.69Zm0,17.11A6.56,6.56,0,0,0,53,28.28l.22-.29H57L56.41,29a9.86,9.86,0,0,1-8.26,5.19h-.31Zm-42-6.63v9.29H2.6V14.17H5.85v4.36h0v5.29H9.35A3.45,3.45,0,0,0,11.78,23a2.72,2.72,0,0,0,.89-2.14,3.82,3.82,0,0,0-.29-1.51,3.23,3.23,0,0,0-.84-1.16,2.56,2.56,0,0,0-1.05-.55,11.27,11.27,0,0,0-2.61-.19H6.54V14.17H8.39a12.32,12.32,0,0,1,2.86.27,6.14,6.14,0,0,1,4.09,3.29,6.85,6.85,0,0,1,.73,3.09A6.36,6.36,0,0,1,14.61,25a6.08,6.08,0,0,1-3.25,1.75L16.19,33l.63.8h-4Zm8.39,12.19V46.2H12.42V36.58h1.84Zm4,7.88V46.2H14.59V44.46h3.64Zm0-4v1.68H14.59V40.5h3.64Zm0-3.92v1.68H14.59V36.58h3.64Zm-1.88-13.1a9.45,9.45,0,0,1,.79-3.8,9.86,9.86,0,0,1,8.89-6V16.9a6.36,6.36,0,0,0-3.83,1.47,7,7,0,0,0-1.86,2.37,6.51,6.51,0,0,0-.67,2.85,6.72,6.72,0,0,0,2,4.91,6.49,6.49,0,0,0,4.4,2v3.1a9.82,9.82,0,0,1-9.68-10ZM23,36.65V46.2H21.28V36.58H23Zm6.28,0V46.2h-1.8l0,0L27.34,46l-4-5.94V36.94l.14.21,4.07,6L27.45,37v-.46h1.84Zm-2.57-3.12V30.45a6.31,6.31,0,0,0,4.45-2,6.86,6.86,0,0,0,1.94-4.94,6.39,6.39,0,0,0-2-4.68,6.57,6.57,0,0,0-4.4-2V13.78a10.23,10.23,0,0,1,3.45.68,10.12,10.12,0,0,1,3.21,2.08,9.41,9.41,0,0,1,3,7,10.31,10.31,0,0,1-.65,3.7,9.47,9.47,0,0,1-1.95,3.09,10.08,10.08,0,0,1-3.38,2.4A10.22,10.22,0,0,1,26.71,33.54Zm7.54,3.12V46.2H32.42V36.58h1.83Zm4,7.88V46.2H34.58V44.46h3.64Zm0-4v1.68H34.58V40.5h3.64Zm0-3.92v1.68H34.58V36.58h3.64ZM37.15,24a9.69,9.69,0,0,1,.8-3.9A10.19,10.19,0,0,1,40.3,16.8a9.89,9.89,0,0,1,3.23-2.11A10.29,10.29,0,0,1,47.14,14v3.19a6.56,6.56,0,0,0-4.59,2,6.68,6.68,0,0,0-2,4.84,7,7,0,0,0,2,5.05,6.53,6.53,0,0,0,4.6,2v3.13h-.09a10.06,10.06,0,0,1-6.95-2.92A9.93,9.93,0,0,1,37.15,24Zm6,12.66V46.2H41.3V36.58h1.8Zm5.39,9.54H46.43l0,0L46.29,46l-2.81-4.2,0-.06v-.64h1.33a1.71,1.71,0,0,0,1.17-.37,1.13,1.13,0,0,0,.41-.9,1.57,1.57,0,0,0-.13-.65,1.4,1.4,0,0,0-.39-.5,1.22,1.22,0,0,0-.5-.24A5.89,5.89,0,0,0,44,38.34h-.59V36.58h.85a6.69,6.69,0,0,1,1.45.13,3.28,3.28,0,0,1,1.07.45,3,3,0,0,1,1,1.14,3.13,3.13,0,0,1,.39,1.51,3,3,0,0,1-.77,2,2.78,2.78,0,0,1-1.22.81l1.92,2.84.39.58.08.12Zm6.86-1.5v1.67h-.08a5.08,5.08,0,0,1-3.47-1.44,4.82,4.82,0,0,1-1.49-3.59,4.65,4.65,0,0,1,.41-1.92,5.27,5.27,0,0,1,2.87-2.67,5.62,5.62,0,0,1,1.69-.33h.08v1.73h-.07a3.25,3.25,0,0,0-2.14.94,3,3,0,0,0-1,2.25,3.1,3.1,0,0,0,1,2.34,3.24,3.24,0,0,0,2.14.93h.07Zm5.38-3.5,0,.4A4.87,4.87,0,0,1,59.09,45a5.16,5.16,0,0,1-3.33,1.33h-.08V44.62h.07A3.22,3.22,0,0,0,57.57,44a3,3,0,0,0,1-1.17H54V41.12h6.72Zm5.7,1.31-.08.14V46.2H64.54V42.64l-3-5.4-.3-.55-.06-.12h2.1l0,0,.1.2,2,3.77h0l.07.14.91,1.72,0,0Zm3.19-5.82-.3.55L66.7,42l-.07.13L66.57,42l-.91-1.72,0,0,0,0,1.82-3.39.11-.2,0,0h2.07Zm-1.34-2.91-.15-.18-6-7.23-.74.86V22.5l7.15-8.33h4.14l-8.38,9.73L71.78,33l.68.81Zm8.59.45h-.59a5.93,5.93,0,0,1-3.68-1.69A6.29,6.29,0,0,1,70.82,28l0-.73h3.35l0,.69A3.16,3.16,0,0,0,75,30.2a2.71,2.71,0,0,0,1.86.77Zm0-17.05a2.47,2.47,0,0,0-1.38.64,2.19,2.19,0,0,0-.72,1.72,1.86,1.86,0,0,0,.2.89,2.11,2.11,0,0,0,.68.69,5.76,5.76,0,0,0,1.23.54v3.43L76.49,25l-.5-.15h0a7.89,7.89,0,0,1-3.49-1.94,4.61,4.61,0,0,1-1.16-3.23,5.32,5.32,0,0,1,1.72-4.07A6,6,0,0,1,76.87,14Zm2,19.47V46.2H77V36.58h1.8Zm6.15,7A4.55,4.55,0,0,1,82,46a10.22,10.22,0,0,1-2.25.18h-.58V44.48h1.15a3.45,3.45,0,0,0,2.47-.81,3.08,3.08,0,0,0,.84-2.32A3.3,3.3,0,0,0,83.34,40a2.85,2.85,0,0,0-.82-1.05,2.4,2.4,0,0,0-.87-.45,6.28,6.28,0,0,0-1.54-.14h-.93V36.58h1a7.84,7.84,0,0,1,2,.22,4.24,4.24,0,0,1,1.49.73,4.84,4.84,0,0,1,1.88,3.84A5,5,0,0,1,85,43.68ZM83.72,17.56V14.36H89v3.21Zm5.85,19.09V46.2H87.76V36.58h1.81Zm.13-18.26h0v-4h9.57v3.21H93V33.81H89.7Zm5.24,27.8H92.89l0,0L92.76,46l-2.81-4.2,0-.06v-.64h1.32a1.72,1.72,0,0,0,1.17-.37,1.13,1.13,0,0,0,.41-.9,1.57,1.57,0,0,0-.13-.65,1.39,1.39,0,0,0-.39-.5,1.22,1.22,0,0,0-.5-.24,6,6,0,0,0-1.29-.09H89.9V36.58h.84a6.63,6.63,0,0,1,1.45.13,3.34,3.34,0,0,1,1.07.45,3.09,3.09,0,0,1,1,1.14,3.16,3.16,0,0,1,.38,1.51,3,3,0,0,1-.77,2,2.81,2.81,0,0,1-1.22.81l1.92,2.84.39.58.08.12Zm3.89-9.54V46.2H97V36.58h1.83Zm4.29,0V46.2h-1.71V36.58h1.71Zm6.3,0V46.2h-1.81l0,0-.11-.16-4-6V36.92l.14.21,4.09,6.06L107.6,37v-.46h1.84Zm4.22,0V46.2H112V36.58h1.64Zm6.1.05-.57.62-3.55,3.92,3.5,4.2.51.61.11.13h-2.32l0,0L117.3,46l-2.87-3.46-.3.33-.14.15V40.52l0,0,3.41-3.78.11-.12,0,0h2.32Zm.75-2.82h-3.31V21.71l-6.51,4.57,2.81,8.38-7.37-5.18-7.37,5.18,2.81-8.38-7.38-5.18h9.14l2.81-8.38,2.81,8.38h8.27V14.31h3.32v3.27h0V24h3.56a3.58,3.58,0,0,0,2.48-.85,2.69,2.69,0,0,0,.91-2.13,3.8,3.8,0,0,0-.29-1.51,3.26,3.26,0,0,0-.85-1.15,2.6,2.6,0,0,0-1.08-.56,11.89,11.89,0,0,0-2.66-.19h-1.37V14.31h1.88a12.82,12.82,0,0,1,2.91.27,6.39,6.39,0,0,1,2.12.93,6.23,6.23,0,0,1,2.05,2.35,6.75,6.75,0,0,1,.74,3.09,6.29,6.29,0,0,1-1.49,4.18,6.23,6.23,0,0,1-3.31,1.75l4.93,6.2.64.81H127.6l-7.1-9.31Z"/></svg>