<svg id="81380669-bba3-4b94-b986-9bb04502548a" data-name="Capa 1" xmlns="http://www.w3.org/2000/svg" viewBox="0 0 136.15 58.57"><title>LANDING MOVDI ASSETS</title><path d="M102.28,4.39c3.08.55,3.75,2.56,3.29,5.72s-.83,6.2-1.24,9.3a3.69,3.69,0,0,0,0,.47c1-1.15,1.93-2.36,3-3.39a14.34,14.34,0,0,1,9.94-4c5-.1,8.43,3,9.14,8.15,1,7.12-3.89,15.26-10.62,17.74a13.19,13.19,0,0,1-7.09.67,7.63,7.63,0,0,1-5.79-4.3c-.11-.22-.23-.44-.35-.66l-.26,0a24.39,24.39,0,0,0,.16,2.88,2.76,2.76,0,0,1-1.71,3.45,8.32,8.32,0,0,1-5.48.72,19.18,19.18,0,0,1-2.72-1.09,9.76,9.76,0,0,1-5.24,2.78,5,5,0,0,1-3.52-.63,1.06,1.06,0,0,0-1.39.11A10.49,10.49,0,0,1,75,44.45c-1.74-.2-2.49-.69-4.29-2.55-.21.25-.4.49-.61.72-2.16,2.39-4.7,4-8.06,4-3.78,0-6.2-2.25-6.21-6.05a55.47,55.47,0,0,1,.63-6.28c.08-.72.2-1.43.25-2.17a10.92,10.92,0,0,1-3.46,5.52c1.49,1.34,1.21,2.95.72,4.51-1.26,3.94-4.26,6-8.06,7a10.55,10.55,0,0,1-7.69-.79,8.32,8.32,0,0,1-4.8-7.41c-.08-1.79.08-3.59.14-5.4-.12.09-.35.24-.56.42A19,19,0,0,1,25,40.23c-.66.17-.8.51-.85,1.11q-.26,3-.6,6c-.43,3.65-2.49,5.88-6.21,6.77a11.6,11.6,0,0,1-3.14.16c-2-.48-2.53-2.49-2.43-4.47.06-1.08.15-2.17.29-3.24q1.61-11.82,3.24-23.63a4.9,4.9,0,0,0,0-.77,16.87,16.87,0,0,1-3.18,1.07,2.23,2.23,0,0,1-2.47-2,5.28,5.28,0,0,1,0-1.78c.57-3.66,3.59-5.84,6.85-7.39A25.17,25.17,0,0,1,28.66,9.87a11.24,11.24,0,0,1,11,12.87c-.12,1.06-.28,2.11-.44,3.24l2.92-1.82c.05,0,.08-.1.16-.19L42,23.51a2.76,2.76,0,0,1,.49-3.89,10,10,0,0,1,1.72-1.15,9.94,9.94,0,0,0,3.59-3,2.3,2.3,0,0,1,2.79-.9,5.06,5.06,0,0,1,3.06,5.86,21,21,0,0,1-1.19,2.77l2.43,1.31a6,6,0,0,1,2.9-3.38.75.75,0,0,0,.3-.56c.06-1,.13-2.1.09-3.15A3.44,3.44,0,0,1,59.87,14a8.75,8.75,0,0,1,4.3-1.3c3.44-.1,5.28,2,4.79,5.4,0,.34,0,.69-.06,1.06,1.27.1,2.53-.64,3.59.43s.51,2.31.57,3.59c.8-.76,1.43-1.43,2.14-2a16.49,16.49,0,0,1,9.19-3.78c3.39-.32,6.7,0,9.43,2.57.21-1.49.45-2.88.61-4.28.27-2.34.86-4.66.12-7A2.21,2.21,0,0,1,95.65,6a13.68,13.68,0,0,1,3.67-1.65A7.83,7.83,0,0,1,102.28,4.39ZM18,18.79c-.19,2-.27,3.68-.52,5.36-1,6.8-2.06,13.59-3.08,20.39-.27,1.79-.54,3.58-.66,5.38a1.59,1.59,0,0,0,1.47,1.88,5.57,5.57,0,0,0,6.1-4.67c.34-2.44.58-4.9.82-7.36a1.46,1.46,0,0,1,1.36-1.57A17.54,17.54,0,0,0,37.67,23.54c1-6.56-3.32-10.11-7.31-10.73a22.83,22.83,0,0,0-12.47,1.61A10.64,10.64,0,0,0,13.2,18a10,10,0,0,0-1.12,2.38.93.93,0,0,0,.32.83,1,1,0,0,0,.88-.09c.86-.48,1.66-1.07,2.54-1.52A17.23,17.23,0,0,1,18,18.79ZM71,34.92a19.39,19.39,0,0,0,1,4.67,3.77,3.77,0,0,0,3.79,2.34,9.31,9.31,0,0,0,6.57-2.75c.54-.51.91-.62,1.44,0a3.13,3.13,0,0,0,3.48,1A17.28,17.28,0,0,0,90.09,39c.7-.35.73-.89.62-1.65a21.72,21.72,0,0,1-.4-5.27c.34-3.26,1-6.5,1.57-9.73a1.2,1.2,0,0,0-.69-1.45,10.24,10.24,0,0,0-5.25-1.15A14.83,14.83,0,0,0,71,34.92ZM103.92,29c0,.46,0,.92,0,1.38.23,3.56,2.4,5.92,5.72,6.21a12.11,12.11,0,0,0,8.24-2.12c4.46-3.12,6.42-7.58,6.46-12.87A6.25,6.25,0,0,0,118.73,15a13.11,13.11,0,0,0-4.3.25A13.93,13.93,0,0,0,103.92,29ZM52,39.67c-.58.36-1,.58-1.34.83a9.16,9.16,0,0,1-4.19,1.63c-2.11.2-3.74-.8-4.2-2.62-.38-1.51-.06-1.88,1.48-1.66a11.2,11.2,0,0,0,6.62-1.1,7.44,7.44,0,0,0,4.41-6.34c.25-2.73-1-4.41-3.69-5a11.8,11.8,0,0,0-9.77,2,14.4,14.4,0,0,0-6,12.49C35.36,43.3,37,45.56,40,46.44a9.92,9.92,0,0,0,10.5-2.74A5.15,5.15,0,0,0,52,39.67Zm17.58-2.22-.39-.2c-.65.27-1.29.59-2,.82-1.92.66-3.16-.35-2.88-2.36.35-2.44.76-4.88,1.12-7.31a1.16,1.16,0,0,1,1.11-1.14c2.95-.47,4.37-2.08,4.58-5,0-.55-.1-.81-.72-.69-.9.17-1.82.28-2.73.42s-1.11,0-1-1,.28-2,.37-3c.14-1.69-.54-2.59-2.2-2.54a16.23,16.23,0,0,0-3.52.74c-.62.16-.77.65-.8,1.3-.06,1.64-.23,3.28-.34,4.92a.87.87,0,0,1-.92.93,2.35,2.35,0,0,0-2.09,1.57,10.6,10.6,0,0,0-.61,1.87c-.45,2-.39,2.07,1.63,1.82.95-.12,1.11,0,1,1-.2,1.47-.48,2.92-.66,4.39-.27,2.25-.63,4.5-.68,6.75,0,1.77,1.07,2.83,2.8,3.22A8.11,8.11,0,0,0,69,40,10.7,10.7,0,0,0,69.55,37.45Zm24-2c-.06,2.15.5,2.87,2.16,3.19a6.41,6.41,0,0,0,3.94-.55,1.07,1.07,0,0,0,.39-.82,22.56,22.56,0,0,1,0-2.36c.87-6.06,1.79-12.11,2.69-18.17.37-2.47.78-4.95,1.07-7.43A1.94,1.94,0,0,0,102,7a6.4,6.4,0,0,0-4.47.84,1.36,1.36,0,0,0-.43,1,21.52,21.52,0,0,1,.14,2.74C96.49,16.79,95.69,22,94.9,27.14,94.46,30.07,94,33,93.6,35.48ZM46.85,23.36c1.63-.21,3.09-.49,4.2-1.71a2.71,2.71,0,0,0-.61-4.37c-.47-.3-.74-.25-1.16.18a35.34,35.34,0,0,1-3.1,2.7,17.51,17.51,0,0,1-1.95,1.16c-.61.36-.59.85,0,1.12A24.83,24.83,0,0,0,46.85,23.36Z"/><path d="M22.72,34.9c.28-2.22.52-4.2.79-6.18.44-3.3.91-6.59,1.32-9.89.09-.72.41-.86,1-.82a3.32,3.32,0,0,1,3.24,2.71,13.27,13.27,0,0,1-1.65,10.81,7.63,7.63,0,0,1-3.5,3C23.62,34.63,23.28,34.71,22.72,34.9Z"/><path d="M79.73,26.9a6.73,6.73,0,0,1,2-2.85A3,3,0,0,1,84,23.6a2,2,0,0,1,.64,1.69q-.78,4.81-1.81,9.58a3.37,3.37,0,0,1-1.16,1.65,2.18,2.18,0,0,1-2.49.34,2.14,2.14,0,0,1-1-2.18A47.29,47.29,0,0,1,79.73,26.9Z"/><path d="M117.59,22.61a20.29,20.29,0,0,1-2.17,7.78,6.31,6.31,0,0,1-1.06,1.42,2.39,2.39,0,0,1-2.63.65,2.18,2.18,0,0,1-1.36-2.12,15.5,15.5,0,0,1,3-10.11A2.44,2.44,0,0,1,116,19c1.2.3,1.36,1.41,1.56,2.41A10.3,10.3,0,0,1,117.59,22.61Z"/><path d="M47.07,28.67c1.71-.42,2.39.82,2.18,2.18a5.1,5.1,0,0,1-4.44,4c-2.26.42-2.57.14-1.7-2a11,11,0,0,1,2.07-3.17A4.18,4.18,0,0,1,47.07,28.67Z"/></svg>