<svg id="26779e87-c2e1-4c9d-be11-0d5fdb07f4dc" data-name="Capa 1" xmlns="http://www.w3.org/2000/svg" viewBox="0 0 61.5 58.57"><title>LANDING MOVDI ASSETS</title><path d="M2.19,29.29C2.19,44.76,15,57.34,30.75,57.34S59.31,44.76,59.31,29.29,46.5,1.23,30.75,1.23,2.19,13.82,2.19,29.29m2.83,0A25.54,25.54,0,0,1,30.75,4,25.54,25.54,0,0,1,56.48,29.29,25.54,25.54,0,0,1,30.75,54.56,25.54,25.54,0,0,1,5,29.29"/><path d="M30.75,57.52C14.91,57.52,2,44.85,2,29.29S14.91,1.05,30.75,1.05,59.48,13.72,59.48,29.29,46.6,57.52,30.75,57.52Zm0-56.12C15.1,1.4,2.36,13.91,2.36,29.29S15.1,57.17,30.75,57.17,59.14,44.66,59.14,29.29,46.4,1.4,30.75,1.4Zm0,53.34A25.71,25.71,0,0,1,4.85,29.29,25.71,25.71,0,0,1,30.75,3.83a25.71,25.71,0,0,1,25.9,25.46,25.71,25.71,0,0,1-25.9,25.45Zm0-50.56A25.37,25.37,0,0,0,5.19,29.29,25.36,25.36,0,0,0,30.75,54.39,25.36,25.36,0,0,0,56.31,29.29,25.36,25.36,0,0,0,30.75,4.18Z"/><path d="M7,22.62H9.45c2,0,2.86.73,2.86,2.42v3.3c0,1.73-.87,2.46-2.86,2.46H9.07V36H7ZM10.27,25c0-.6-.25-.88-.76-.88H9.07v5h.44c.51,0,.76-.28.76-.88Zm5.14-2.42c2,0,2.86.73,2.86,2.46v1.57a2,2,0,0,1-2,2.27V29c1.34,0,2,.63,2,1.85v2.74A5.81,5.81,0,0,0,18.63,36H16.49a4.93,4.93,0,0,1-.27-1.9V30.61c0-.6-.38-.84-1.12-.84H15V36H13V22.62ZM16.22,25c0-.6-.25-.88-.76-.88H15v3.95h.44c.51,0,.76-.28.76-.88ZM19.06,20h2V31.17c0,.52.11.82.59.82s.6-.3.6-.82V20h2V31.09a2.32,2.32,0,0,1-2.64,2.57,2.32,2.32,0,0,1-2.64-2.57Zm8.7,2.67c2,0,2.87.71,2.87,2.46v8.5c0,1.75-.87,2.46-2.87,2.46H25.36V22.62Zm-.38,11.77h.43c.51,0,.76-.28.76-.88V25c0-.6-.25-.88-.76-.88h-.43ZM31.6,22.62h4.49v1.82H33.62v3.37H36v1.77H33.62v4.6h2.47V36H31.6Zm5.17,0h3.09l.76,5.49c.23,1.7.47,3.78.7,6.24h.11c-.06-2.68-.08-4.21-.08-4.62l-.06-7.11H43V36H40l-1-7.42c-.25-1.86-.43-3.32-.55-4.4H38.3c0,2,.06,3.07.06,3.37L38.42,36H36.77Zm9.82,1.32c-.48,0-.59.28-.59.8v9.09c0,.52.11.82.59.82s.59-.3.59-.82v-3h2v2.94a2.32,2.32,0,0,1-2.63,2.57A2.32,2.32,0,0,1,44,33.76V24.91a2.32,2.32,0,0,1,2.64-2.57,2.32,2.32,0,0,1,2.63,2.57v2.66h-2V24.74c0-.52-.11-.8-.59-.8M50,22.62h4.49v1.82H52v3.37H54.4v1.77H52v4.6h2.46V36H50Z"/><path d="M21.88,40.55a.78.78,0,0,0-.62-.29.71.71,0,0,0-.73.74.7.7,0,0,0,.74.73.82.82,0,0,0,.61-.28v.83a2,2,0,0,1-.63.12,1.53,1.53,0,0,1-1-.39,1.3,1.3,0,0,1-.44-1,1.39,1.39,0,0,1,.4-1,1.5,1.5,0,0,1,1-.43,1.69,1.69,0,0,1,.65.13Z"/><path d="M25.19,40.94a1.51,1.51,0,1,1-1.51-1.38,1.44,1.44,0,0,1,1.51,1.38m-2.28,0a.77.77,0,1,0,1.54,0,.77.77,0,0,0-1.54,0"/><polygon points="25.52 39.65 26.23 39.65 27.53 41.29 27.54 41.29 27.54 39.65 28.25 39.65 28.25 42.33 27.54 42.33 26.24 40.69 26.23 40.69 26.23 42.33 25.52 42.33 25.52 39.65"/><path d="M28.71,39.65h1a1.34,1.34,0,1,1,0,2.68h-1Zm.71,2.09h.16a.75.75,0,1,0,0-1.5h-.17Z"/><path d="M34.3,40.94a1.51,1.51,0,1,1-1.51-1.38,1.44,1.44,0,0,1,1.51,1.38m-2.28,0a.77.77,0,1,0,1.54,0,.77.77,0,0,0-1.54,0"/><polygon points="34.63 39.65 35.34 39.65 36.64 41.29 36.65 41.29 36.65 39.65 37.35 39.65 37.35 42.33 36.65 42.33 35.35 40.69 35.34 40.69 35.34 42.33 34.63 42.33 34.63 39.65"/><polygon points="38.53 40.24 38.53 40.69 39.32 40.69 39.32 41.28 38.53 41.28 38.53 41.74 39.37 41.74 39.37 42.33 37.82 42.33 37.82 39.65 39.37 39.65 39.37 40.24 38.53 40.24"/><path d="M41.3,40.34a.75.75,0,0,0-.47-.18c-.13,0-.3.07-.3.22s.19.22.31.26l.18.05c.38.11.67.3.67.73a.9.9,0,0,1-.28.72,1.21,1.21,0,0,1-.77.25,1.7,1.7,0,0,1-1-.3l.3-.56a1,1,0,0,0,.63.28c.17,0,.34-.08.34-.27s-.28-.26-.43-.3c-.44-.12-.74-.24-.74-.76a.88.88,0,0,1,.94-.9,1.9,1.9,0,0,1,.85.22Z"/><polygon points="19.67 46 20.52 46 20.52 46.59 18.96 46.59 18.96 43.91 19.67 43.91 19.67 46"/><path d="M23.11,43.91v1.5a1.2,1.2,0,0,1-.29.94,1.52,1.52,0,0,1-1.81,0,1.2,1.2,0,0,1-.29-.94v-1.5h.71v1.41c0,.35,0,.73.48.73s.48-.38.48-.73V43.91Z"/><path d="M23.56,46.59V43.91h1c.49,0,.81.18.81.69a.55.55,0,0,1-.3.55h0a.6.6,0,0,1,.56.68c0,.56-.49.75-1,.75ZM24.27,45h.08c.19,0,.38,0,.38-.26s-.22-.26-.41-.26h0Zm0,1.09h.09c.21,0,.56,0,.56-.28s-.35-.29-.58-.29h-.07Z"/><path d="M28.28,46.59H27.4l-.67-1h0v1H26V43.91h1.06c.54,0,.95.25.95.82a.72.72,0,0,1-.6.76Zm-1.56-1.48h.07c.23,0,.49,0,.49-.33s-.26-.33-.49-.33h-.07Z"/><rect x="28.47" y="43.91" width="0.71" height="2.68"/><path d="M31.59,44.81a.77.77,0,0,0-.62-.29.71.71,0,0,0-.73.74A.7.7,0,0,0,31,46a.82.82,0,0,0,.61-.28v.83a2,2,0,0,1-.62.12,1.54,1.54,0,0,1-1-.39,1.3,1.3,0,0,1-.44-1,1.39,1.39,0,0,1,.4-1,1.49,1.49,0,0,1,1-.43,1.68,1.68,0,0,1,.65.13Z"/><path d="M32.72,46.12l-.19.47h-.75l1-2.68h.77l1,2.68h-.76l-.18-.47Zm.49-1.38h0l-.29.85h.59Z"/><path d="M34.85,43.91h1a1.34,1.34,0,1,1,0,2.68h-1ZM35.56,46h.16a.75.75,0,1,0,0-1.5h-.17Z"/><path d="M40.44,45.2a1.51,1.51,0,1,1-1.51-1.38,1.44,1.44,0,0,1,1.51,1.38m-2.28,0a.77.77,0,1,0,1.54,0,.77.77,0,0,0-1.54,0"/><path d="M42.27,44.6a.76.76,0,0,0-.47-.18c-.13,0-.3.07-.3.22s.19.22.31.26L42,45c.38.11.67.3.67.73a.9.9,0,0,1-.28.72,1.21,1.21,0,0,1-.77.25,1.7,1.7,0,0,1-1-.31l.3-.56a1,1,0,0,0,.63.28c.17,0,.34-.08.34-.27s-.28-.26-.43-.31c-.44-.12-.74-.24-.74-.76a.87.87,0,0,1,.94-.9,1.88,1.88,0,0,1,.85.22Z"/><path d="M49.41,18.75a1.65,1.65,0,1,1-1.64-1.61,1.62,1.62,0,0,1,1.64,1.61m-2.89,0A1.25,1.25,0,0,0,47.77,20,1.23,1.23,0,0,0,49,18.75a1.24,1.24,0,1,0-2.48,0m1,.83h-.37V18a4.52,4.52,0,0,1,.62,0,.85.85,0,0,1,.55.13.4.4,0,0,1,.17.34.42.42,0,0,1-.33.38v0c.16,0,.23.18.29.39a1.51,1.51,0,0,0,.12.39h-.39a1.33,1.33,0,0,1-.13-.39c0-.17-.13-.25-.33-.25H47.5Zm0-.9h.18c.21,0,.37-.07.37-.24s-.11-.25-.34-.25l-.2,0Z"/></svg>