<svg id="bd798e30-0059-4557-8413-6f4824bfd812" data-name="Capa 1" xmlns="http://www.w3.org/2000/svg" viewBox="0 0 178.75 29.21"><defs><style>.ee16a6f9-c84c-4fa3-a20c-03ff8c6f8a3f{fill:#ff4612;}</style></defs><title>LANDING MOVDI ASSETS</title><path class="ee16a6f9-c84c-4fa3-a20c-03ff8c6f8a3f" d="M23.06,12.73,22,12.46l-.71-.18.38-.62.58-1,1-1.66,2.43-4-.41-.41L21.22,7,19.56,8l-1,.58L18,9l-.17-.7-.27-1.09-.46-1.88L15.95.75h-.58L14.23,5.3l-.47,1.87-.27,1.09L13.31,9l-.62-.38-1-.58L10.07,7l-4-2.43L5.65,5,8.06,9l1,1.65.58,1,.38.63-.7.17-1.09.27-1.88.46L1.78,14.29v.58L6.33,16l1.87.47,1.09.27.71.18-.38.62-.58,1L8,20.16l-2.43,4,.41.41,4-2.41,1.65-1,1-.58.63-.38.17.7L13.74,22l.46,1.88,1.11,4.55h.58L17,23.9,17.5,22l.27-1.09.18-.71.62.38,1,.58,1.66,1,4,2.43.41-.41-2.41-4-1-1.65-.58-1-.38-.63.7-.17L23,16.5,24.93,16l4.55-1.11v-.58L24.93,13.2Zm-4.44-1.08v0h0v-.08l0,.09.14,0Z"/><path class="ee16a6f9-c84c-4fa3-a20c-03ff8c6f8a3f" d="M72.22,12.73l-1.09-.27-.71-.18.38-.62.58-1,1-1.66,2.43-4-.41-.41L70.38,7,68.72,8l-1,.58L67.13,9,67,8.28l-.27-1.09-.46-1.88L65.11.75h-.58L63.39,5.3l-.47,1.87-.27,1.09L62.47,9l-.62-.38-1-.58L59.23,7l-4-2.43L54.81,5l2.41,4,1,1.65.58,1,.38.63-.7.17-1.09.27-1.88.46-4.55,1.11v.58L55.49,16l1.87.47,1.09.27.71.18-.38.62-.58,1-1,1.66-2.43,4,.41.41,4-2.41,1.65-1,1-.58.63-.38.17.7L62.9,22l.46,1.88,1.11,4.55h.58L66.2,23.9,66.66,22l.27-1.09.18-.71.62.38,1,.58,1.66,1,4,2.43.41-.41-2.41-4-1-1.65-.58-1-.38-.63.7-.17,1.09-.27L74.09,16l4.55-1.11v-.58L74.09,13.2Zm-4.44-1.08v0h0v-.08l0,.09.14,0Z"/><path class="ee16a6f9-c84c-4fa3-a20c-03ff8c6f8a3f" d="M121.38,12.73l-1.09-.27-.71-.18.38-.62.58-1,1-1.66L124,5l-.41-.41-4,2.41-1.65,1-1,.58-.63.38-.17-.7-.27-1.09-.46-1.88L114.27.75h-.58L112.55,5.3l-.47,1.87-.27,1.09-.18.71L111,8.61l-1-.58L108.4,7l-4-2.43L104,5l2.41,4,1,1.65.58,1,.38.63-.7.17-1.09.27-1.88.46-4.55,1.11v.58L104.66,16l1.87.47,1.09.27.71.18-.38.62-.58,1-1,1.66-2.43,4,.41.41,4-2.41,1.65-1,1-.58.63-.38.17.7.27,1.09.46,1.88,1.11,4.55h.58l1.14-4.55.47-1.87.27-1.09.18-.71.62.38,1,.58,1.66,1,4,2.43.41-.41-2.41-4-1-1.65-.58-1-.38-.63.7-.17,1.09-.27,1.88-.46,4.55-1.11v-.58l-4.55-1.14Zm-4.44-1.08v0h0v-.08l0,.09.14,0Z"/><path class="ee16a6f9-c84c-4fa3-a20c-03ff8c6f8a3f" d="M170.55,12.73l-1.09-.27-.71-.18.38-.62.58-1,1-1.66,2.43-4-.41-.41L168.7,7,167,8l-1,.58-.63.38-.17-.7L165,7.19l-.46-1.88L163.44.75h-.58L161.72,5.3l-.47,1.87L161,8.27,160.8,9l-.62-.38-1-.58-1.66-1-4-2.43-.41.41,2.41,4,1,1.65.58,1,.38.63-.7.17-1.09.27-1.88.46-4.55,1.11v.58L153.82,16l1.87.47,1.09.27.71.18-.38.62-.58,1-1,1.66-2.43,4,.41.41,4-2.41,1.65-1,1-.58.63-.38.17.7.27,1.09.46,1.88,1.11,4.55h.58l1.14-4.55L165,22l.27-1.09.18-.71.62.38,1,.58,1.66,1,4,2.43.41-.41-2.41-4-1-1.65-.58-1-.38-.63.7-.17,1.09-.27,1.88-.46L177,14.92v-.58l-4.55-1.14Zm-4.44-1.08v0h0v-.08l0,.09.14,0Z"/></svg>